<svg width="418" height="450" viewBox="0 0 418 450" fill="none" xmlns="http://www.w3.org/2000/svg">
<rect x="0.5" y="0.5" width="416.333" height="449" rx="19.5" stroke="#C4C4C4"/>
<path d="M204.467 106.545H201.667V109.339H204.467V106.545Z" fill="#F6DBA0"/>
<path d="M215.667 106.545H212.867V109.339H215.667V106.545Z" fill="#F6DBA0"/>
<path d="M208.807 114.473L209.437 114.788L210.697 112.29L210.067 111.976C209.454 111.662 209.139 110.946 209.367 110.282L209.997 108.396L207.337 107.505L206.707 109.391C206.059 111.365 206.952 113.53 208.807 114.473Z" fill="#F6DBA0"/>
<path d="M204.782 119.607C207.127 121.179 210.189 121.179 212.552 119.607L213.637 118.874L212.079 116.551L210.994 117.285C209.577 118.228 207.739 118.228 206.339 117.285L205.254 116.551L203.697 118.874L204.782 119.607Z" fill="#F6DBA0"/>
<path d="M183.869 106.143C184.412 106.684 185.304 106.684 185.847 106.143C186.109 105.881 186.249 105.532 186.249 105.148V98.1622H184.849C184.079 98.1622 183.449 98.7909 183.449 99.5593V101.777L180.247 98.5813C179.984 98.3193 179.634 98.1796 179.249 98.1796H170.867C170.097 98.1796 169.467 97.5509 169.467 96.7825V85.5884C169.467 84.82 170.097 84.1913 170.867 84.1913H187.667V81.3971H170.867C168.557 81.3971 166.667 83.2832 166.667 85.5884V96.7651C166.667 99.0703 168.557 100.956 170.867 100.956H178.689L183.869 106.143Z" fill="#F6DBA0"/>
<path d="M184.867 86.9854H172.267V89.7796H184.867V86.9854Z" fill="#F6DBA0"/>
<path d="M184.867 92.5738H172.267V95.368H184.867V92.5738Z" fill="#F6DBA0"/>
<path d="M234.532 138.154L236.002 135.779C235.547 135.499 235.057 135.272 234.567 135.115L217.067 129.282V122.751C219.569 120.69 221.354 117.879 222.177 114.753L224.819 114.089C227.252 113.478 228.739 111.033 228.127 108.605C227.969 107.977 227.689 107.4 227.287 106.894L227.462 106.37C229.842 99.2274 230.332 91.5784 228.844 84.1738L228.232 81.1177C228.109 80.4715 227.532 80 226.867 80H200.162C193.144 80 187.439 85.6757 187.439 92.696C187.439 93.5867 187.527 94.4773 187.719 95.3505L190.169 106.719C188.524 108.605 188.734 111.469 190.624 113.111C191.167 113.583 191.797 113.914 192.497 114.089L195.139 114.753C195.962 117.896 197.747 120.69 200.249 122.751V129.282L187.842 133.404L187.649 128.863V125.563L188.122 125.318C189.557 124.62 190.449 123.153 190.449 121.563V117.721C190.449 115.416 188.559 113.53 186.249 113.53H180.667V107.942C180.667 105.619 178.794 103.751 176.467 103.751C174.139 103.751 172.267 105.619 172.267 107.942V121.581C172.267 123.17 173.159 124.62 174.594 125.336L175.067 125.58V127.501C174.314 127.501 173.702 128.095 173.667 128.846L172.564 155.39C172.372 159.861 175.854 163.633 180.334 163.825C184.814 164.017 188.594 160.542 188.787 156.072C188.804 155.844 188.804 155.617 188.787 155.39L187.999 136.32L196.084 133.631V144.266C196.084 145.035 196.714 145.663 197.484 145.663C197.817 145.663 198.149 145.541 198.412 145.314L203.522 140.843C203.732 141.35 204.029 141.821 204.379 142.24L201.684 163.651L204.467 164L206.969 144.004C208.072 144.353 209.279 144.353 210.382 144.004L212.884 164L215.667 163.651L212.989 142.24C213.339 141.821 213.619 141.35 213.847 140.843L218.957 145.314C219.534 145.82 220.427 145.768 220.934 145.174C221.162 144.912 221.284 144.598 221.284 144.249V133.613L233.692 137.735C233.972 137.857 234.269 137.997 234.532 138.154ZM175.067 107.942C175.067 107.173 175.697 106.545 176.467 106.545C177.237 106.545 177.867 107.173 177.867 107.942V113.53H176.467C175.994 113.53 175.522 113.617 175.067 113.775V107.942ZM184.499 159.407C182.469 161.52 179.109 161.59 176.992 159.564C175.889 158.516 175.294 157.032 175.364 155.513L176.064 138.678H185.287L185.987 155.513C186.039 156.945 185.514 158.359 184.499 159.407ZM176.169 135.884L176.397 130.295H184.919L185.147 135.884H176.169ZM186.897 122.838L185.637 123.467C185.164 123.711 184.867 124.183 184.867 124.724V127.519H177.867V124.724C177.867 124.2 177.569 123.711 177.097 123.467L175.837 122.838C175.364 122.611 175.067 122.122 175.067 121.581V117.721C175.067 116.953 175.697 116.324 176.467 116.324H180.667C180.667 117.093 180.037 117.721 179.267 117.721H177.867V120.516H179.267C181.577 120.516 183.467 118.63 183.467 116.324H186.267C187.037 116.324 187.667 116.953 187.667 117.721V121.581C187.667 122.105 187.369 122.594 186.897 122.838ZM224.137 111.365L222.632 111.731C222.649 111.452 222.649 111.173 222.649 110.876V107.942H223.699C224.662 107.942 225.449 108.728 225.449 109.688C225.467 110.474 224.924 111.173 224.137 111.365ZM193.197 111.365C192.269 111.138 191.692 110.195 191.919 109.252C192.112 108.483 192.812 107.924 193.617 107.924H194.667V110.876C194.667 111.155 194.684 111.435 194.684 111.731L193.197 111.365ZM194.667 104.606V105.148H193.617C193.319 105.148 193.022 105.183 192.724 105.235L190.467 94.7568C189.312 89.4129 192.724 84.1563 198.079 83.0037C198.762 82.864 199.462 82.7767 200.162 82.7767H225.712L226.097 84.7152C227.462 91.5609 227.042 98.6511 224.872 105.287C224.504 105.183 224.102 105.148 223.717 105.148H222.667V103.681C222.667 102.388 222.019 101.166 220.934 100.45C219.114 99.2274 217.627 97.5684 216.647 95.6125L215.509 93.3422C215.159 92.6437 214.319 92.3642 213.637 92.7135C213.392 92.8358 213.199 93.0104 213.059 93.2374L212.482 94.2154C210.434 97.6208 206.882 99.8561 202.927 100.258L198.167 100.729C196.172 100.939 194.667 102.598 194.667 104.606ZM197.467 110.893V104.589C197.467 104.03 197.887 103.558 198.447 103.506L203.207 103.035C207.564 102.598 211.537 100.328 214.109 96.8L214.144 96.8524C215.352 99.2449 217.154 101.288 219.377 102.773C219.674 102.965 219.867 103.314 219.867 103.681V110.893C219.867 115.451 217.382 119.66 213.392 121.878L209.349 124.113C208.929 124.358 208.404 124.358 207.984 124.113L203.942 121.895C199.952 119.677 197.467 115.469 197.467 110.893ZM214.267 124.602V129.509L208.667 132.862L203.067 129.509V124.602L206.619 126.575C207.879 127.291 209.437 127.291 210.697 126.575L214.267 124.602ZM198.867 141.193V132.705L201.492 131.832L206.287 134.714L198.867 141.193ZM208.667 141.472C207.162 141.472 205.937 140.284 205.867 138.783L208.667 136.338L211.467 138.783C211.397 140.284 210.172 141.472 208.667 141.472ZM218.467 141.193L211.029 134.696L215.824 131.815L218.449 132.688V141.193H218.467Z" fill="#F6DBA0"/>
<path d="M249.162 118.577C248.952 118.053 248.427 117.721 247.867 117.721H243.124L240.709 112.901C240.359 112.203 239.519 111.923 238.837 112.273C238.574 112.412 238.347 112.622 238.207 112.901L235.809 117.721H231.067C230.297 117.721 229.667 118.35 229.667 119.119C229.667 119.485 229.807 119.852 230.069 120.114L233.744 123.781L232.484 130.033C232.327 130.784 232.817 131.518 233.587 131.675C233.972 131.745 234.374 131.657 234.707 131.43L239.467 127.85L244.227 131.413C244.839 131.884 245.714 131.745 246.187 131.133C246.432 130.819 246.519 130.417 246.432 130.016L245.172 123.764L248.847 120.096C249.249 119.712 249.372 119.101 249.162 118.577ZM242.669 122.314C242.337 122.646 242.197 123.118 242.284 123.572L242.967 126.977L240.307 124.986C239.817 124.62 239.117 124.62 238.627 124.986L235.967 126.977L236.649 123.572C236.737 123.118 236.597 122.646 236.264 122.314L234.444 120.516H236.667C237.192 120.516 237.682 120.219 237.927 119.747L239.467 116.656L241.007 119.747C241.252 120.219 241.724 120.516 242.267 120.516H244.489L242.669 122.314Z" fill="#F6DBA0"/>
<path d="M245.067 137.281H243.667C242.127 137.281 240.867 136.023 240.867 134.486V131.692H238.067V134.486C238.067 137.578 240.569 140.075 243.667 140.075H245.067C246.607 140.075 247.867 141.332 247.867 142.869C247.867 144.406 246.607 145.663 245.067 145.663H232.467C229.369 145.663 226.867 148.16 226.867 151.252C226.867 154.343 229.369 156.84 232.467 156.84H233.867C236.177 156.84 238.067 158.726 238.067 161.031V163.825H240.867V161.031C240.867 157.172 237.734 154.046 233.867 154.046H232.467C230.927 154.046 229.667 152.788 229.667 151.252C229.667 149.715 230.927 148.457 232.467 148.457H245.067C248.164 148.457 250.667 145.96 250.667 142.869C250.667 139.778 248.164 137.281 245.067 137.281Z" fill="#F6DBA0"/>
<path d="M240.867 105.148H238.067V109.339H240.867V105.148Z" fill="#F6DBA0"/>
<path d="M245.474 106.956L242.678 109.747L244.658 111.722L247.454 108.932L245.474 106.956Z" fill="#F6DBA0"/>
<path d="M248.833 112.205L244.632 113.602L245.518 116.253L249.718 114.856L248.833 112.205Z" fill="#F6DBA0"/>
<path d="M233.458 106.956L231.478 108.932L234.274 111.722L236.254 109.747L233.458 106.956Z" fill="#F6DBA0"/>
<path d="M230.121 112.207L229.235 114.857L233.436 116.255L234.321 113.604L230.121 112.207Z" fill="#F6DBA0"/>
<path d="M87.1437 233.67H94.0437V237H82.9437V216.06H87.1437V233.67ZM98.8432 218.4C98.1032 218.4 97.4832 218.17 96.9832 217.71C96.5032 217.23 96.2632 216.64 96.2632 215.94C96.2632 215.24 96.5032 214.66 96.9832 214.2C97.4832 213.72 98.1032 213.48 98.8432 213.48C99.5832 213.48 100.193 213.72 100.673 214.2C101.173 214.66 101.423 215.24 101.423 215.94C101.423 216.64 101.173 217.23 100.673 217.71C100.193 218.17 99.5832 218.4 98.8432 218.4ZM100.913 220.38V237H96.7132V220.38H100.913ZM112.683 223.83H109.773V237H105.513V223.83H103.623V220.38H105.513V219.54C105.513 217.5 106.093 216 107.253 215.04C108.413 214.08 110.163 213.63 112.503 213.69V217.23C111.483 217.21 110.773 217.38 110.373 217.74C109.973 218.1 109.773 218.75 109.773 219.69V220.38H112.683V223.83ZM130.855 228.33C130.855 228.93 130.815 229.47 130.735 229.95H118.585C118.685 231.15 119.105 232.09 119.845 232.77C120.585 233.45 121.495 233.79 122.575 233.79C124.135 233.79 125.245 233.12 125.905 231.78H130.435C129.955 233.38 129.035 234.7 127.675 235.74C126.315 236.76 124.645 237.27 122.665 237.27C121.065 237.27 119.625 236.92 118.345 236.22C117.085 235.5 116.095 234.49 115.375 233.19C114.675 231.89 114.325 230.39 114.325 228.69C114.325 226.97 114.675 225.46 115.375 224.16C116.075 222.86 117.055 221.86 118.315 221.16C119.575 220.46 121.025 220.11 122.665 220.11C124.245 220.11 125.655 220.45 126.895 221.13C128.155 221.81 129.125 222.78 129.805 224.04C130.505 225.28 130.855 226.71 130.855 228.33ZM126.505 227.13C126.485 226.05 126.095 225.19 125.335 224.55C124.575 223.89 123.645 223.56 122.545 223.56C121.505 223.56 120.625 223.88 119.905 224.52C119.205 225.14 118.775 226.01 118.615 227.13H126.505ZM138.12 233.67H145.02V237H133.92V216.06H138.12V233.67ZM149.82 218.4C149.08 218.4 148.46 218.17 147.96 217.71C147.48 217.23 147.24 216.64 147.24 215.94C147.24 215.24 147.48 214.66 147.96 214.2C148.46 213.72 149.08 213.48 149.82 213.48C150.56 213.48 151.17 213.72 151.65 214.2C152.15 214.66 152.4 215.24 152.4 215.94C152.4 216.64 152.15 217.23 151.65 217.71C151.17 218.17 150.56 218.4 149.82 218.4ZM151.89 220.38V237H147.69V220.38H151.89ZM165.249 220.14C167.229 220.14 168.829 220.77 170.049 222.03C171.269 223.27 171.879 225.01 171.879 227.25V237H167.679V227.82C167.679 226.5 167.349 225.49 166.689 224.79C166.029 224.07 165.129 223.71 163.989 223.71C162.829 223.71 161.909 224.07 161.229 224.79C160.569 225.49 160.239 226.5 160.239 227.82V237H156.039V220.38H160.239V222.45C160.799 221.73 161.509 221.17 162.369 220.77C163.249 220.35 164.209 220.14 165.249 220.14ZM191.323 228.33C191.323 228.93 191.283 229.47 191.203 229.95H179.053C179.153 231.15 179.573 232.09 180.313 232.77C181.053 233.45 181.963 233.79 183.043 233.79C184.603 233.79 185.713 233.12 186.373 231.78H190.903C190.423 233.38 189.503 234.7 188.143 235.74C186.783 236.76 185.113 237.27 183.133 237.27C181.533 237.27 180.093 236.92 178.813 236.22C177.553 235.5 176.563 234.49 175.843 233.19C175.143 231.89 174.793 230.39 174.793 228.69C174.793 226.97 175.143 225.46 175.843 224.16C176.543 222.86 177.523 221.86 178.783 221.16C180.043 220.46 181.493 220.11 183.133 220.11C184.713 220.11 186.123 220.45 187.363 221.13C188.623 221.81 189.593 222.78 190.273 224.04C190.973 225.28 191.323 226.71 191.323 228.33ZM186.973 227.13C186.953 226.05 186.563 225.19 185.803 224.55C185.043 223.89 184.113 223.56 183.013 223.56C181.973 223.56 181.093 223.88 180.373 224.52C179.673 225.14 179.243 226.01 179.083 227.13H186.973ZM229.527 216.06L223.677 237H218.727L214.797 222.09L210.687 237L205.767 237.03L200.127 216.06H204.627L208.317 232.32L212.577 216.06H217.257L221.277 232.23L224.997 216.06H229.527ZM247.72 228.33C247.72 228.93 247.68 229.47 247.6 229.95H235.45C235.55 231.15 235.97 232.09 236.71 232.77C237.45 233.45 238.36 233.79 239.44 233.79C241 233.79 242.11 233.12 242.77 231.78H247.3C246.82 233.38 245.9 234.7 244.54 235.74C243.18 236.76 241.51 237.27 239.53 237.27C237.93 237.27 236.49 236.92 235.21 236.22C233.95 235.5 232.96 234.49 232.24 233.19C231.54 231.89 231.19 230.39 231.19 228.69C231.19 226.97 231.54 225.46 232.24 224.16C232.94 222.86 233.92 221.86 235.18 221.16C236.44 220.46 237.89 220.11 239.53 220.11C241.11 220.11 242.52 220.45 243.76 221.13C245.02 221.81 245.99 222.78 246.67 224.04C247.37 225.28 247.72 226.71 247.72 228.33ZM243.37 227.13C243.35 226.05 242.96 225.19 242.2 224.55C241.44 223.89 240.51 223.56 239.41 223.56C238.37 223.56 237.49 223.88 236.77 224.52C236.07 225.14 235.64 226.01 235.48 227.13H243.37ZM254.986 214.8V237H250.786V214.8H254.986ZM263.335 214.8V237H259.135V214.8H263.335ZM276.695 220.14C278.675 220.14 280.275 220.77 281.495 222.03C282.715 223.27 283.325 225.01 283.325 227.25V237H279.125V227.82C279.125 226.5 278.795 225.49 278.135 224.79C277.475 224.07 276.575 223.71 275.435 223.71C274.275 223.71 273.355 224.07 272.675 224.79C272.015 225.49 271.685 226.5 271.685 227.82V237H267.485V220.38H271.685V222.45C272.245 221.73 272.955 221.17 273.815 220.77C274.695 220.35 275.655 220.14 276.695 220.14ZM302.769 228.33C302.769 228.93 302.729 229.47 302.649 229.95H290.499C290.599 231.15 291.019 232.09 291.759 232.77C292.499 233.45 293.409 233.79 294.489 233.79C296.049 233.79 297.159 233.12 297.819 231.78H302.349C301.869 233.38 300.949 234.7 299.589 235.74C298.229 236.76 296.559 237.27 294.579 237.27C292.979 237.27 291.539 236.92 290.259 236.22C288.999 235.5 288.009 234.49 287.289 233.19C286.589 231.89 286.239 230.39 286.239 228.69C286.239 226.97 286.589 225.46 287.289 224.16C287.989 222.86 288.969 221.86 290.229 221.16C291.489 220.46 292.939 220.11 294.579 220.11C296.159 220.11 297.569 220.45 298.809 221.13C300.069 221.81 301.039 222.78 301.719 224.04C302.419 225.28 302.769 226.71 302.769 228.33ZM298.419 227.13C298.399 226.05 298.009 225.19 297.249 224.55C296.489 223.89 295.559 223.56 294.459 223.56C293.419 223.56 292.539 223.88 291.819 224.52C291.119 225.14 290.689 226.01 290.529 227.13H298.419ZM312.194 237.27C310.834 237.27 309.614 237.03 308.534 236.55C307.454 236.05 306.594 235.38 305.954 234.54C305.334 233.7 304.994 232.77 304.934 231.75H309.164C309.244 232.39 309.554 232.92 310.094 233.34C310.654 233.76 311.344 233.97 312.164 233.97C312.964 233.97 313.584 233.81 314.024 233.49C314.484 233.17 314.714 232.76 314.714 232.26C314.714 231.72 314.434 231.32 313.874 231.06C313.334 230.78 312.464 230.48 311.264 230.16C310.024 229.86 309.004 229.55 308.204 229.23C307.424 228.91 306.744 228.42 306.164 227.76C305.604 227.1 305.324 226.21 305.324 225.09C305.324 224.17 305.584 223.33 306.104 222.57C306.644 221.81 307.404 221.21 308.384 220.77C309.384 220.33 310.554 220.11 311.894 220.11C313.874 220.11 315.454 220.61 316.634 221.61C317.814 222.59 318.464 223.92 318.584 225.6H314.564C314.504 224.94 314.224 224.42 313.724 224.04C313.244 223.64 312.594 223.44 311.774 223.44C311.014 223.44 310.424 223.58 310.004 223.86C309.604 224.14 309.404 224.53 309.404 225.03C309.404 225.59 309.684 226.02 310.244 226.32C310.804 226.6 311.674 226.89 312.854 227.19C314.054 227.49 315.044 227.8 315.824 228.12C316.604 228.44 317.274 228.94 317.834 229.62C318.414 230.28 318.714 231.16 318.734 232.26C318.734 233.22 318.464 234.08 317.924 234.84C317.404 235.6 316.644 236.2 315.644 236.64C314.664 237.06 313.514 237.27 312.194 237.27ZM328.542 237.27C327.182 237.27 325.962 237.03 324.882 236.55C323.802 236.05 322.942 235.38 322.302 234.54C321.682 233.7 321.342 232.77 321.282 231.75H325.512C325.592 232.39 325.902 232.92 326.442 233.34C327.002 233.76 327.692 233.97 328.512 233.97C329.312 233.97 329.932 233.81 330.372 233.49C330.832 233.17 331.062 232.76 331.062 232.26C331.062 231.72 330.782 231.32 330.222 231.06C329.682 230.78 328.812 230.48 327.612 230.16C326.372 229.86 325.352 229.55 324.552 229.23C323.772 228.91 323.092 228.42 322.512 227.76C321.952 227.1 321.672 226.21 321.672 225.09C321.672 224.17 321.932 223.33 322.452 222.57C322.992 221.81 323.752 221.21 324.732 220.77C325.732 220.33 326.902 220.11 328.242 220.11C330.222 220.11 331.802 220.61 332.982 221.61C334.162 222.59 334.812 223.92 334.932 225.6H330.912C330.852 224.94 330.572 224.42 330.072 224.04C329.592 223.64 328.942 223.44 328.122 223.44C327.362 223.44 326.772 223.58 326.352 223.86C325.952 224.14 325.752 224.53 325.752 225.03C325.752 225.59 326.032 226.02 326.592 226.32C327.152 226.6 328.022 226.89 329.202 227.19C330.402 227.49 331.392 227.8 332.172 228.12C332.952 228.44 333.622 228.94 334.182 229.62C334.762 230.28 335.062 231.16 335.082 232.26C335.082 233.22 334.812 234.08 334.272 234.84C333.752 235.6 332.992 236.2 331.992 236.64C331.012 237.06 329.862 237.27 328.542 237.27ZM135.273 271.5C135.273 269.44 135.733 267.6 136.653 265.98C137.593 264.34 138.863 263.07 140.463 262.17C142.083 261.25 143.893 260.79 145.893 260.79C148.233 260.79 150.283 261.39 152.043 262.59C153.803 263.79 155.033 265.45 155.733 267.57H150.903C150.423 266.57 149.743 265.82 148.863 265.32C148.003 264.82 147.003 264.57 145.863 264.57C144.643 264.57 143.553 264.86 142.593 265.44C141.653 266 140.913 266.8 140.373 267.84C139.853 268.88 139.593 270.1 139.593 271.5C139.593 272.88 139.853 274.1 140.373 275.16C140.913 276.2 141.653 277.01 142.593 277.59C143.553 278.15 144.643 278.43 145.863 278.43C147.003 278.43 148.003 278.18 148.863 277.68C149.743 277.16 150.423 276.4 150.903 275.4H155.733C155.033 277.54 153.803 279.21 152.043 280.41C150.303 281.59 148.253 282.18 145.893 282.18C143.893 282.18 142.083 281.73 140.463 280.83C138.863 279.91 137.593 278.64 136.653 277.02C135.733 275.4 135.273 273.56 135.273 271.5ZM166.701 282.27C165.101 282.27 163.661 281.92 162.381 281.22C161.101 280.5 160.091 279.49 159.351 278.19C158.631 276.89 158.271 275.39 158.271 273.69C158.271 271.99 158.641 270.49 159.381 269.19C160.141 267.89 161.171 266.89 162.471 266.19C163.771 265.47 165.221 265.11 166.821 265.11C168.421 265.11 169.871 265.47 171.171 266.19C172.471 266.89 173.491 267.89 174.231 269.19C174.991 270.49 175.371 271.99 175.371 273.69C175.371 275.39 174.981 276.89 174.201 278.19C173.441 279.49 172.401 280.5 171.081 281.22C169.781 281.92 168.321 282.27 166.701 282.27ZM166.701 278.61C167.461 278.61 168.171 278.43 168.831 278.07C169.511 277.69 170.051 277.13 170.451 276.39C170.851 275.65 171.051 274.75 171.051 273.69C171.051 272.11 170.631 270.9 169.791 270.06C168.971 269.2 167.961 268.77 166.761 268.77C165.561 268.77 164.551 269.2 163.731 270.06C162.931 270.9 162.531 272.11 162.531 273.69C162.531 275.27 162.921 276.49 163.701 277.35C164.501 278.19 165.501 278.61 166.701 278.61ZM177.372 273.63C177.372 271.95 177.702 270.46 178.362 269.16C179.042 267.86 179.952 266.86 181.092 266.16C182.252 265.46 183.542 265.11 184.962 265.11C186.202 265.11 187.282 265.36 188.202 265.86C189.142 266.36 189.892 266.99 190.452 267.75V265.38H194.682V282H190.452V279.57C189.912 280.35 189.162 281 188.202 281.52C187.262 282.02 186.172 282.27 184.932 282.27C183.532 282.27 182.252 281.91 181.092 281.19C179.952 280.47 179.042 279.46 178.362 278.16C177.702 276.84 177.372 275.33 177.372 273.63ZM190.452 273.69C190.452 272.67 190.252 271.8 189.852 271.08C189.452 270.34 188.912 269.78 188.232 269.4C187.552 269 186.822 268.8 186.042 268.8C185.262 268.8 184.542 268.99 183.882 269.37C183.222 269.75 182.682 270.31 182.262 271.05C181.862 271.77 181.662 272.63 181.662 273.63C181.662 274.63 181.862 275.51 182.262 276.27C182.682 277.01 183.222 277.58 183.882 277.98C184.562 278.38 185.282 278.58 186.042 278.58C186.822 278.58 187.552 278.39 188.232 278.01C188.912 277.61 189.452 277.05 189.852 276.33C190.252 275.59 190.452 274.71 190.452 273.69ZM197.704 273.69C197.704 271.97 198.054 270.47 198.754 269.19C199.454 267.89 200.424 266.89 201.664 266.19C202.904 265.47 204.324 265.11 205.924 265.11C207.984 265.11 209.684 265.63 211.024 266.67C212.384 267.69 213.294 269.13 213.754 270.99H209.224C208.984 270.27 208.574 269.71 207.994 269.31C207.434 268.89 206.734 268.68 205.894 268.68C204.694 268.68 203.744 269.12 203.044 270C202.344 270.86 201.994 272.09 201.994 273.69C201.994 275.27 202.344 276.5 203.044 277.38C203.744 278.24 204.694 278.67 205.894 278.67C207.594 278.67 208.704 277.91 209.224 276.39H213.754C213.294 278.19 212.384 279.62 211.024 280.68C209.664 281.74 207.964 282.27 205.924 282.27C204.324 282.27 202.904 281.92 201.664 281.22C200.424 280.5 199.454 279.5 198.754 278.22C198.054 276.92 197.704 275.41 197.704 273.69ZM226.19 265.14C227.45 265.14 228.57 265.42 229.55 265.98C230.53 266.52 231.29 267.33 231.83 268.41C232.39 269.47 232.67 270.75 232.67 272.25V282H228.47V272.82C228.47 271.5 228.14 270.49 227.48 269.79C226.82 269.07 225.92 268.71 224.78 268.71C223.62 268.71 222.7 269.07 222.02 269.79C221.36 270.49 221.03 271.5 221.03 272.82V282H216.83V259.8H221.03V267.45C221.57 266.73 222.29 266.17 223.19 265.77C224.09 265.35 225.09 265.14 226.19 265.14ZM238.794 263.4C238.054 263.4 237.434 263.17 236.934 262.71C236.454 262.23 236.214 261.64 236.214 260.94C236.214 260.24 236.454 259.66 236.934 259.2C237.434 258.72 238.054 258.48 238.794 258.48C239.534 258.48 240.144 258.72 240.624 259.2C241.124 259.66 241.374 260.24 241.374 260.94C241.374 261.64 241.124 262.23 240.624 262.71C240.144 263.17 239.534 263.4 238.794 263.4ZM240.864 265.38V282H236.664V265.38H240.864ZM254.224 265.14C256.204 265.14 257.804 265.77 259.024 267.03C260.244 268.27 260.854 270.01 260.854 272.25V282H256.654V272.82C256.654 271.5 256.324 270.49 255.664 269.79C255.004 269.07 254.104 268.71 252.964 268.71C251.804 268.71 250.884 269.07 250.204 269.79C249.544 270.49 249.214 271.5 249.214 272.82V282H245.014V265.38H249.214V267.45C249.774 266.73 250.484 266.17 251.344 265.77C252.224 265.35 253.184 265.14 254.224 265.14ZM271.358 265.11C272.598 265.11 273.688 265.36 274.628 265.86C275.568 266.34 276.308 266.97 276.848 267.75V265.38H281.078V282.12C281.078 283.66 280.768 285.03 280.148 286.23C279.528 287.45 278.598 288.41 277.358 289.11C276.118 289.83 274.618 290.19 272.858 290.19C270.498 290.19 268.558 289.64 267.038 288.54C265.538 287.44 264.688 285.94 264.488 284.04H268.658C268.878 284.8 269.348 285.4 270.068 285.84C270.808 286.3 271.698 286.53 272.738 286.53C273.958 286.53 274.948 286.16 275.708 285.42C276.468 284.7 276.848 283.6 276.848 282.12V279.54C276.308 280.32 275.558 280.97 274.598 281.49C273.658 282.01 272.578 282.27 271.358 282.27C269.958 282.27 268.678 281.91 267.518 281.19C266.358 280.47 265.438 279.46 264.758 278.16C264.098 276.84 263.768 275.33 263.768 273.63C263.768 271.95 264.098 270.46 264.758 269.16C265.438 267.86 266.348 266.86 267.488 266.16C268.648 265.46 269.938 265.11 271.358 265.11ZM276.848 273.69C276.848 272.67 276.648 271.8 276.248 271.08C275.848 270.34 275.308 269.78 274.628 269.4C273.948 269 273.218 268.8 272.438 268.8C271.658 268.8 270.938 268.99 270.278 269.37C269.618 269.75 269.078 270.31 268.658 271.05C268.258 271.77 268.058 272.63 268.058 273.63C268.058 274.63 268.258 275.51 268.658 276.27C269.078 277.01 269.618 277.58 270.278 277.98C270.958 278.38 271.678 278.58 272.438 278.58C273.218 278.58 273.948 278.39 274.628 278.01C275.308 277.61 275.848 277.05 276.248 276.33C276.648 275.59 276.848 274.71 276.848 273.69Z" fill="white"/>
<rect x="135.167" y="334" width="147" height="36" rx="18" fill="white"/>
<path d="M156.533 358V346.48H158.461V356.192H163.549V358H156.533ZM168.832 358.24C167.957 358.24 167.189 358.051 166.528 357.672C165.867 357.293 165.349 356.768 164.976 356.096C164.608 355.424 164.424 354.651 164.424 353.776C164.424 352.832 164.605 352.013 164.968 351.32C165.331 350.621 165.835 350.08 166.48 349.696C167.125 349.312 167.872 349.12 168.72 349.12C169.616 349.12 170.376 349.331 171 349.752C171.629 350.168 172.096 350.757 172.4 351.52C172.704 352.283 172.819 353.181 172.744 354.216H170.832V353.512C170.827 352.573 170.661 351.888 170.336 351.456C170.011 351.024 169.499 350.808 168.8 350.808C168.011 350.808 167.424 351.053 167.04 351.544C166.656 352.029 166.464 352.741 166.464 353.68C166.464 354.555 166.656 355.232 167.04 355.712C167.424 356.192 167.984 356.432 168.72 356.432C169.195 356.432 169.603 356.328 169.944 356.12C170.291 355.907 170.557 355.6 170.744 355.2L172.648 355.776C172.317 356.555 171.805 357.16 171.112 357.592C170.424 358.024 169.664 358.24 168.832 358.24ZM165.856 354.216V352.76H171.8V354.216H165.856ZM176.789 358.24C176.165 358.24 175.637 358.123 175.205 357.888C174.773 357.648 174.445 357.331 174.221 356.936C174.002 356.541 173.893 356.107 173.893 355.632C173.893 355.216 173.962 354.843 174.101 354.512C174.239 354.176 174.453 353.888 174.741 353.648C175.029 353.403 175.402 353.203 175.861 353.048C176.207 352.936 176.613 352.835 177.077 352.744C177.546 352.653 178.053 352.571 178.597 352.496C179.146 352.416 179.719 352.331 180.317 352.24L179.629 352.632C179.634 352.035 179.501 351.595 179.229 351.312C178.957 351.029 178.498 350.888 177.853 350.888C177.463 350.888 177.087 350.979 176.725 351.16C176.362 351.341 176.109 351.653 175.965 352.096L174.205 351.544C174.418 350.813 174.823 350.227 175.421 349.784C176.023 349.341 176.834 349.12 177.853 349.12C178.621 349.12 179.295 349.245 179.877 349.496C180.463 349.747 180.898 350.157 181.181 350.728C181.335 351.032 181.429 351.344 181.461 351.664C181.493 351.979 181.509 352.323 181.509 352.696V358H179.821V356.128L180.101 356.432C179.711 357.056 179.255 357.515 178.733 357.808C178.215 358.096 177.567 358.24 176.789 358.24ZM177.173 356.704C177.61 356.704 177.983 356.627 178.293 356.472C178.602 356.317 178.847 356.128 179.029 355.904C179.215 355.68 179.341 355.469 179.405 355.272C179.506 355.027 179.562 354.747 179.573 354.432C179.589 354.112 179.597 353.853 179.597 353.656L180.189 353.832C179.607 353.923 179.109 354.003 178.693 354.072C178.277 354.141 177.919 354.208 177.621 354.272C177.322 354.331 177.058 354.397 176.829 354.472C176.605 354.552 176.415 354.645 176.261 354.752C176.106 354.859 175.986 354.981 175.901 355.12C175.821 355.259 175.781 355.421 175.781 355.608C175.781 355.821 175.834 356.011 175.941 356.176C176.047 356.336 176.202 356.464 176.405 356.56C176.613 356.656 176.869 356.704 177.173 356.704ZM183.591 358V349.36H185.295V351.464L185.087 351.192C185.194 350.904 185.335 350.643 185.511 350.408C185.693 350.168 185.909 349.971 186.159 349.816C186.373 349.672 186.607 349.56 186.863 349.48C187.125 349.395 187.391 349.344 187.663 349.328C187.935 349.307 188.199 349.317 188.455 349.36V351.16C188.199 351.085 187.903 351.061 187.567 351.088C187.237 351.115 186.938 351.208 186.671 351.368C186.405 351.512 186.186 351.696 186.015 351.92C185.85 352.144 185.727 352.4 185.647 352.688C185.567 352.971 185.527 353.277 185.527 353.608V358H183.591ZM195.958 358V353.84C195.958 353.568 195.939 353.267 195.902 352.936C195.865 352.605 195.777 352.288 195.638 351.984C195.505 351.675 195.302 351.421 195.03 351.224C194.763 351.027 194.401 350.928 193.942 350.928C193.697 350.928 193.454 350.968 193.214 351.048C192.974 351.128 192.755 351.267 192.558 351.464C192.366 351.656 192.211 351.923 192.094 352.264C191.977 352.6 191.918 353.032 191.918 353.56L190.774 353.072C190.774 352.336 190.915 351.669 191.198 351.072C191.486 350.475 191.907 350 192.462 349.648C193.017 349.291 193.699 349.112 194.51 349.112C195.15 349.112 195.678 349.219 196.094 349.432C196.51 349.645 196.841 349.917 197.086 350.248C197.331 350.579 197.513 350.931 197.63 351.304C197.747 351.677 197.822 352.032 197.854 352.368C197.891 352.699 197.91 352.968 197.91 353.176V358H195.958ZM189.966 358V349.36H191.686V352.04H191.918V358H189.966ZM213.577 358V352.752C213.577 352.16 213.43 351.699 213.137 351.368C212.843 351.032 212.446 350.864 211.945 350.864C211.635 350.864 211.358 350.936 211.113 351.08C210.867 351.219 210.673 351.427 210.529 351.704C210.385 351.976 210.313 352.301 210.313 352.68L209.457 352.176C209.451 351.579 209.585 351.053 209.857 350.6C210.134 350.141 210.507 349.784 210.977 349.528C211.446 349.272 211.969 349.144 212.545 349.144C213.499 349.144 214.23 349.432 214.737 350.008C215.249 350.579 215.505 351.331 215.505 352.264V358H213.577ZM203.185 358V349.36H204.889V352.04H205.129V358H203.185ZM208.393 358V352.776C208.393 352.173 208.246 351.704 207.953 351.368C207.659 351.032 207.259 350.864 206.753 350.864C206.262 350.864 205.867 351.032 205.569 351.368C205.275 351.704 205.129 352.141 205.129 352.68L204.265 352.104C204.265 351.544 204.403 351.04 204.681 350.592C204.958 350.144 205.331 349.792 205.801 349.536C206.275 349.275 206.806 349.144 207.393 349.144C208.038 349.144 208.577 349.283 209.009 349.56C209.446 349.832 209.771 350.205 209.985 350.68C210.203 351.149 210.313 351.68 210.313 352.272V358H208.393ZM221.267 358.24C220.403 358.24 219.648 358.045 219.003 357.656C218.357 357.267 217.856 356.731 217.499 356.048C217.147 355.36 216.971 354.571 216.971 353.68C216.971 352.773 217.152 351.979 217.515 351.296C217.877 350.613 218.381 350.08 219.027 349.696C219.672 349.312 220.419 349.12 221.267 349.12C222.136 349.12 222.893 349.315 223.539 349.704C224.184 350.093 224.685 350.632 225.043 351.32C225.4 352.003 225.579 352.789 225.579 353.68C225.579 354.576 225.397 355.368 225.035 356.056C224.677 356.739 224.176 357.275 223.531 357.664C222.885 358.048 222.131 358.24 221.267 358.24ZM221.267 356.432C222.035 356.432 222.605 356.176 222.979 355.664C223.352 355.152 223.539 354.491 223.539 353.68C223.539 352.843 223.349 352.176 222.971 351.68C222.592 351.179 222.024 350.928 221.267 350.928C220.749 350.928 220.323 351.045 219.987 351.28C219.656 351.509 219.411 351.832 219.251 352.248C219.091 352.659 219.011 353.136 219.011 353.68C219.011 354.517 219.2 355.187 219.579 355.688C219.963 356.184 220.525 356.432 221.267 356.432ZM227.341 358V349.36H229.045V351.464L228.837 351.192C228.944 350.904 229.085 350.643 229.261 350.408C229.443 350.168 229.659 349.971 229.909 349.816C230.123 349.672 230.357 349.56 230.613 349.48C230.875 349.395 231.141 349.344 231.413 349.328C231.685 349.307 231.949 349.317 232.205 349.36V351.16C231.949 351.085 231.653 351.061 231.317 351.088C230.987 351.115 230.688 351.208 230.421 351.368C230.155 351.512 229.936 351.696 229.765 351.92C229.6 352.144 229.477 352.4 229.397 352.688C229.317 352.971 229.277 353.277 229.277 353.608V358H227.341ZM237.504 358.24C236.629 358.24 235.861 358.051 235.2 357.672C234.538 357.293 234.021 356.768 233.648 356.096C233.28 355.424 233.096 354.651 233.096 353.776C233.096 352.832 233.277 352.013 233.64 351.32C234.002 350.621 234.506 350.08 235.152 349.696C235.797 349.312 236.544 349.12 237.392 349.12C238.288 349.12 239.048 349.331 239.672 349.752C240.301 350.168 240.768 350.757 241.072 351.52C241.376 352.283 241.49 353.181 241.416 354.216H239.504V353.512C239.498 352.573 239.333 351.888 239.008 351.456C238.682 351.024 238.17 350.808 237.472 350.808C236.682 350.808 236.096 351.053 235.712 351.544C235.328 352.029 235.136 352.741 235.136 353.68C235.136 354.555 235.328 355.232 235.712 355.712C236.096 356.192 236.656 356.432 237.392 356.432C237.866 356.432 238.274 356.328 238.616 356.12C238.962 355.907 239.229 355.6 239.416 355.2L241.32 355.776C240.989 356.555 240.477 357.16 239.784 357.592C239.096 358.024 238.336 358.24 237.504 358.24ZM234.528 354.216V352.76H240.472V354.216H234.528Z" fill="#007377"/>
<rect x="274.167" y="342" width="20" height="20" rx="10" transform="rotate(90 274.167 342)" fill="#007377"/>
<g clip-path="url(#clip0_2_252)">
<path d="M267.167 351.929L263.245 355.857L262.167 354.826L265.059 351.929L262.167 349.031L263.245 348L267.167 351.929Z" fill="white"/>
</g>
<defs>
<clipPath id="clip0_2_252">
<rect width="8" height="7" fill="white" transform="translate(267.667 348) rotate(90)"/>
</clipPath>
</defs>
</svg>
