<svg width="82" height="32" viewBox="0 0 82 32" fill="none" xmlns="http://www.w3.org/2000/svg">
<path d="M9.26844 14.3867C11.1884 18.16 14.2818 21.24 18.0551 23.1733L20.9884 20.24C21.3484 19.88 21.8818 19.76 22.3484 19.92C23.8418 20.4133 25.4551 20.68 27.1084 20.68C27.8418 20.68 28.4418 21.28 28.4418 22.0133V26.6667C28.4418 27.4 27.8418 28 27.1084 28C14.5884 28 4.44177 17.8533 4.44177 5.33333C4.44177 4.6 5.04177 4 5.77511 4H10.4418C11.1751 4 11.7751 4.6 11.7751 5.33333C11.7751 7 12.0418 8.6 12.5351 10.0933C12.6818 10.56 12.5751 11.08 12.2018 11.4533L9.26844 14.3867Z" fill="#007377"/>
<path fill-rule="evenodd" clip-rule="evenodd" d="M62.8313 27.5428V22.2559H58.2674C57.7832 22.2559 57.3188 22.0635 56.9765 21.7212C56.6341 21.3788 56.4418 20.9145 56.4418 20.4303V5.82559C56.4418 5.34141 56.6341 4.87707 56.9765 4.5347C57.3188 4.19234 57.7832 4 58.2674 4H80.1744C80.6586 4 81.1229 4.19234 81.4653 4.5347C81.8077 4.87707 82 5.34141 82 5.82559V20.4303C82 20.9145 81.8077 21.3788 81.4653 21.7212C81.1229 22.0635 80.6586 22.2559 80.1744 22.2559H69.2209L63.6109 27.8659C63.547 27.9299 63.4656 27.9735 63.377 27.9912C63.2884 28.0089 63.1965 27.9998 63.113 27.9652C63.0295 27.9306 62.9581 27.872 62.908 27.7968C62.8579 27.7216 62.8312 27.6332 62.8313 27.5428ZM61.9185 15.8663C61.9185 15.6242 62.0147 15.3921 62.1859 15.2209C62.3571 15.0497 62.5892 14.9535 62.8313 14.9535H75.6105C75.8525 14.9535 76.0847 15.0497 76.2559 15.2209C76.4271 15.3921 76.5232 15.6242 76.5232 15.8663C76.5232 16.1084 76.4271 16.3406 76.2559 16.5118C76.0847 16.683 75.8525 16.7791 75.6105 16.7791H62.8313C62.5892 16.7791 62.3571 16.683 62.1859 16.5118C62.0147 16.3406 61.9185 16.1084 61.9185 15.8663ZM62.8313 9.47676C62.5892 9.47676 62.3571 9.57293 62.1859 9.74412C62.0147 9.9153 61.9185 10.1475 61.9185 10.3896C61.9185 10.6316 62.0147 10.8638 62.1859 11.035C62.3571 11.2062 62.5892 11.3024 62.8313 11.3024H75.6105C75.8525 11.3024 76.0847 11.2062 76.2559 11.035C76.4271 10.8638 76.5232 10.6316 76.5232 10.3896C76.5232 10.1475 76.4271 9.9153 76.2559 9.74412C76.0847 9.57293 75.8525 9.47676 75.6105 9.47676H62.8313Z" fill="#007377"/>
</svg>
