<svg width="158" height="46" viewBox="0 0 158 46" fill="none" xmlns="http://www.w3.org/2000/svg">
<g clip-path="url(#clip0_7_130)">
<path d="M22.8027 5.85443H13.315V35.1714H9.46628V5.85443H0V2.37769H22.8027V5.85443Z" fill="white"/>
<path d="M31.7169 15.5491C31.0602 15.0464 30.1114 14.795 28.8759 14.795C27.2705 14.795 25.9304 15.5491 24.853 17.0575C23.7756 18.5659 23.2369 20.6252 23.2369 23.2328V35.1687H19.4793V11.7541H23.2369V16.5788H23.328C23.8613 14.9314 24.6788 13.6476 25.7803 12.725C26.8792 11.8023 28.1094 11.3423 29.4709 11.3423C30.4491 11.3423 31.1969 11.4493 31.7169 11.6632V15.5518V15.5491Z" fill="white"/>
<path d="M43.531 35.7195C40.0628 35.7195 37.2943 34.6257 35.2225 32.438C33.1534 30.2503 32.1162 27.3486 32.1162 23.7355C32.1162 19.8014 33.1936 16.7311 35.3485 14.5194C37.5033 12.3103 40.4139 11.2031 44.0804 11.2031C47.7468 11.2031 50.309 12.2782 52.2736 14.4285C54.2355 16.5787 55.2191 19.558 55.2191 23.3691C55.2191 27.1801 54.1604 30.0952 52.0458 32.3444C49.9285 34.5936 47.0929 35.7168 43.531 35.7168V35.7195ZM43.807 14.3616C41.3922 14.3616 39.4839 15.18 38.0769 16.8194C36.6698 18.4588 35.9676 20.7187 35.9676 23.5991C35.9676 26.4794 36.6778 28.5601 38.0983 30.1621C39.5188 31.7641 41.4217 32.5637 43.8043 32.5637C46.187 32.5637 48.1006 31.7774 49.4085 30.2075C50.7137 28.6377 51.3677 26.4045 51.3677 23.5081C51.3677 20.6117 50.7137 18.3251 49.4085 16.7392C48.1033 15.1532 46.2352 14.3616 43.8043 14.3616H43.807Z" fill="white"/>
<path d="M69.5766 35.7195C66.1085 35.7195 63.3399 34.6257 61.2682 32.438C59.1991 30.2503 58.1619 27.3486 58.1619 23.7355C58.1619 19.8014 59.2393 16.7311 61.3941 14.5194C63.549 12.3103 66.4596 11.2031 70.126 11.2031C73.7925 11.2031 76.3547 12.2782 78.3192 14.4285C80.2811 16.5787 81.2647 19.558 81.2647 23.3691C81.2647 27.1801 80.2061 30.0952 78.0914 32.3444C75.9741 34.5936 73.1385 35.7168 69.5766 35.7168V35.7195ZM69.8527 14.3616C67.4379 14.3616 65.5296 15.18 64.1225 16.8194C62.7154 18.4588 62.0132 20.7187 62.0132 23.5991C62.0132 26.4794 62.7235 28.5601 64.144 30.1621C65.5644 31.7641 67.4673 32.5637 69.85 32.5637C72.2326 32.5637 74.1463 31.7774 75.4542 30.2075C76.7594 28.6377 77.4134 26.4045 77.4134 23.5081C77.4134 20.6117 76.7594 18.3251 75.4542 16.7392C74.1489 15.1532 72.2809 14.3616 69.85 14.3616H69.8527Z" fill="white"/>
<path d="M102.851 35.1714H85.7996V2.37769H89.6509V31.6947H102.851V35.1714Z" fill="white"/>
<path d="M107.343 5.80884C106.67 5.80884 106.096 5.58151 105.625 5.12419C105.15 4.66686 104.914 4.08651 104.914 3.38581C104.914 2.68512 105.15 2.10209 105.625 1.63674C106.099 1.1714 106.67 0.938721 107.343 0.938721C108.015 0.938721 108.616 1.1714 109.095 1.63674C109.575 2.10209 109.816 2.68512 109.816 3.38581C109.816 4.08651 109.575 4.62942 109.095 5.10012C108.613 5.57349 108.029 5.80884 107.343 5.80884ZM109.176 35.1713H105.418V11.7541H109.176V35.1713Z" fill="white"/>
<path d="M126.409 3.79501C125.675 3.38315 124.844 3.17722 123.911 3.17722C121.285 3.17722 119.969 4.83269 119.969 8.13827V11.7514H125.468V14.9527H119.969V35.1686H116.233V14.9554H112.223V11.7541H116.233V7.95908C116.233 5.50396 116.943 3.56501 118.363 2.13955C119.784 0.714081 121.555 0.00268555 123.681 0.00268555C124.825 0.00268555 125.736 0.139081 126.406 0.414546V3.79769L126.409 3.79501Z" fill="white"/>
<path d="M146.392 24.3987H129.824C129.885 27.0063 130.587 29.0174 131.933 30.4349C133.278 31.8523 135.125 32.561 137.478 32.561C140.121 32.561 142.549 31.6918 144.765 29.9535V33.4757C142.702 34.9707 139.976 35.7168 136.583 35.7168C133.19 35.7168 130.663 34.6524 128.768 32.5263C126.873 30.4001 125.927 27.4074 125.927 23.5509C125.927 19.9084 126.961 16.9398 129.033 14.6451C131.102 12.3505 133.672 11.2031 136.744 11.2031C139.815 11.2031 142.19 12.1953 143.87 14.1771C145.551 16.1588 146.392 18.9108 146.392 22.433V24.3987ZM142.541 21.2188C142.525 19.0552 142.002 17.3703 140.97 16.1642C139.938 14.9607 138.507 14.3563 136.674 14.3563C134.841 14.3563 133.396 14.9901 132.161 16.2551C130.922 17.5201 130.159 19.1756 129.869 21.2161H142.541V21.2188Z" fill="white"/>
<path d="M150.753 29.6726H148.973V35.1685H148.252V29.6726H146.478V29.02H150.753V29.6726Z" fill="white"/>
<path d="M158 35.1712H157.282V31.0472C157.282 30.721 157.3 30.3225 157.341 29.8518H157.325C157.255 30.1299 157.193 30.3278 157.14 30.4482L155.033 35.1739H154.682L152.581 30.4829C152.522 30.3465 152.46 30.1353 152.396 29.8518H152.38C152.401 30.0978 152.415 30.499 152.415 31.0553V35.1712H151.718V29.0227H152.672L154.561 33.3098C154.706 33.6388 154.803 33.8848 154.845 34.0479H154.872C154.996 33.711 155.095 33.4596 155.17 33.2938L157.099 29.0227H158.003V35.1712H158Z" fill="white"/>
<g filter="url(#filter0_d_7_130)">
<path d="M29.9185 45.9999V43.2773H81.4925V45.9999H29.9185Z" fill="white"/>
<path d="M30.4185 45.4999V43.7773H80.9925V45.4999H30.4185Z" stroke="black"/>
</g>
</g>
<defs>
<filter id="filter0_d_7_130" x="25.9185" y="43.2773" width="59.574" height="10.7227" filterUnits="userSpaceOnUse" color-interpolation-filters="sRGB">
<feFlood flood-opacity="0" result="BackgroundImageFix"/>
<feColorMatrix in="SourceAlpha" type="matrix" values="0 0 0 0 0 0 0 0 0 0 0 0 0 0 0 0 0 0 127 0" result="hardAlpha"/>
<feOffset dy="4"/>
<feGaussianBlur stdDeviation="2"/>
<feComposite in2="hardAlpha" operator="out"/>
<feColorMatrix type="matrix" values="0 0 0 0 0 0 0 0 0 0 0 0 0 0 0 0 0 0 0.25 0"/>
<feBlend mode="normal" in2="BackgroundImageFix" result="effect1_dropShadow_7_130"/>
<feBlend mode="normal" in="SourceGraphic" in2="effect1_dropShadow_7_130" result="shape"/>
</filter>
<clipPath id="clip0_7_130">
<rect width="158" height="46" fill="white"/>
</clipPath>
</defs>
</svg>
