<svg width="96" height="24" viewBox="0 0 96 24" fill="none" xmlns="http://www.w3.org/2000/svg">
<path d="M1.76473 15.6493C1.76473 18.4442 5.40333 20.7106 9.89269 20.7106C14.3821 20.7106 18.0207 18.4439 18.0207 15.6493C18.0207 12.8548 14.3817 10.5884 9.89269 10.5884C5.40364 10.5884 1.76473 12.8545 1.76473 15.6493Z" fill="white"/>
<path d="M10.0819 20.2983C6.1089 20.6901 2.67932 18.8948 2.42084 16.286C2.16299 13.6778 5.17579 11.2455 9.14819 10.8526C13.1215 10.4595 16.5514 12.2555 16.8093 14.863C17.0668 17.4721 14.0553 19.9051 10.0819 20.2983ZM18.029 11.639C17.691 11.5381 17.4593 11.4689 17.6361 11.025C18.0194 10.0606 18.059 9.22897 17.6435 8.6354C16.8645 7.52264 14.7328 7.58231 12.2893 8.60573C12.2893 8.60413 11.5221 8.94144 11.7181 8.33288C12.094 7.12438 12.0372 6.11245 11.4522 5.52814C10.1269 4.20156 6.60162 5.57824 3.57828 8.6003C1.31445 10.8645 0 13.2639 0 15.3388C0 19.3077 5.08963 21.7206 10.0688 21.7206C16.5958 21.7206 20.9377 17.9282 20.9377 14.9176C20.9377 13.0983 19.4056 12.0659 18.029 11.639Z" fill="#E6162D"/>
<path d="M22.3632 4.37612C20.7871 2.62862 18.462 1.96262 16.3159 2.41864H16.3153C16.1973 2.44385 16.0854 2.49206 15.986 2.5605C15.8866 2.62895 15.8017 2.71631 15.7361 2.81758C15.6705 2.91885 15.6254 3.03205 15.6035 3.15073C15.5817 3.2694 15.5834 3.39122 15.6086 3.50923C15.6338 3.62724 15.682 3.73914 15.7505 3.83852C15.8189 3.9379 15.9063 4.02282 16.0075 4.08845C16.1088 4.15407 16.222 4.1991 16.3407 4.22097C16.4594 4.24285 16.5812 4.24113 16.6992 4.21592C18.2259 3.8917 19.8779 4.36655 20.9993 5.60728C21.5307 6.19616 21.8977 6.91456 22.0633 7.69025C22.229 8.46594 22.1874 9.27157 21.943 10.0261L21.9433 10.0264C21.906 10.1413 21.8917 10.2624 21.9013 10.3827C21.9109 10.5031 21.9441 10.6204 21.9991 10.7278C22.0541 10.8353 22.1298 10.9309 22.2218 11.0091C22.3138 11.0873 22.4203 11.1466 22.5352 11.1836C22.7669 11.2585 23.0189 11.2384 23.2358 11.1277C23.4527 11.017 23.6168 10.8248 23.692 10.5932L23.6924 10.5894C24.3651 8.50169 23.94 6.1217 22.3632 4.37612Z" fill="#FF9933"/>
<path d="M19.9424 6.56049C19.1752 5.7094 18.0427 5.38613 16.9969 5.60856C16.8929 5.6276 16.7937 5.66732 16.7053 5.72537C16.6168 5.78342 16.5409 5.85863 16.4821 5.94654C16.4233 6.03445 16.3826 6.13326 16.3627 6.23715C16.3427 6.34103 16.3438 6.44786 16.3658 6.55132C16.3879 6.65478 16.4305 6.75276 16.4911 6.83946C16.5517 6.92617 16.6291 6.99983 16.7187 7.05609C16.8082 7.11235 16.9082 7.15007 17.0126 7.167C17.117 7.18394 17.2238 7.17975 17.3266 7.15469V7.15533C17.5864 7.09977 17.8562 7.11345 18.1091 7.19499C18.362 7.27654 18.589 7.42309 18.7674 7.61997C18.9455 7.81734 19.0684 8.05818 19.1237 8.3182C19.179 8.57823 19.1647 8.84824 19.0824 9.101H19.083C19.0185 9.30061 19.0358 9.51768 19.1313 9.7045C19.2267 9.89132 19.3924 10.0326 19.592 10.0973C19.7917 10.1617 20.0088 10.1441 20.1956 10.0485C20.3823 9.95288 20.5235 9.787 20.588 9.58734C20.9167 8.5703 20.7112 7.41126 19.9424 6.56049Z" fill="#FF9933"/>
<path d="M10.3012 15.5737C10.162 15.8118 9.85504 15.926 9.61442 15.8268C9.37764 15.7291 9.30328 15.4636 9.43795 15.23C9.57645 14.9977 9.87195 14.8844 10.1078 14.9779C10.3478 15.0657 10.4339 15.3347 10.3012 15.5737ZM9.03522 17.199C8.651 17.812 7.82799 18.0807 7.20794 17.7976C6.59715 17.5197 6.41685 16.8071 6.80171 16.2094C7.18114 15.6142 7.97638 15.3487 8.59165 15.6066C9.21393 15.8721 9.41306 16.5796 9.03522 17.199ZM10.4792 12.8596C8.58845 12.3675 6.45131 13.3099 5.63022 14.976C4.79381 16.675 5.60278 18.561 7.51238 19.1778C9.49124 19.8157 11.8234 18.8383 12.6342 17.004C13.4343 15.2112 12.4358 13.3654 10.4792 12.8596Z" fill="black"/>
<path d="M48.041 19L44.297 6.04H45.674L48.707 16.741L51.722 6.049L53.108 6.04L56.141 16.741L59.156 6.04H60.542L56.807 19H55.475L52.415 8.371L49.373 19H48.041ZM65.1406 19.27C64.1926 19.27 63.3706 19.06 62.6746 18.64C61.9846 18.22 61.4476 17.629 61.0636 16.867C60.6796 16.105 60.4876 15.211 60.4876 14.185C60.4876 13.123 60.6766 12.205 61.0546 11.431C61.4326 10.657 61.9636 10.06 62.6476 9.64C63.3376 9.22 64.1506 9.01 65.0866 9.01C66.0466 9.01 66.8656 9.232 67.5436 9.676C68.2216 10.114 68.7346 10.744 69.0826 11.566C69.4306 12.388 69.5896 13.369 69.5596 14.509H68.2096V14.041C68.1856 12.781 67.9126 11.83 67.3906 11.188C66.8746 10.546 66.1186 10.225 65.1226 10.225C64.0786 10.225 63.2776 10.564 62.7196 11.242C62.1676 11.92 61.8916 12.886 61.8916 14.14C61.8916 15.364 62.1676 16.315 62.7196 16.993C63.2776 17.665 64.0666 18.001 65.0866 18.001C65.7826 18.001 66.3886 17.842 66.9046 17.524C67.4266 17.2 67.8376 16.735 68.1376 16.129L69.3706 16.606C68.9866 17.452 68.4196 18.109 67.6696 18.577C66.9256 19.039 66.0826 19.27 65.1406 19.27ZM61.4236 14.509V13.402H68.8486V14.509H61.4236ZM71.7369 7.435V5.95H73.0599V7.435H71.7369ZM71.7369 19V9.28H73.0599V19H71.7369ZM80.123 19.27C79.229 19.27 78.473 19.045 77.855 18.595C77.237 18.139 76.769 17.524 76.451 16.75C76.133 15.97 75.974 15.097 75.974 14.131C75.974 13.147 76.133 12.271 76.451 11.503C76.775 10.729 77.249 10.12 77.873 9.676C78.497 9.232 79.265 9.01 80.177 9.01C81.065 9.01 81.827 9.235 82.463 9.685C83.099 10.135 83.585 10.747 83.921 11.521C84.263 12.295 84.434 13.165 84.434 14.131C84.434 15.103 84.263 15.976 83.921 16.75C83.579 17.524 83.087 18.139 82.445 18.595C81.803 19.045 81.029 19.27 80.123 19.27ZM75.749 19V6.04H77.081V11.683H76.937V19H75.749ZM79.988 18.037C80.666 18.037 81.23 17.866 81.68 17.524C82.13 17.182 82.466 16.717 82.688 16.129C82.916 15.535 83.03 14.869 83.03 14.131C83.03 13.399 82.919 12.739 82.697 12.151C82.475 11.563 82.136 11.098 81.68 10.756C81.23 10.414 80.657 10.243 79.961 10.243C79.283 10.243 78.719 10.408 78.269 10.738C77.825 11.068 77.492 11.527 77.27 12.115C77.048 12.697 76.937 13.369 76.937 14.131C76.937 14.881 77.048 15.553 77.27 16.147C77.492 16.735 77.828 17.197 78.278 17.533C78.728 17.869 79.298 18.037 79.988 18.037ZM90.4694 19.27C89.5034 19.27 88.6784 19.051 87.9944 18.613C87.3104 18.175 86.7854 17.569 86.4194 16.795C86.0534 16.021 85.8704 15.133 85.8704 14.131C85.8704 13.111 86.0564 12.217 86.4284 11.449C86.8004 10.681 87.3284 10.084 88.0124 9.658C88.7024 9.226 89.5214 9.01 90.4694 9.01C91.4414 9.01 92.2694 9.229 92.9534 9.667C93.6434 10.099 94.1684 10.702 94.5284 11.476C94.8944 12.244 95.0774 13.129 95.0774 14.131C95.0774 15.151 94.8944 16.048 94.5284 16.822C94.1624 17.59 93.6344 18.19 92.9444 18.622C92.2544 19.054 91.4294 19.27 90.4694 19.27ZM90.4694 18.001C91.5494 18.001 92.3534 17.644 92.8814 16.93C93.4094 16.21 93.6734 15.277 93.6734 14.131C93.6734 12.955 93.4064 12.019 92.8724 11.323C92.3444 10.627 91.5434 10.279 90.4694 10.279C89.7434 10.279 89.1434 10.444 88.6694 10.774C88.2014 11.098 87.8504 11.551 87.6164 12.133C87.3884 12.709 87.2744 13.375 87.2744 14.131C87.2744 15.301 87.5444 16.24 88.0844 16.948C88.6244 17.65 89.4194 18.001 90.4694 18.001Z" fill="black"/>
</svg>
