<svg width="50" height="34" viewBox="0 0 50 34" fill="none" xmlns="http://www.w3.org/2000/svg">
<path d="M17.4552 23.2C18.3549 23.2 19.1467 22.708 19.5546 21.964L23.8494 14.176C23.9505 13.9941 24.0024 13.789 23.9999 13.5809C23.9974 13.3728 23.9406 13.1689 23.8352 12.9895C23.7298 12.8101 23.5793 12.6613 23.3988 12.5579C23.2182 12.4545 23.0138 12.4001 22.8057 12.4H5.05061L3.92292 10H0V12.4H2.39934L6.71815 21.508L5.0986 24.436C4.22284 26.044 5.37452 28 7.19802 28H21.5941V25.6H7.19802L8.51766 23.2H17.4552ZM6.1903 14.8H20.7663L17.4552 20.8H9.03351L6.1903 14.8ZM7.19802 29.2C5.87838 29.2 4.81068 30.28 4.81068 31.6C4.81068 32.92 5.87838 34 7.19802 34C8.51765 34 9.59736 32.92 9.59736 31.6C9.59736 30.28 8.51765 29.2 7.19802 29.2ZM19.1947 29.2C17.8751 29.2 16.8074 30.28 16.8074 31.6C16.8074 32.92 17.8751 34 19.1947 34C20.5144 34 21.5941 32.92 21.5941 31.6C21.5941 30.28 20.5144 29.2 19.1947 29.2Z" fill="white"/>
<circle cx="38" cy="12" r="12" fill="#F6DBA0"/>
<path d="M38.136 17.74C37.352 17.74 36.6587 17.5693 36.056 17.228C35.4533 16.8813 34.9787 16.4067 34.632 15.804C34.2907 15.2013 34.12 14.508 34.12 13.724V9.756C34.12 8.972 34.2907 8.27867 34.632 7.676C34.9787 7.07333 35.4533 6.60133 36.056 6.26C36.6587 5.91333 37.352 5.74 38.136 5.74C38.92 5.74 39.6133 5.91333 40.216 6.26C40.8187 6.60133 41.2907 7.07333 41.632 7.676C41.9787 8.27867 42.152 8.972 42.152 9.756V13.724C42.152 14.508 41.9787 15.2013 41.632 15.804C41.2907 16.4067 40.8187 16.8813 40.216 17.228C39.6133 17.5693 38.92 17.74 38.136 17.74ZM38.136 16.14C38.5627 16.14 38.9493 16.0387 39.296 15.836C39.648 15.628 39.928 15.3507 40.136 15.004C40.344 14.652 40.448 14.26 40.448 13.828V9.636C40.448 9.20933 40.344 8.82267 40.136 8.476C39.928 8.124 39.648 7.84667 39.296 7.644C38.9493 7.436 38.5627 7.332 38.136 7.332C37.7093 7.332 37.32 7.436 36.968 7.644C36.6213 7.84667 36.344 8.124 36.136 8.476C35.928 8.82267 35.824 9.20933 35.824 9.636V13.828C35.824 14.26 35.928 14.652 36.136 15.004C36.344 15.3507 36.6213 15.628 36.968 15.836C37.32 16.0387 37.7093 16.14 38.136 16.14Z" fill="#007377"/>
</svg>
