<svg width="84" height="84" viewBox="0 0 84 84" fill="none" xmlns="http://www.w3.org/2000/svg">
<path d="M32.3624 46.3624C31.2494 45.3083 29.8266 44.6404 28.3045 44.4576C26.7824 44.2749 25.242 44.5869 23.911 45.3476L21.1288 42.7754C20.3584 42.0373 19.3814 41.5515 18.3279 41.3827C17.2744 41.2139 16.1945 41.3701 15.2321 41.8305L9.73775 36.5811C8.65348 35.5599 7.22021 34.9912 5.73074 34.9912C4.24127 34.9912 2.808 35.5599 1.72374 36.5811C0.831268 37.4385 0.255499 38.5729 0.090269 39.7995C-0.0749613 41.026 0.180089 42.2723 0.813853 43.3353L11.1201 59.0833C11.2791 59.3249 11.4955 59.5233 11.75 59.6608L22.7561 65.785V68.2522C22.2921 68.2522 21.847 68.4366 21.5188 68.7647C21.1907 69.0929 21.0063 69.5379 21.0063 70.002V82.2505C21.0063 82.7145 21.1907 83.1596 21.5188 83.4878C21.847 83.8159 22.2921 84.0003 22.7561 84.0003H38.5042C38.9682 84.0003 39.4133 83.8159 39.7415 83.4878C40.0696 83.1596 40.254 82.7145 40.254 82.2505V55.8113C40.2525 55.0745 40.0959 54.3463 39.7944 53.674C39.493 53.0017 39.0533 52.4004 38.5042 51.9092L32.3624 46.3624ZM13.7797 56.8611L3.77099 41.533C3.54907 41.1529 3.46283 40.7087 3.52641 40.2732C3.58999 39.8376 3.79962 39.4366 4.12094 39.1358C4.55035 38.7272 5.12045 38.4992 5.71325 38.4992C6.30604 38.4992 6.87614 38.7272 7.30555 39.1358L12.7299 44.2977C12.2748 45.2479 12.1346 46.3184 12.3297 47.3537C12.5248 48.389 13.045 49.3351 13.8147 50.0545L18.9066 54.8139L21.3038 52.2592L16.2294 47.5173C16.0779 47.3764 15.957 47.2059 15.8743 47.0162C15.7916 46.8265 15.749 46.6218 15.749 46.4149C15.749 46.208 15.7916 46.0033 15.8743 45.8137C15.957 45.624 16.0779 45.4534 16.2294 45.3126C16.5694 44.9965 17.0164 44.8208 17.4805 44.8208C17.9447 44.8208 18.3917 44.9965 18.7316 45.3126L22.5986 48.8121C22.9232 49.1172 23.3518 49.2871 23.7973 49.2871C24.2427 49.2871 24.6713 49.1172 24.9959 48.8121C25.6668 48.1694 26.5601 47.8106 27.4893 47.8106C28.4185 47.8106 29.3117 48.1694 29.9827 48.8121L36.1945 54.3939C36.3757 54.5575 36.5207 54.7572 36.6202 54.9802C36.7196 55.2033 36.7713 55.4446 36.7719 55.6888V68.2522H26.2557V64.7526C26.2534 64.4408 26.1679 64.1353 26.0079 63.8677C25.8479 63.6 25.6194 63.38 25.3458 63.2303L13.7797 56.8611ZM36.7544 80.5007H24.5059V71.7518H36.7544V80.5007Z" fill="#F6DBA0"/>
<path d="M82.2482 36.6158C81.1639 35.5946 79.7306 35.0259 78.2412 35.0259C76.7517 35.0259 75.3184 35.5946 74.2342 36.6158L68.7223 41.8652C67.7637 41.4064 66.6884 41.2495 65.6386 41.4151C64.5888 41.5806 63.614 42.061 62.8431 42.7925L60.0434 45.3822C58.7243 44.6245 57.1971 44.3092 55.6857 44.4823C54.1743 44.6555 52.7581 45.3081 51.6445 46.3446L45.5027 51.9089C44.9536 52.4001 44.514 53.0014 44.2125 53.6737C43.911 54.3459 43.7544 55.0741 43.7529 55.8109V82.2501C43.7529 82.7142 43.9373 83.1593 44.2654 83.4874C44.5936 83.8156 45.0387 83.9999 45.5027 83.9999H61.2508C61.7148 83.9999 62.1599 83.8156 62.4881 83.4874C62.8162 83.1593 63.0006 82.7142 63.0006 82.2501V70.0017C63.0006 69.5376 62.8162 69.0925 62.4881 68.7644C62.1599 68.4362 61.7148 68.2519 61.2508 68.2519V65.7847L72.2744 59.7304C72.5289 59.593 72.7453 59.3946 72.9043 59.153L83.2455 43.2825C83.8495 42.22 84.0795 40.9855 83.8987 39.7768C83.7178 38.5681 83.1367 37.455 82.2482 36.6158ZM59.501 80.5004H47.2525V71.7514H59.501V80.5004ZM80.2884 41.4452L70.2272 56.8783L58.6786 63.2125C58.3992 63.3613 58.1654 63.5831 58.0021 63.8542C57.8388 64.1254 57.7521 64.4358 57.7512 64.7523V68.2519H47.2525V55.8109C47.2531 55.5668 47.3048 55.3254 47.4042 55.1024C47.5037 54.8794 47.6487 54.6797 47.8299 54.5161L54.0767 48.8993C54.743 48.2679 55.626 47.9161 56.5439 47.9161C57.4618 47.9161 58.3448 48.2679 59.0111 48.8993C59.3356 49.2044 59.7642 49.3743 60.2097 49.3743C60.6551 49.3743 61.0837 49.2044 61.4083 48.8993L65.2928 45.2947C65.4554 45.1307 65.649 45.0005 65.8622 44.9117C66.0754 44.8229 66.3041 44.7771 66.5351 44.7771C66.7661 44.7771 66.9948 44.8229 67.208 44.9117C67.4213 45.0005 67.6148 45.1307 67.7775 45.2947C67.9263 45.4354 68.0448 45.6049 68.1258 45.793C68.2068 45.981 68.2486 46.1836 68.2486 46.3883C68.2486 46.5931 68.2068 46.7957 68.1258 46.9837C68.0448 47.1718 67.9263 47.3413 67.7775 47.482L62.6856 52.2414L65.0828 54.796L70.1922 50.0191C70.9552 49.2989 71.4697 48.355 71.6615 47.3235C71.8533 46.292 71.7126 45.2262 71.2595 44.2799L76.6839 39.0305C77.1124 38.6269 77.6788 38.4022 78.2674 38.4022C78.856 38.4022 79.4225 38.6269 79.851 39.0305C80.1935 39.3192 80.4246 39.7183 80.5044 40.1591C80.5843 40.5999 80.5079 41.0547 80.2884 41.4452Z" fill="#F6DBA0"/>
<path d="M66.0629 24.5074H69.9999V21.0078H67.5677C68.3984 18.1932 68.4633 15.2079 67.7559 12.3598C67.0485 9.51164 65.5943 6.90371 63.5432 4.80483C62.061 3.28525 60.2894 2.07809 58.3329 1.25462C56.3765 0.431161 54.2748 0.00809831 52.1521 0.0104205C48.4476 -0.000821261 44.8564 1.28705 42.0034 3.64997C38.9235 1.10625 35.0008 -0.188435 31.0119 0.0221922C27.0229 0.23282 23.2584 1.93341 20.4635 4.78733C18.4094 6.88789 16.9533 9.49882 16.2458 12.3504C15.5383 15.2019 15.605 18.1907 16.439 21.0078H12.257V24.5074H17.9438C18.6344 25.7318 19.4815 26.8611 20.4635 27.867L40.761 48.4794C40.924 48.6461 41.1186 48.7785 41.3334 48.8689C41.5483 48.9593 41.779 49.0059 42.0121 49.0059C42.2452 49.0059 42.4759 48.9593 42.6908 48.8689C42.9056 48.7785 43.1002 48.6461 43.2632 48.4794L63.5607 27.867C64.5366 26.8601 65.3777 25.7308 66.0629 24.5074ZM22.9657 7.25452C24.1244 6.06885 25.5084 5.12672 27.0364 4.4835C28.5644 3.84027 30.2055 3.50893 31.8634 3.50893C33.5212 3.50893 35.1623 3.84027 36.6903 4.4835C38.2183 5.12672 39.6023 6.06885 40.761 7.25452C40.924 7.42118 41.1186 7.5536 41.3334 7.64401C41.5483 7.73442 41.779 7.78099 42.0121 7.78099C42.2452 7.78099 42.4759 7.73442 42.6908 7.64401C42.9056 7.5536 43.1002 7.42118 43.2632 7.25452C44.4198 6.06851 45.8022 5.12614 47.3288 4.48302C48.8555 3.8399 50.4955 3.50905 52.1521 3.50999C53.8087 3.50905 55.4487 3.8399 56.9754 4.48302C58.502 5.12614 59.8844 6.06851 61.041 7.25452C62.7806 9.03504 63.9724 11.2775 64.4749 13.7155C64.9774 16.1535 64.7694 18.6846 63.8756 21.0078H52.5021C52.2718 21.0065 52.0435 21.0506 51.8303 21.1377C51.6171 21.2248 51.4232 21.3531 51.2597 21.5153L47.2527 25.5398L36.2466 14.5161C35.9187 14.1902 35.4752 14.0073 35.013 14.0073C34.5507 14.0073 34.1072 14.1902 33.7794 14.5161L27.2877 21.0078H20.1311C19.2373 18.6846 19.0293 16.1535 19.5318 13.7155C20.0343 11.2775 21.2262 9.03504 22.9657 7.25452ZM42.0034 44.7524L22.9657 25.4173C22.6858 25.1198 22.4058 24.8223 22.1608 24.5074H28.0051C28.2354 24.5087 28.4637 24.4646 28.6769 24.3775C28.89 24.2904 29.0839 24.1621 29.2474 23.9999L35.0042 18.2257L46.0104 29.2318C46.3382 29.5577 46.7817 29.7406 47.244 29.7406C47.7062 29.7406 48.1497 29.5577 48.4776 29.2318L53.2195 24.5074H61.8459C61.6009 24.8223 61.321 25.1198 61.041 25.4173L42.0034 44.7524Z" fill="#F6DBA0"/>
<path d="M76.9998 21.0083H73.5002V24.5079H76.9998V21.0083Z" fill="#F6DBA0"/>
<path d="M8.75799 21.0083H5.25842V24.5079H8.75799V21.0083Z" fill="#F6DBA0"/>
</svg>
