<svg width="84" height="84" viewBox="0 0 84 84" fill="none" xmlns="http://www.w3.org/2000/svg">
<mask id="path-1-outside-1_2_278" maskUnits="userSpaceOnUse" x="0.418091" y="0" width="84" height="84" fill="black">
<rect fill="white" x="0.418091" width="84" height="84"/>
<path d="M92.9731 25.6198L101.918 31.0018C102.325 31.2436 102.846 31.1163 103.088 30.7092C103.33 30.302 103.203 29.7804 102.796 29.5386L93.851 24.1566L94.0037 23.9149C94.2454 23.5077 94.1182 22.9861 93.7111 22.7443L88.7235 19.7289C88.6217 19.6653 88.5199 19.6271 88.4054 19.6144C88.3672 19.6016 88.3163 19.6144 88.2782 19.6144C88.2145 19.6144 88.1382 19.6016 88.0746 19.6271C87.9855 19.6525 87.9092 19.6907 87.8328 19.7416C87.8201 19.7543 87.7947 19.7543 87.782 19.767C87.6929 19.8307 87.6165 19.9197 87.5529 20.0215L86.2679 22.1463L83.087 20.2251C79.5881 12.2221 71.6741 4.30809 62.1697 5.21145C61.8262 4.66434 61.4317 4.12996 60.9483 3.64647C59.2433 1.94153 56.9785 1 54.5865 1C52.1945 1 49.9298 1.94153 48.2248 3.64647L46.5072 5.37686L44.7768 3.64647C43.0718 1.94153 40.8071 1 38.3896 1C35.9976 1 33.7329 1.94153 32.0279 3.64647C28.529 7.14541 28.529 12.8582 32.0279 16.3826L45.8965 30.2257C46.0619 30.3911 46.2782 30.4802 46.5072 30.4802C46.7235 30.4802 46.9398 30.3911 47.1179 30.2257L56.2024 21.1412C57.3475 21.6628 58.5563 22.2608 59.7523 22.9988C61.6099 24.1439 62.4751 24.9837 63.3021 25.8107C64.2055 26.7013 65.0579 27.5411 66.9283 28.5717C69.7401 30.1239 72.921 31.0018 76.3818 31.2309L79.6262 33.1903L78.3412 35.3151C78.2775 35.4169 78.2394 35.5314 78.2267 35.6332C78.1758 35.964 78.3285 36.3075 78.6338 36.4856L83.6214 39.5011C83.7613 39.5774 83.914 39.6283 84.0667 39.6283C84.1303 39.6283 84.2067 39.6156 84.2703 39.6029C84.4866 39.552 84.6774 39.412 84.7919 39.2084L84.9319 38.9794L101.943 49.2345C102.083 49.3236 102.236 49.3617 102.388 49.3617C102.681 49.3617 102.961 49.209 103.126 48.9419C103.368 48.5347 103.241 48.013 102.834 47.7713L85.8225 37.5162L92.9731 25.6198ZM46.469 28.4062L33.2112 15.1739C30.3739 12.3238 30.3739 7.70524 33.2112 4.86792C34.5981 3.48107 36.4302 2.71766 38.3642 2.71766C40.3109 2.71766 42.1558 3.48107 43.5299 4.86792L45.8583 7.19631C46.1764 7.51439 46.7489 7.51439 47.067 7.19631L49.3954 4.86792C50.7822 3.48107 52.6144 2.71766 54.5484 2.71766C56.4823 2.71766 58.3145 3.48107 59.7014 4.86792C60.2103 5.37686 60.6302 5.93669 60.9483 6.52197C62.4114 9.19388 62.0043 12.5147 59.9813 14.8431C56.5205 13.698 53.2379 12.9473 51.9401 13.4562C50.9477 13.8507 50.3878 14.5123 50.3242 14.5886C49.6117 15.4665 49.5226 16.4335 49.5099 16.6244C49.4208 18.2402 51.2657 19.0291 54.0522 20.2251C54.1794 20.276 54.3321 20.3523 54.472 20.4032L46.469 28.4062ZM77.1961 29.7677C77.0561 29.6531 76.9034 29.5768 76.7126 29.5641C73.3918 29.386 70.3636 28.5462 67.7044 27.083C66.0376 26.1669 65.3124 25.4417 64.4599 24.6019C63.6075 23.7495 62.6277 22.7952 60.592 21.5483C58.5181 20.276 56.4187 19.3726 54.7265 18.6474C53.4033 18.0748 51.1894 17.1333 51.2148 16.7134C51.2148 16.7134 51.253 16.1536 51.6347 15.6828C51.6347 15.6828 51.9782 15.2757 52.5508 15.0594C53.3015 14.7667 57.1567 15.4411 63.353 17.8967C63.7983 18.0748 64.2945 17.8585 64.4599 17.4132C64.6381 16.9679 64.4217 16.4717 63.9764 16.3063C63.2385 16.0136 62.4751 15.7337 61.6989 15.4538C63.5438 12.9982 64.0273 9.75372 62.9586 6.89095C71.4324 6.50924 78.4939 13.8634 81.5984 21.2048C81.6238 21.2557 81.6747 21.2811 81.7001 21.332C81.7256 21.3702 81.7511 21.3956 81.7765 21.4338C81.8401 21.5102 81.9037 21.5738 81.9928 21.6247L85.339 23.6477L80.4405 31.7652L77.1961 29.7677ZM83.7359 37.6053L80.2115 35.4805L88.5581 21.6374L92.0825 23.7622L91.9552 23.9658C91.9425 23.9785 91.9425 23.9785 91.9298 23.9912L87.7438 30.9382L83.7359 37.6053Z"/>
<path d="M74.5877 42.5928C74.4096 42.4147 74.1679 42.3384 73.9261 42.3511H51.6092C51.5711 42.3511 51.5456 42.3511 51.5074 42.3511H12.9682C12.7265 42.3384 12.4974 42.4147 12.3066 42.5928L1.6698 53.2296C1.42806 53.4714 1.35172 53.8403 1.47895 54.1584C1.60619 54.4765 1.92427 54.6928 2.2678 54.6928H12.0394V84.1348C12.0394 84.6056 12.4211 84.9873 12.8919 84.9873H51.5074C51.5202 84.9873 51.5329 85 51.5456 85C51.5583 85 51.5711 85 51.5838 84.9873H73.977C74.4478 84.9873 74.8295 84.6056 74.8295 84.1348V54.6928H84.6138C84.9573 54.6928 85.2754 54.4892 85.4026 54.1584C85.5299 53.8403 85.4663 53.4714 85.2118 53.2296L74.5877 42.5928ZM12.9173 52.9751H4.35444L13.2608 44.0687H49.4844L40.578 52.9751H12.93C12.9173 52.9751 12.9173 52.9751 12.9173 52.9751ZM50.7059 83.2823H13.7698V54.6928H40.9216C41.1506 54.6928 41.3669 54.6037 41.5323 54.4383L50.7059 45.2647V83.2823ZM52.4235 83.2823V45.2647L61.5971 54.4383C61.7625 54.6037 61.9788 54.6928 62.2078 54.6928H73.1373V83.2823H52.4235ZM62.5641 52.9751L53.6577 44.0687H73.6589L82.5653 52.9751H62.5641Z"/>
</mask>
<path d="M92.9731 25.6198L101.918 31.0018C102.325 31.2436 102.846 31.1163 103.088 30.7092C103.33 30.302 103.203 29.7804 102.796 29.5386L93.851 24.1566L94.0037 23.9149C94.2454 23.5077 94.1182 22.9861 93.7111 22.7443L88.7235 19.7289C88.6217 19.6653 88.5199 19.6271 88.4054 19.6144C88.3672 19.6016 88.3163 19.6144 88.2782 19.6144C88.2145 19.6144 88.1382 19.6016 88.0746 19.6271C87.9855 19.6525 87.9092 19.6907 87.8328 19.7416C87.8201 19.7543 87.7947 19.7543 87.782 19.767C87.6929 19.8307 87.6165 19.9197 87.5529 20.0215L86.2679 22.1463L83.087 20.2251C79.5881 12.2221 71.6741 4.30809 62.1697 5.21145C61.8262 4.66434 61.4317 4.12996 60.9483 3.64647C59.2433 1.94153 56.9785 1 54.5865 1C52.1945 1 49.9298 1.94153 48.2248 3.64647L46.5072 5.37686L44.7768 3.64647C43.0718 1.94153 40.8071 1 38.3896 1C35.9976 1 33.7329 1.94153 32.0279 3.64647C28.529 7.14541 28.529 12.8582 32.0279 16.3826L45.8965 30.2257C46.0619 30.3911 46.2782 30.4802 46.5072 30.4802C46.7235 30.4802 46.9398 30.3911 47.1179 30.2257L56.2024 21.1412C57.3475 21.6628 58.5563 22.2608 59.7523 22.9988C61.6099 24.1439 62.4751 24.9837 63.3021 25.8107C64.2055 26.7013 65.0579 27.5411 66.9283 28.5717C69.7401 30.1239 72.921 31.0018 76.3818 31.2309L79.6262 33.1903L78.3412 35.3151C78.2775 35.4169 78.2394 35.5314 78.2267 35.6332C78.1758 35.964 78.3285 36.3075 78.6338 36.4856L83.6214 39.5011C83.7613 39.5774 83.914 39.6283 84.0667 39.6283C84.1303 39.6283 84.2067 39.6156 84.2703 39.6029C84.4866 39.552 84.6774 39.412 84.7919 39.2084L84.9319 38.9794L101.943 49.2345C102.083 49.3236 102.236 49.3617 102.388 49.3617C102.681 49.3617 102.961 49.209 103.126 48.9419C103.368 48.5347 103.241 48.013 102.834 47.7713L85.8225 37.5162L92.9731 25.6198ZM46.469 28.4062L33.2112 15.1739C30.3739 12.3238 30.3739 7.70524 33.2112 4.86792C34.5981 3.48107 36.4302 2.71766 38.3642 2.71766C40.3109 2.71766 42.1558 3.48107 43.5299 4.86792L45.8583 7.19631C46.1764 7.51439 46.7489 7.51439 47.067 7.19631L49.3954 4.86792C50.7822 3.48107 52.6144 2.71766 54.5484 2.71766C56.4823 2.71766 58.3145 3.48107 59.7014 4.86792C60.2103 5.37686 60.6302 5.93669 60.9483 6.52197C62.4114 9.19388 62.0043 12.5147 59.9813 14.8431C56.5205 13.698 53.2379 12.9473 51.9401 13.4562C50.9477 13.8507 50.3878 14.5123 50.3242 14.5886C49.6117 15.4665 49.5226 16.4335 49.5099 16.6244C49.4208 18.2402 51.2657 19.0291 54.0522 20.2251C54.1794 20.276 54.3321 20.3523 54.472 20.4032L46.469 28.4062ZM77.1961 29.7677C77.0561 29.6531 76.9034 29.5768 76.7126 29.5641C73.3918 29.386 70.3636 28.5462 67.7044 27.083C66.0376 26.1669 65.3124 25.4417 64.4599 24.6019C63.6075 23.7495 62.6277 22.7952 60.592 21.5483C58.5181 20.276 56.4187 19.3726 54.7265 18.6474C53.4033 18.0748 51.1894 17.1333 51.2148 16.7134C51.2148 16.7134 51.253 16.1536 51.6347 15.6828C51.6347 15.6828 51.9782 15.2757 52.5508 15.0594C53.3015 14.7667 57.1567 15.4411 63.353 17.8967C63.7983 18.0748 64.2945 17.8585 64.4599 17.4132C64.6381 16.9679 64.4217 16.4717 63.9764 16.3063C63.2385 16.0136 62.4751 15.7337 61.6989 15.4538C63.5438 12.9982 64.0273 9.75372 62.9586 6.89095C71.4324 6.50924 78.4939 13.8634 81.5984 21.2048C81.6238 21.2557 81.6747 21.2811 81.7001 21.332C81.7256 21.3702 81.7511 21.3956 81.7765 21.4338C81.8401 21.5102 81.9037 21.5738 81.9928 21.6247L85.339 23.6477L80.4405 31.7652L77.1961 29.7677ZM83.7359 37.6053L80.2115 35.4805L88.5581 21.6374L92.0825 23.7622L91.9552 23.9658C91.9425 23.9785 91.9425 23.9785 91.9298 23.9912L87.7438 30.9382L83.7359 37.6053Z" fill="#F6DBA0"/>
<path d="M74.5877 42.5928C74.4096 42.4147 74.1679 42.3384 73.9261 42.3511H51.6092C51.5711 42.3511 51.5456 42.3511 51.5074 42.3511H12.9682C12.7265 42.3384 12.4974 42.4147 12.3066 42.5928L1.6698 53.2296C1.42806 53.4714 1.35172 53.8403 1.47895 54.1584C1.60619 54.4765 1.92427 54.6928 2.2678 54.6928H12.0394V84.1348C12.0394 84.6056 12.4211 84.9873 12.8919 84.9873H51.5074C51.5202 84.9873 51.5329 85 51.5456 85C51.5583 85 51.5711 85 51.5838 84.9873H73.977C74.4478 84.9873 74.8295 84.6056 74.8295 84.1348V54.6928H84.6138C84.9573 54.6928 85.2754 54.4892 85.4026 54.1584C85.5299 53.8403 85.4663 53.4714 85.2118 53.2296L74.5877 42.5928ZM12.9173 52.9751H4.35444L13.2608 44.0687H49.4844L40.578 52.9751H12.93C12.9173 52.9751 12.9173 52.9751 12.9173 52.9751ZM50.7059 83.2823H13.7698V54.6928H40.9216C41.1506 54.6928 41.3669 54.6037 41.5323 54.4383L50.7059 45.2647V83.2823ZM52.4235 83.2823V45.2647L61.5971 54.4383C61.7625 54.6037 61.9788 54.6928 62.2078 54.6928H73.1373V83.2823H52.4235ZM62.5641 52.9751L53.6577 44.0687H73.6589L82.5653 52.9751H62.5641Z" fill="#F6DBA0"/>
<path d="M92.9731 25.6198L101.918 31.0018C102.325 31.2436 102.846 31.1163 103.088 30.7092C103.33 30.302 103.203 29.7804 102.796 29.5386L93.851 24.1566L94.0037 23.9149C94.2454 23.5077 94.1182 22.9861 93.7111 22.7443L88.7235 19.7289C88.6217 19.6653 88.5199 19.6271 88.4054 19.6144C88.3672 19.6016 88.3163 19.6144 88.2782 19.6144C88.2145 19.6144 88.1382 19.6016 88.0746 19.6271C87.9855 19.6525 87.9092 19.6907 87.8328 19.7416C87.8201 19.7543 87.7947 19.7543 87.782 19.767C87.6929 19.8307 87.6165 19.9197 87.5529 20.0215L86.2679 22.1463L83.087 20.2251C79.5881 12.2221 71.6741 4.30809 62.1697 5.21145C61.8262 4.66434 61.4317 4.12996 60.9483 3.64647C59.2433 1.94153 56.9785 1 54.5865 1C52.1945 1 49.9298 1.94153 48.2248 3.64647L46.5072 5.37686L44.7768 3.64647C43.0718 1.94153 40.8071 1 38.3896 1C35.9976 1 33.7329 1.94153 32.0279 3.64647C28.529 7.14541 28.529 12.8582 32.0279 16.3826L45.8965 30.2257C46.0619 30.3911 46.2782 30.4802 46.5072 30.4802C46.7235 30.4802 46.9398 30.3911 47.1179 30.2257L56.2024 21.1412C57.3475 21.6628 58.5563 22.2608 59.7523 22.9988C61.6099 24.1439 62.4751 24.9837 63.3021 25.8107C64.2055 26.7013 65.0579 27.5411 66.9283 28.5717C69.7401 30.1239 72.921 31.0018 76.3818 31.2309L79.6262 33.1903L78.3412 35.3151C78.2775 35.4169 78.2394 35.5314 78.2267 35.6332C78.1758 35.964 78.3285 36.3075 78.6338 36.4856L83.6214 39.5011C83.7613 39.5774 83.914 39.6283 84.0667 39.6283C84.1303 39.6283 84.2067 39.6156 84.2703 39.6029C84.4866 39.552 84.6774 39.412 84.7919 39.2084L84.9319 38.9794L101.943 49.2345C102.083 49.3236 102.236 49.3617 102.388 49.3617C102.681 49.3617 102.961 49.209 103.126 48.9419C103.368 48.5347 103.241 48.013 102.834 47.7713L85.8225 37.5162L92.9731 25.6198ZM46.469 28.4062L33.2112 15.1739C30.3739 12.3238 30.3739 7.70524 33.2112 4.86792C34.5981 3.48107 36.4302 2.71766 38.3642 2.71766C40.3109 2.71766 42.1558 3.48107 43.5299 4.86792L45.8583 7.19631C46.1764 7.51439 46.7489 7.51439 47.067 7.19631L49.3954 4.86792C50.7822 3.48107 52.6144 2.71766 54.5484 2.71766C56.4823 2.71766 58.3145 3.48107 59.7014 4.86792C60.2103 5.37686 60.6302 5.93669 60.9483 6.52197C62.4114 9.19388 62.0043 12.5147 59.9813 14.8431C56.5205 13.698 53.2379 12.9473 51.9401 13.4562C50.9477 13.8507 50.3878 14.5123 50.3242 14.5886C49.6117 15.4665 49.5226 16.4335 49.5099 16.6244C49.4208 18.2402 51.2657 19.0291 54.0522 20.2251C54.1794 20.276 54.3321 20.3523 54.472 20.4032L46.469 28.4062ZM77.1961 29.7677C77.0561 29.6531 76.9034 29.5768 76.7126 29.5641C73.3918 29.386 70.3636 28.5462 67.7044 27.083C66.0376 26.1669 65.3124 25.4417 64.4599 24.6019C63.6075 23.7495 62.6277 22.7952 60.592 21.5483C58.5181 20.276 56.4187 19.3726 54.7265 18.6474C53.4033 18.0748 51.1894 17.1333 51.2148 16.7134C51.2148 16.7134 51.253 16.1536 51.6347 15.6828C51.6347 15.6828 51.9782 15.2757 52.5508 15.0594C53.3015 14.7667 57.1567 15.4411 63.353 17.8967C63.7983 18.0748 64.2945 17.8585 64.4599 17.4132C64.6381 16.9679 64.4217 16.4717 63.9764 16.3063C63.2385 16.0136 62.4751 15.7337 61.6989 15.4538C63.5438 12.9982 64.0273 9.75372 62.9586 6.89095C71.4324 6.50924 78.4939 13.8634 81.5984 21.2048C81.6238 21.2557 81.6747 21.2811 81.7001 21.332C81.7256 21.3702 81.7511 21.3956 81.7765 21.4338C81.8401 21.5102 81.9037 21.5738 81.9928 21.6247L85.339 23.6477L80.4405 31.7652L77.1961 29.7677ZM83.7359 37.6053L80.2115 35.4805L88.5581 21.6374L92.0825 23.7622L91.9552 23.9658C91.9425 23.9785 91.9425 23.9785 91.9298 23.9912L87.7438 30.9382L83.7359 37.6053Z" stroke="#F6DBA0" stroke-width="1.6" mask="url(#path-1-outside-1_2_278)"/>
<path d="M74.5877 42.5928C74.4096 42.4147 74.1679 42.3384 73.9261 42.3511H51.6092C51.5711 42.3511 51.5456 42.3511 51.5074 42.3511H12.9682C12.7265 42.3384 12.4974 42.4147 12.3066 42.5928L1.6698 53.2296C1.42806 53.4714 1.35172 53.8403 1.47895 54.1584C1.60619 54.4765 1.92427 54.6928 2.2678 54.6928H12.0394V84.1348C12.0394 84.6056 12.4211 84.9873 12.8919 84.9873H51.5074C51.5202 84.9873 51.5329 85 51.5456 85C51.5583 85 51.5711 85 51.5838 84.9873H73.977C74.4478 84.9873 74.8295 84.6056 74.8295 84.1348V54.6928H84.6138C84.9573 54.6928 85.2754 54.4892 85.4026 54.1584C85.5299 53.8403 85.4663 53.4714 85.2118 53.2296L74.5877 42.5928ZM12.9173 52.9751H4.35444L13.2608 44.0687H49.4844L40.578 52.9751H12.93C12.9173 52.9751 12.9173 52.9751 12.9173 52.9751ZM50.7059 83.2823H13.7698V54.6928H40.9216C41.1506 54.6928 41.3669 54.6037 41.5323 54.4383L50.7059 45.2647V83.2823ZM52.4235 83.2823V45.2647L61.5971 54.4383C61.7625 54.6037 61.9788 54.6928 62.2078 54.6928H73.1373V83.2823H52.4235ZM62.5641 52.9751L53.6577 44.0687H73.6589L82.5653 52.9751H62.5641Z" stroke="#F6DBA0" stroke-width="1.6" mask="url(#path-1-outside-1_2_278)"/>
</svg>
