<svg width="85" height="84" viewBox="0 0 85 84" fill="none" xmlns="http://www.w3.org/2000/svg">
<path d="M38.4667 26.5447H35.6667V29.3389H38.4667V26.5447Z" fill="#F6DBA0"/>
<path d="M49.6667 26.5447H46.8667V29.3389H49.6667V26.5447Z" fill="#F6DBA0"/>
<path d="M42.8067 34.4732L43.4367 34.7875L44.6967 32.2902L44.0667 31.9759C43.4542 31.6615 43.1392 30.9455 43.3667 30.2819L43.9967 28.3958L41.3367 27.5052L40.7067 29.3913C40.0592 31.3647 40.9517 33.5301 42.8067 34.4732Z" fill="#F6DBA0"/>
<path d="M38.7817 39.6075C41.1267 41.1792 44.1892 41.1792 46.5517 39.6075L47.6367 38.874L46.0792 36.5513L44.9942 37.2848C43.5767 38.2279 41.7392 38.2279 40.3392 37.2848L39.2542 36.5513L37.6967 38.874L38.7817 39.6075Z" fill="#F6DBA0"/>
<path d="M17.8692 26.143C18.4117 26.6844 19.3042 26.6844 19.8467 26.143C20.1092 25.8811 20.2492 25.5318 20.2492 25.1476V18.1622H18.8492C18.0792 18.1622 17.4492 18.7909 17.4492 19.5593V21.7771L14.2467 18.5813C13.9842 18.3193 13.6342 18.1796 13.2492 18.1796H4.86669C4.09669 18.1796 3.46669 17.5509 3.46669 16.7825V5.58836C3.46669 4.81996 4.09669 4.19127 4.86669 4.19127H21.6667V1.39709H4.86669C2.55669 1.39709 0.666687 3.28316 0.666687 5.58836V16.7651C0.666687 19.0703 2.55669 20.9563 4.86669 20.9563H12.6892L17.8692 26.143Z" fill="#F6DBA0"/>
<path d="M18.8667 6.98545H6.26669V9.77963H18.8667V6.98545Z" fill="#F6DBA0"/>
<path d="M18.8667 12.5738H6.26669V15.368H18.8667V12.5738Z" fill="#F6DBA0"/>
<path d="M68.5317 58.1538L70.0017 55.7788C69.5467 55.4994 69.0567 55.2724 68.5667 55.1152L51.0667 49.2823V42.7509C53.5692 40.6902 55.3542 37.8786 56.1767 34.7526L58.8192 34.089C61.2517 33.4778 62.7392 31.0328 62.1267 28.6054C61.9692 27.9767 61.6892 27.4004 61.2867 26.894L61.4617 26.3701C63.8417 19.2274 64.3317 11.5784 62.8442 4.1738L62.2317 1.11767C62.1092 0.471518 61.5317 0 60.8667 0H34.1617C27.1442 0 21.4392 5.67567 21.4392 12.696C21.4392 13.5867 21.5267 14.4773 21.7192 15.3505L24.1692 26.7193C22.5242 28.6054 22.7342 31.4694 24.6242 33.111C25.1667 33.5825 25.7967 33.9143 26.4967 34.089L29.1392 34.7526C29.9617 37.896 31.7467 40.6902 34.2492 42.7509V49.2823L21.8417 53.4037L21.6492 48.8632V45.5626L22.1217 45.3181C23.5567 44.6195 24.4492 43.1526 24.4492 41.5634V37.7214C24.4492 35.4162 22.5592 33.5301 20.2492 33.5301H14.6667V27.9418C14.6667 25.6191 12.7942 23.7505 10.4667 23.7505C8.13919 23.7505 6.26669 25.6191 6.26669 27.9418V41.5809C6.26669 43.1701 7.15919 44.6195 8.59419 45.3356L9.06669 45.58V47.501C8.31419 47.501 7.70169 48.0948 7.66669 48.8457L6.56419 75.3904C6.37169 79.8611 9.85419 83.6333 14.3342 83.8254C18.8142 84.0175 22.5942 80.5422 22.7867 76.0715C22.8042 75.8445 22.8042 75.6175 22.7867 75.3904L21.9992 56.3202L30.0842 53.6308V64.2661C30.0842 65.0345 30.7142 65.6632 31.4842 65.6632C31.8167 65.6632 32.1492 65.541 32.4117 65.3139L37.5217 60.8432C37.7317 61.3497 38.0292 61.8212 38.3792 62.2403L35.6842 83.6507L38.4667 84L40.9692 64.0042C42.0717 64.3534 43.2792 64.3534 44.3817 64.0042L46.8842 84L49.6667 83.6507L46.9892 62.2403C47.3392 61.8212 47.6192 61.3497 47.8467 60.8432L52.9567 65.3139C53.5342 65.8204 54.4267 65.768 54.9342 65.1742C55.1617 64.9123 55.2842 64.5979 55.2842 64.2486V53.6133L67.6917 57.7347C67.9717 57.857 68.2692 57.9967 68.5317 58.1538ZM9.06669 27.9418C9.06669 27.1734 9.69669 26.5447 10.4667 26.5447C11.2367 26.5447 11.8667 27.1734 11.8667 27.9418V33.5301H10.4667C9.99419 33.5301 9.52169 33.6175 9.06669 33.7746V27.9418ZM18.4992 79.4071C16.4692 81.5202 13.1092 81.59 10.9917 79.5642C9.88919 78.5164 9.29419 77.032 9.36419 75.5127L10.0642 58.6778H19.2867L19.9867 75.5127C20.0392 76.9447 19.5142 78.3593 18.4992 79.4071ZM10.1692 55.8836L10.3967 50.2952H18.9192L19.1467 55.8836H10.1692ZM20.8967 42.8382L19.6367 43.4669C19.1642 43.7114 18.8667 44.183 18.8667 44.7243V47.5185H11.8667V44.7243C11.8667 44.2004 11.5692 43.7114 11.0967 43.4669L9.83669 42.8382C9.36419 42.6112 9.06669 42.1222 9.06669 41.5809V37.7214C9.06669 36.953 9.69669 36.3243 10.4667 36.3243H14.6667C14.6667 37.0927 14.0367 37.7214 13.2667 37.7214H11.8667V40.5156H13.2667C15.5767 40.5156 17.4667 38.6295 17.4667 36.3243H20.2667C21.0367 36.3243 21.6667 36.953 21.6667 37.7214V41.5809C21.6667 42.1048 21.3692 42.5938 20.8967 42.8382ZM58.1367 31.3647L56.6317 31.7314C56.6492 31.452 56.6492 31.1726 56.6492 30.8757V27.9418H57.6992C58.6617 27.9418 59.4492 28.7276 59.4492 29.6881C59.4667 30.474 58.9242 31.1726 58.1367 31.3647ZM27.1967 31.3647C26.2692 31.1376 25.6917 30.1946 25.9192 29.2516C26.1117 28.4832 26.8117 27.9243 27.6167 27.9243H28.6667V30.8757C28.6667 31.1551 28.6842 31.4345 28.6842 31.7314L27.1967 31.3647ZM28.6667 24.6062V25.1476H27.6167C27.3192 25.1476 27.0217 25.1825 26.7242 25.2349L24.4667 14.7568C23.3117 9.41289 26.7242 4.15634 32.0792 3.00374C32.7617 2.86403 33.4617 2.77672 34.1617 2.77672H59.7117L60.0967 4.71518C61.4617 11.5609 61.0417 18.6511 58.8717 25.2873C58.5042 25.1825 58.1017 25.1476 57.7167 25.1476H56.6667V23.6807C56.6667 22.3884 56.0192 21.1659 54.9342 20.4499C53.1142 19.2274 51.6267 17.5684 50.6467 15.6125L49.5092 13.3422C49.1592 12.6437 48.3192 12.3642 47.6367 12.7135C47.3917 12.8358 47.1992 13.0104 47.0592 13.2374L46.4817 14.2154C44.4342 17.6208 40.8817 19.8561 36.9267 20.2578L32.1667 20.7293C30.1717 20.9389 28.6667 22.5979 28.6667 24.6062ZM31.4667 30.8931V24.5888C31.4667 24.0299 31.8867 23.5584 32.4467 23.506L37.2067 23.0345C41.5642 22.5979 45.5367 20.3277 48.1092 16.8L48.1442 16.8524C49.3517 19.2449 51.1542 21.2881 53.3767 22.7726C53.6742 22.9647 53.8667 23.3139 53.8667 23.6807V30.8931C53.8667 35.4511 51.3817 39.6599 47.3917 41.8778L43.3492 44.1131C42.9292 44.3576 42.4042 44.3576 41.9842 44.1131L37.9417 41.8952C33.9517 39.6773 31.4667 35.4686 31.4667 30.8931ZM48.2667 44.6021V49.5094L42.6667 52.8624L37.0667 49.5094V44.6021L40.6192 46.5755C41.8792 47.2915 43.4367 47.2915 44.6967 46.5755L48.2667 44.6021ZM32.8667 61.1925V52.7052L35.4917 51.832L40.2867 54.7135L32.8667 61.1925ZM42.6667 61.4719C41.1617 61.4719 39.9367 60.2844 39.8667 58.7825L42.6667 56.3376L45.4667 58.7825C45.3967 60.2844 44.1717 61.4719 42.6667 61.4719ZM52.4667 61.1925L45.0292 54.6961L49.8242 51.8146L52.4492 52.6877V61.1925H52.4667Z" fill="#F6DBA0"/>
<path d="M83.1617 38.5771C82.9517 38.0532 82.4267 37.7214 81.8667 37.7214H77.1242L74.7092 32.9015C74.3592 32.2029 73.5192 31.9235 72.8367 32.2728C72.5742 32.4125 72.3467 32.622 72.2067 32.9015L69.8092 37.7214H65.0667C64.2967 37.7214 63.6667 38.3501 63.6667 39.1185C63.6667 39.4852 63.8067 39.852 64.0692 40.1139L67.7442 43.7813L66.4842 50.0333C66.3267 50.7842 66.8167 51.5177 67.5867 51.6748C67.9717 51.7447 68.3742 51.6574 68.7067 51.4304L73.4667 47.8503L78.2267 51.4129C78.8392 51.8844 79.7142 51.7447 80.1867 51.1335C80.4317 50.8191 80.5192 50.4175 80.4317 50.0158L79.1717 43.7638L82.8467 40.0965C83.2492 39.7123 83.3717 39.101 83.1617 38.5771ZM76.6692 42.3143C76.3367 42.6462 76.1967 43.1177 76.2842 43.5717L76.9667 46.9771L74.3067 44.9863C73.8167 44.6195 73.1167 44.6195 72.6267 44.9863L69.9667 46.9771L70.6492 43.5717C70.7367 43.1177 70.5967 42.6462 70.2642 42.3143L68.4442 40.5156H70.6667C71.1917 40.5156 71.6817 40.2187 71.9267 39.7472L73.4667 36.6561L75.0067 39.7472C75.2517 40.2187 75.7242 40.5156 76.2667 40.5156H78.4892L76.6692 42.3143Z" fill="#F6DBA0"/>
<path d="M79.0667 57.2807H77.6667C76.1267 57.2807 74.8667 56.0233 74.8667 54.4865V51.6923H72.0667V54.4865C72.0667 57.5775 74.5692 60.0748 77.6667 60.0748H79.0667C80.6067 60.0748 81.8667 61.3322 81.8667 62.869C81.8667 64.4058 80.6067 65.6632 79.0667 65.6632H66.4667C63.3692 65.6632 60.8667 68.1605 60.8667 71.2516C60.8667 74.3426 63.3692 76.8399 66.4667 76.8399H67.8667C70.1767 76.8399 72.0667 78.726 72.0667 81.0312V83.8254H74.8667V81.0312C74.8667 77.1717 71.7342 74.0457 67.8667 74.0457H66.4667C64.9267 74.0457 63.6667 72.7884 63.6667 71.2516C63.6667 69.7148 64.9267 68.4574 66.4667 68.4574H79.0667C82.1642 68.4574 84.6667 65.9601 84.6667 62.869C84.6667 59.778 82.1642 57.2807 79.0667 57.2807Z" fill="#F6DBA0"/>
<path d="M74.8667 25.1476H72.0667V29.3389H74.8667V25.1476Z" fill="#F6DBA0"/>
<path d="M79.4743 26.9559L76.6777 29.7467L78.6576 31.7225L81.4541 28.9317L79.4743 26.9559Z" fill="#F6DBA0"/>
<path d="M82.8329 32.2049L78.6325 33.602L79.5178 36.2528L83.7182 34.8557L82.8329 32.2049Z" fill="#F6DBA0"/>
<path d="M67.4576 26.9559L65.4778 28.9316L68.2743 31.7224L70.2542 29.7466L67.4576 26.9559Z" fill="#F6DBA0"/>
<path d="M64.1211 32.2066L63.2355 34.8575L67.4359 36.255L68.3215 33.6041L64.1211 32.2066Z" fill="#F6DBA0"/>
</svg>
