<svg width="625" height="305" viewBox="0 0 625 305" fill="none" xmlns="http://www.w3.org/2000/svg">
<g filter="url(#filter0_d_2_346)">
<path d="M226.86 24C225.627 24 224.594 23.6167 223.76 22.85C222.96 22.05 222.56 21.0667 222.56 19.9C222.56 18.7333 222.96 17.7667 223.76 17C224.594 16.2 225.627 15.8 226.86 15.8C228.094 15.8 229.11 16.2 229.91 17C230.744 17.7667 231.16 18.7333 231.16 19.9C231.16 21.0667 230.744 22.05 229.91 22.85C229.11 23.6167 228.094 24 226.86 24ZM230.31 27.3V55H223.31V27.3H230.31ZM247.826 55.45C245.56 55.45 243.526 55.05 241.726 54.25C239.926 53.4167 238.493 52.3 237.426 50.9C236.393 49.5 235.826 47.95 235.726 46.25H242.776C242.91 47.3167 243.426 48.2 244.326 48.9C245.26 49.6 246.41 49.95 247.776 49.95C249.11 49.95 250.143 49.6833 250.876 49.15C251.643 48.6167 252.026 47.9333 252.026 47.1C252.026 46.2 251.56 45.5333 250.626 45.1C249.726 44.6333 248.276 44.1333 246.276 43.6C244.21 43.1 242.51 42.5833 241.176 42.05C239.876 41.5167 238.743 40.7 237.776 39.6C236.843 38.5 236.376 37.0167 236.376 35.15C236.376 33.6167 236.81 32.2167 237.676 30.95C238.576 29.6833 239.843 28.6833 241.476 27.95C243.143 27.2167 245.093 26.85 247.326 26.85C250.626 26.85 253.26 27.6833 255.226 29.35C257.193 30.9833 258.276 33.2 258.476 36H251.776C251.676 34.9 251.21 34.0333 250.376 33.4C249.576 32.7333 248.493 32.4 247.126 32.4C245.86 32.4 244.876 32.6333 244.176 33.1C243.51 33.5667 243.176 34.2167 243.176 35.05C243.176 35.9833 243.643 36.7 244.576 37.2C245.51 37.6667 246.96 38.15 248.926 38.65C250.926 39.15 252.576 39.6667 253.876 40.2C255.176 40.7333 256.293 41.5667 257.226 42.7C258.193 43.8 258.693 45.2667 258.726 47.1C258.726 48.7 258.276 50.1333 257.376 51.4C256.51 52.6667 255.243 53.6667 253.576 54.4C251.943 55.1 250.026 55.45 247.826 55.45ZM274.587 41.05C274.587 38.25 275.137 35.7667 276.237 33.6C277.37 31.4333 278.903 29.7667 280.837 28.6C282.77 27.4333 284.92 26.85 287.287 26.85C289.087 26.85 290.803 27.25 292.437 28.05C294.07 28.8167 295.37 29.85 296.337 31.15V18H303.437V55H296.337V50.9C295.47 52.2667 294.253 53.3667 292.687 54.2C291.12 55.0333 289.303 55.45 287.237 55.45C284.903 55.45 282.77 54.85 280.837 53.65C278.903 52.45 277.37 50.7667 276.237 48.6C275.137 46.4 274.587 43.8833 274.587 41.05ZM296.387 41.15C296.387 39.45 296.053 38 295.387 36.8C294.72 35.5667 293.82 34.6333 292.687 34C291.553 33.3333 290.337 33 289.037 33C287.737 33 286.537 33.3167 285.437 33.95C284.337 34.5833 283.437 35.5167 282.737 36.75C282.07 37.95 281.737 39.3833 281.737 41.05C281.737 42.7167 282.07 44.1833 282.737 45.45C283.437 46.6833 284.337 47.6333 285.437 48.3C286.57 48.9667 287.77 49.3 289.037 49.3C290.337 49.3 291.553 48.9833 292.687 48.35C293.82 47.6833 294.72 46.75 295.387 45.55C296.053 44.3167 296.387 42.85 296.387 41.15ZM336.023 40.55C336.023 41.55 335.957 42.45 335.823 43.25H315.573C315.74 45.25 316.44 46.8167 317.673 47.95C318.907 49.0833 320.423 49.65 322.223 49.65C324.823 49.65 326.673 48.5333 327.773 46.3H335.323C334.523 48.9667 332.99 51.1667 330.723 52.9C328.457 54.6 325.673 55.45 322.373 55.45C319.707 55.45 317.307 54.8667 315.173 53.7C313.073 52.5 311.423 50.8167 310.223 48.65C309.057 46.4833 308.473 43.9833 308.473 41.15C308.473 38.2833 309.057 35.7667 310.223 33.6C311.39 31.4333 313.023 29.7667 315.123 28.6C317.223 27.4333 319.64 26.85 322.373 26.85C325.007 26.85 327.357 27.4167 329.423 28.55C331.523 29.6833 333.14 31.3 334.273 33.4C335.44 35.4667 336.023 37.85 336.023 40.55ZM328.773 38.55C328.74 36.75 328.09 35.3167 326.823 34.25C325.557 33.15 324.007 32.6 322.173 32.6C320.44 32.6 318.973 33.1333 317.773 34.2C316.607 35.2333 315.89 36.6833 315.623 38.55H328.773ZM339.333 41.05C339.333 38.25 339.883 35.7667 340.983 33.6C342.116 31.4333 343.649 29.7667 345.583 28.6C347.516 27.4333 349.666 26.85 352.033 26.85C353.833 26.85 355.549 27.25 357.183 28.05C358.816 28.8167 360.116 29.85 361.083 31.15V18H368.183V55H361.083V50.9C360.216 52.2667 358.999 53.3667 357.433 54.2C355.866 55.0333 354.049 55.45 351.983 55.45C349.649 55.45 347.516 54.85 345.583 53.65C343.649 52.45 342.116 50.7667 340.983 48.6C339.883 46.4 339.333 43.8833 339.333 41.05ZM361.133 41.15C361.133 39.45 360.799 38 360.133 36.8C359.466 35.5667 358.566 34.6333 357.433 34C356.299 33.3333 355.083 33 353.783 33C352.483 33 351.283 33.3167 350.183 33.95C349.083 34.5833 348.183 35.5167 347.483 36.75C346.816 37.95 346.483 39.3833 346.483 41.05C346.483 42.7167 346.816 44.1833 347.483 45.45C348.183 46.6833 349.083 47.6333 350.183 48.3C351.316 48.9667 352.516 49.3 353.783 49.3C355.083 49.3 356.299 48.9833 357.433 48.35C358.566 47.6833 359.466 46.75 360.133 45.55C360.799 44.3167 361.133 42.85 361.133 41.15ZM378.569 24C377.336 24 376.303 23.6167 375.469 22.85C374.669 22.05 374.269 21.0667 374.269 19.9C374.269 18.7333 374.669 17.7667 375.469 17C376.303 16.2 377.336 15.8 378.569 15.8C379.803 15.8 380.819 16.2 381.619 17C382.453 17.7667 382.869 18.7333 382.869 19.9C382.869 21.0667 382.453 22.05 381.619 22.85C380.819 23.6167 379.803 24 378.569 24ZM382.019 27.3V55H375.019V27.3H382.019ZM387.135 41.15C387.135 38.2833 387.719 35.7833 388.885 33.65C390.052 31.4833 391.669 29.8167 393.735 28.65C395.802 27.45 398.169 26.85 400.835 26.85C404.269 26.85 407.102 27.7167 409.335 29.45C411.602 31.15 413.119 33.55 413.885 36.65H406.335C405.935 35.45 405.252 34.5167 404.285 33.85C403.352 33.15 402.185 32.8 400.785 32.8C398.785 32.8 397.202 33.5333 396.035 35C394.869 36.4333 394.285 38.4833 394.285 41.15C394.285 43.7833 394.869 45.8333 396.035 47.3C397.202 48.7333 398.785 49.45 400.785 49.45C403.619 49.45 405.469 48.1833 406.335 45.65H413.885C413.119 48.65 411.602 51.0333 409.335 52.8C407.069 54.5667 404.235 55.45 400.835 55.45C398.169 55.45 395.802 54.8667 393.735 53.7C391.669 52.5 390.052 50.8333 388.885 48.7C387.719 46.5333 387.135 44.0167 387.135 41.15ZM417.213 41.05C417.213 38.25 417.763 35.7667 418.863 33.6C419.997 31.4333 421.513 29.7667 423.413 28.6C425.347 27.4333 427.497 26.85 429.863 26.85C431.93 26.85 433.73 27.2667 435.263 28.1C436.83 28.9333 438.08 29.9833 439.013 31.25V27.3H446.063V55H439.013V50.95C438.113 52.25 436.863 53.3333 435.263 54.2C433.697 55.0333 431.88 55.45 429.813 55.45C427.48 55.45 425.347 54.85 423.413 53.65C421.513 52.45 419.997 50.7667 418.863 48.6C417.763 46.4 417.213 43.8833 417.213 41.05ZM439.013 41.15C439.013 39.45 438.68 38 438.013 36.8C437.347 35.5667 436.447 34.6333 435.313 34C434.18 33.3333 432.963 33 431.663 33C430.363 33 429.163 33.3167 428.063 33.95C426.963 34.5833 426.063 35.5167 425.363 36.75C424.697 37.95 424.363 39.3833 424.363 41.05C424.363 42.7167 424.697 44.1833 425.363 45.45C426.063 46.6833 426.963 47.6333 428.063 48.3C429.197 48.9667 430.397 49.3 431.663 49.3C432.963 49.3 434.18 48.9833 435.313 48.35C436.447 47.6833 437.347 46.75 438.013 45.55C438.68 44.3167 439.013 42.85 439.013 41.15ZM461.05 33.05V46.45C461.05 47.3833 461.267 48.0667 461.7 48.5C462.167 48.9 462.934 49.1 464 49.1H467.25V55H462.85C456.95 55 454 52.1333 454 46.4V33.05H450.7V27.3H454V20.45H461.05V27.3H467.25V33.05H461.05ZM498.035 40.55C498.035 41.55 497.968 42.45 497.835 43.25H477.585C477.752 45.25 478.452 46.8167 479.685 47.95C480.918 49.0833 482.435 49.65 484.235 49.65C486.835 49.65 488.685 48.5333 489.785 46.3H497.335C496.535 48.9667 495.002 51.1667 492.735 52.9C490.468 54.6 487.685 55.45 484.385 55.45C481.718 55.45 479.318 54.8667 477.185 53.7C475.085 52.5 473.435 50.8167 472.235 48.65C471.068 46.4833 470.485 43.9833 470.485 41.15C470.485 38.2833 471.068 35.7667 472.235 33.6C473.402 31.4333 475.035 29.7667 477.135 28.6C479.235 27.4333 481.652 26.85 484.385 26.85C487.018 26.85 489.368 27.4167 491.435 28.55C493.535 29.6833 495.152 31.3 496.285 33.4C497.452 35.4667 498.035 37.85 498.035 40.55ZM490.785 38.55C490.752 36.75 490.102 35.3167 488.835 34.25C487.568 33.15 486.018 32.6 484.185 32.6C482.452 32.6 480.985 33.1333 479.785 34.2C478.618 35.2333 477.902 36.6833 477.635 38.55H490.785ZM501.344 41.05C501.344 38.25 501.894 35.7667 502.994 33.6C504.128 31.4333 505.661 29.7667 507.594 28.6C509.528 27.4333 511.678 26.85 514.044 26.85C515.844 26.85 517.561 27.25 519.194 28.05C520.828 28.8167 522.128 29.85 523.094 31.15V18H530.194V55H523.094V50.9C522.228 52.2667 521.011 53.3667 519.444 54.2C517.878 55.0333 516.061 55.45 513.994 55.45C511.661 55.45 509.528 54.85 507.594 53.65C505.661 52.45 504.128 50.7667 502.994 48.6C501.894 46.4 501.344 43.8833 501.344 41.05ZM523.144 41.15C523.144 39.45 522.811 38 522.144 36.8C521.478 35.5667 520.578 34.6333 519.444 34C518.311 33.3333 517.094 33 515.794 33C514.494 33 513.294 33.3167 512.194 33.95C511.094 34.5833 510.194 35.5167 509.494 36.75C508.828 37.95 508.494 39.3833 508.494 41.05C508.494 42.7167 508.828 44.1833 509.494 45.45C510.194 46.6833 511.094 47.6333 512.194 48.3C513.328 48.9667 514.528 49.3 515.794 49.3C517.094 49.3 518.311 48.9833 519.444 48.35C520.578 47.6833 521.478 46.75 522.144 45.55C522.811 44.3167 523.144 42.85 523.144 41.15ZM557.095 33.05V46.45C557.095 47.3833 557.312 48.0667 557.745 48.5C558.212 48.9 558.978 49.1 560.045 49.1H563.295V55H558.895C552.995 55 550.045 52.1333 550.045 46.4V33.05H546.745V27.3H550.045V20.45H557.095V27.3H563.295V33.05H557.095ZM580.63 55.45C577.963 55.45 575.563 54.8667 573.43 53.7C571.297 52.5 569.613 50.8167 568.38 48.65C567.18 46.4833 566.58 43.9833 566.58 41.15C566.58 38.3167 567.197 35.8167 568.43 33.65C569.697 31.4833 571.413 29.8167 573.58 28.65C575.747 27.45 578.163 26.85 580.83 26.85C583.497 26.85 585.913 27.45 588.08 28.65C590.247 29.8167 591.947 31.4833 593.18 33.65C594.447 35.8167 595.08 38.3167 595.08 41.15C595.08 43.9833 594.43 46.4833 593.13 48.65C591.863 50.8167 590.13 52.5 587.93 53.7C585.763 54.8667 583.33 55.45 580.63 55.45ZM580.63 49.35C581.897 49.35 583.08 49.05 584.18 48.45C585.313 47.8167 586.213 46.8833 586.88 45.65C587.547 44.4167 587.88 42.9167 587.88 41.15C587.88 38.5167 587.18 36.5 585.78 35.1C584.413 33.6667 582.73 32.95 580.73 32.95C578.73 32.95 577.047 33.6667 575.68 35.1C574.347 36.5 573.68 38.5167 573.68 41.15C573.68 43.7833 574.33 45.8167 575.63 47.25C576.963 48.65 578.63 49.35 580.63 49.35ZM62.0486 115.55C62.0486 116.55 61.982 117.45 61.8486 118.25H41.5986C41.7653 120.25 42.4653 121.817 43.6986 122.95C44.932 124.083 46.4486 124.65 48.2486 124.65C50.8486 124.65 52.6986 123.533 53.7986 121.3H61.3486C60.5486 123.967 59.0153 126.167 56.7486 127.9C54.482 129.6 51.6986 130.45 48.3986 130.45C45.732 130.45 43.332 129.867 41.1986 128.7C39.0986 127.5 37.4486 125.817 36.2486 123.65C35.082 121.483 34.4986 118.983 34.4986 116.15C34.4986 113.283 35.082 110.767 36.2486 108.6C37.4153 106.433 39.0486 104.767 41.1486 103.6C43.2486 102.433 45.6653 101.85 48.3986 101.85C51.032 101.85 53.382 102.417 55.4486 103.55C57.5486 104.683 59.1653 106.3 60.2986 108.4C61.4653 110.467 62.0486 112.85 62.0486 115.55ZM54.7986 113.55C54.7653 111.75 54.1153 110.317 52.8486 109.25C51.582 108.15 50.032 107.6 48.1986 107.6C46.4653 107.6 44.9986 108.133 43.7986 109.2C42.632 110.233 41.9153 111.683 41.6486 113.55H54.7986ZM82.508 101.9C85.808 101.9 88.4747 102.95 90.508 105.05C92.5413 107.117 93.558 110.017 93.558 113.75V130H86.558V114.7C86.558 112.5 86.008 110.817 84.908 109.65C83.808 108.45 82.308 107.85 80.408 107.85C78.4747 107.85 76.9413 108.45 75.808 109.65C74.708 110.817 74.158 112.5 74.158 114.7V130H67.158V102.3H74.158V105.75C75.0913 104.55 76.2747 103.617 77.708 102.95C79.1747 102.25 80.7747 101.9 82.508 101.9ZM115.815 101.9C117.915 101.9 119.781 102.367 121.415 103.3C123.048 104.2 124.315 105.55 125.215 107.35C126.148 109.117 126.615 111.25 126.615 113.75V130H119.615V114.7C119.615 112.5 119.065 110.817 117.965 109.65C116.865 108.45 115.365 107.85 113.465 107.85C111.531 107.85 109.998 108.45 108.865 109.65C107.765 110.817 107.215 112.5 107.215 114.7V130H100.215V93H107.215V105.75C108.115 104.55 109.315 103.617 110.815 102.95C112.315 102.25 113.981 101.9 115.815 101.9ZM131.471 116.05C131.471 113.25 132.021 110.767 133.121 108.6C134.255 106.433 135.771 104.767 137.671 103.6C139.605 102.433 141.755 101.85 144.121 101.85C146.188 101.85 147.988 102.267 149.521 103.1C151.088 103.933 152.338 104.983 153.271 106.25V102.3H160.321V130H153.271V125.95C152.371 127.25 151.121 128.333 149.521 129.2C147.955 130.033 146.138 130.45 144.071 130.45C141.738 130.45 139.605 129.85 137.671 128.65C135.771 127.45 134.255 125.767 133.121 123.6C132.021 121.4 131.471 118.883 131.471 116.05ZM153.271 116.15C153.271 114.45 152.938 113 152.271 111.8C151.605 110.567 150.705 109.633 149.571 109C148.438 108.333 147.221 108 145.921 108C144.621 108 143.421 108.317 142.321 108.95C141.221 109.583 140.321 110.517 139.621 111.75C138.955 112.95 138.621 114.383 138.621 116.05C138.621 117.717 138.955 119.183 139.621 120.45C140.321 121.683 141.221 122.633 142.321 123.3C143.455 123.967 144.655 124.3 145.921 124.3C147.221 124.3 148.438 123.983 149.571 123.35C150.705 122.683 151.605 121.75 152.271 120.55C152.938 119.317 153.271 117.85 153.271 116.15ZM182.508 101.9C185.808 101.9 188.475 102.95 190.508 105.05C192.541 107.117 193.558 110.017 193.558 113.75V130H186.558V114.7C186.558 112.5 186.008 110.817 184.908 109.65C183.808 108.45 182.308 107.85 180.408 107.85C178.475 107.85 176.941 108.45 175.808 109.65C174.708 110.817 174.158 112.5 174.158 114.7V130H167.158V102.3H174.158V105.75C175.091 104.55 176.275 103.617 177.708 102.95C179.175 102.25 180.775 101.9 182.508 101.9ZM198.415 116.15C198.415 113.283 198.998 110.783 200.165 108.65C201.331 106.483 202.948 104.817 205.015 103.65C207.081 102.45 209.448 101.85 212.115 101.85C215.548 101.85 218.381 102.717 220.615 104.45C222.881 106.15 224.398 108.55 225.165 111.65H217.615C217.215 110.45 216.531 109.517 215.565 108.85C214.631 108.15 213.465 107.8 212.065 107.8C210.065 107.8 208.481 108.533 207.315 110C206.148 111.433 205.565 113.483 205.565 116.15C205.565 118.783 206.148 120.833 207.315 122.3C208.481 123.733 210.065 124.45 212.065 124.45C214.898 124.45 216.748 123.183 217.615 120.65H225.165C224.398 123.65 222.881 126.033 220.615 127.8C218.348 129.567 215.515 130.45 212.115 130.45C209.448 130.45 207.081 129.867 205.015 128.7C202.948 127.5 201.331 125.833 200.165 123.7C198.998 121.533 198.415 119.017 198.415 116.15ZM233.843 99C232.609 99 231.576 98.6167 230.743 97.85C229.943 97.05 229.543 96.0667 229.543 94.9C229.543 93.7333 229.943 92.7667 230.743 92C231.576 91.2 232.609 90.8 233.843 90.8C235.076 90.8 236.093 91.2 236.893 92C237.726 92.7667 238.143 93.7333 238.143 94.9C238.143 96.0667 237.726 97.05 236.893 97.85C236.093 98.6167 235.076 99 233.843 99ZM237.293 102.3V130H230.293V102.3H237.293ZM259.559 101.9C262.859 101.9 265.525 102.95 267.559 105.05C269.592 107.117 270.609 110.017 270.609 113.75V130H263.609V114.7C263.609 112.5 263.059 110.817 261.959 109.65C260.859 108.45 259.359 107.85 257.459 107.85C255.525 107.85 253.992 108.45 252.859 109.65C251.759 110.817 251.209 112.5 251.209 114.7V130H244.209V102.3H251.209V105.75C252.142 104.55 253.325 103.617 254.759 102.95C256.225 102.25 257.825 101.9 259.559 101.9ZM288.115 101.85C290.182 101.85 291.999 102.267 293.565 103.1C295.132 103.9 296.365 104.95 297.265 106.25V102.3H304.315V130.2C304.315 132.767 303.799 135.05 302.765 137.05C301.732 139.083 300.182 140.683 298.115 141.85C296.049 143.05 293.549 143.65 290.615 143.65C286.682 143.65 283.449 142.733 280.915 140.9C278.415 139.067 276.999 136.567 276.665 133.4H283.615C283.982 134.667 284.765 135.667 285.965 136.4C287.199 137.167 288.682 137.55 290.415 137.55C292.449 137.55 294.099 136.933 295.365 135.7C296.632 134.5 297.265 132.667 297.265 130.2V125.9C296.365 127.2 295.115 128.283 293.515 129.15C291.949 130.017 290.149 130.45 288.115 130.45C285.782 130.45 283.649 129.85 281.715 128.65C279.782 127.45 278.249 125.767 277.115 123.6C276.015 121.4 275.465 118.883 275.465 116.05C275.465 113.25 276.015 110.767 277.115 108.6C278.249 106.433 279.765 104.767 281.665 103.6C283.599 102.433 285.749 101.85 288.115 101.85ZM297.265 116.15C297.265 114.45 296.932 113 296.265 111.8C295.599 110.567 294.699 109.633 293.565 109C292.432 108.333 291.215 108 289.915 108C288.615 108 287.415 108.317 286.315 108.95C285.215 109.583 284.315 110.517 283.615 111.75C282.949 112.95 282.615 114.383 282.615 116.05C282.615 117.717 282.949 119.183 283.615 120.45C284.315 121.683 285.215 122.633 286.315 123.3C287.449 123.967 288.649 124.3 289.915 124.3C291.215 124.3 292.432 123.983 293.565 123.35C294.699 122.683 295.599 121.75 296.265 120.55C296.932 119.317 297.265 117.85 297.265 116.15ZM331.216 108.05V121.45C331.216 122.383 331.433 123.067 331.866 123.5C332.333 123.9 333.1 124.1 334.166 124.1H337.416V130H333.016C327.116 130 324.166 127.133 324.166 121.4V108.05H320.866V102.3H324.166V95.45H331.216V102.3H337.416V108.05H331.216ZM358.051 101.9C360.151 101.9 362.018 102.367 363.651 103.3C365.284 104.2 366.551 105.55 367.451 107.35C368.384 109.117 368.851 111.25 368.851 113.75V130H361.851V114.7C361.851 112.5 361.301 110.817 360.201 109.65C359.101 108.45 357.601 107.85 355.701 107.85C353.768 107.85 352.234 108.45 351.101 109.65C350.001 110.817 349.451 112.5 349.451 114.7V130H342.451V93H349.451V105.75C350.351 104.55 351.551 103.617 353.051 102.95C354.551 102.25 356.218 101.9 358.051 101.9ZM401.258 115.55C401.258 116.55 401.191 117.45 401.058 118.25H380.808C380.974 120.25 381.674 121.817 382.908 122.95C384.141 124.083 385.658 124.65 387.458 124.65C390.058 124.65 391.908 123.533 393.008 121.3H400.558C399.758 123.967 398.224 126.167 395.958 127.9C393.691 129.6 390.908 130.45 387.608 130.45C384.941 130.45 382.541 129.867 380.408 128.7C378.308 127.5 376.658 125.817 375.458 123.65C374.291 121.483 373.708 118.983 373.708 116.15C373.708 113.283 374.291 110.767 375.458 108.6C376.624 106.433 378.258 104.767 380.358 103.6C382.458 102.433 384.874 101.85 387.608 101.85C390.241 101.85 392.591 102.417 394.658 103.55C396.758 104.683 398.374 106.3 399.508 108.4C400.674 110.467 401.258 112.85 401.258 115.55ZM394.008 113.55C393.974 111.75 393.324 110.317 392.058 109.25C390.791 108.15 389.241 107.6 387.408 107.6C385.674 107.6 384.208 108.133 383.008 109.2C381.841 110.233 381.124 111.683 380.858 113.55H394.008ZM416.481 116.1C416.481 113.333 417.048 110.883 418.181 108.75C419.348 106.583 420.914 104.9 422.881 103.7C424.848 102.5 427.014 101.9 429.381 101.9C431.348 101.9 433.081 102.283 434.581 103.05C436.114 103.783 437.348 104.733 438.281 105.9V102.3H445.331V143.2H438.281V126.2C437.348 127.4 436.098 128.4 434.531 129.2C432.964 130 431.198 130.4 429.231 130.4C426.898 130.4 424.748 129.8 422.781 128.6C420.848 127.367 419.314 125.667 418.181 123.5C417.048 121.333 416.481 118.867 416.481 116.1ZM438.281 116.15C438.281 114.45 437.931 112.983 437.231 111.75C436.531 110.517 435.614 109.583 434.481 108.95C433.381 108.317 432.198 108 430.931 108C429.698 108 428.514 108.317 427.381 108.95C426.281 109.583 425.381 110.517 424.681 111.75C423.981 112.95 423.631 114.4 423.631 116.1C423.631 117.8 423.981 119.283 424.681 120.55C425.381 121.783 426.281 122.717 427.381 123.35C428.514 123.983 429.698 124.3 430.931 124.3C432.198 124.3 433.381 123.983 434.481 123.35C435.614 122.717 436.531 121.783 437.231 120.55C437.931 119.317 438.281 117.85 438.281 116.15ZM478.318 102.3V130H471.268V126.5C470.368 127.7 469.184 128.65 467.718 129.35C466.284 130.017 464.718 130.35 463.018 130.35C460.851 130.35 458.934 129.9 457.268 129C455.601 128.067 454.284 126.717 453.318 124.95C452.384 123.15 451.918 121.017 451.918 118.55V102.3H458.918V117.55C458.918 119.75 459.468 121.45 460.568 122.65C461.668 123.817 463.168 124.4 465.068 124.4C467.001 124.4 468.518 123.817 469.618 122.65C470.718 121.45 471.268 119.75 471.268 117.55V102.3H478.318ZM483.424 116.05C483.424 113.25 483.974 110.767 485.074 108.6C486.208 106.433 487.724 104.767 489.624 103.6C491.558 102.433 493.708 101.85 496.074 101.85C498.141 101.85 499.941 102.267 501.474 103.1C503.041 103.933 504.291 104.983 505.224 106.25V102.3H512.274V130H505.224V125.95C504.324 127.25 503.074 128.333 501.474 129.2C499.908 130.033 498.091 130.45 496.024 130.45C493.691 130.45 491.558 129.85 489.624 128.65C487.724 127.45 486.208 125.767 485.074 123.6C483.974 121.4 483.424 118.883 483.424 116.05ZM505.224 116.15C505.224 114.45 504.891 113 504.224 111.8C503.558 110.567 502.658 109.633 501.524 109C500.391 108.333 499.174 108 497.874 108C496.574 108 495.374 108.317 494.274 108.95C493.174 109.583 492.274 110.517 491.574 111.75C490.908 112.95 490.574 114.383 490.574 116.05C490.574 117.717 490.908 119.183 491.574 120.45C492.274 121.683 493.174 122.633 494.274 123.3C495.408 123.967 496.608 124.3 497.874 124.3C499.174 124.3 500.391 123.983 501.524 123.35C502.658 122.683 503.558 121.75 504.224 120.55C504.891 119.317 505.224 117.85 505.224 116.15ZM526.111 93V130H519.111V93H526.111ZM536.577 99C535.344 99 534.31 98.6167 533.477 97.85C532.677 97.05 532.277 96.0667 532.277 94.9C532.277 93.7333 532.677 92.7667 533.477 92C534.31 91.2 535.344 90.8 536.577 90.8C537.81 90.8 538.827 91.2 539.627 92C540.46 92.7667 540.877 93.7333 540.877 94.9C540.877 96.0667 540.46 97.05 539.627 97.85C538.827 98.6167 537.81 99 536.577 99ZM540.027 102.3V130H533.027V102.3H540.027ZM555.093 108.05V121.45C555.093 122.383 555.31 123.067 555.743 123.5C556.21 123.9 556.976 124.1 558.043 124.1H561.293V130H556.893C550.993 130 548.043 127.133 548.043 121.4V108.05H544.743V102.3H548.043V95.45H555.093V102.3H561.293V108.05H555.093ZM592.828 102.3L575.678 143.1H568.228L574.228 129.3L563.128 102.3H570.978L578.128 121.65L585.378 102.3H592.828ZM38.8199 191.05C38.8199 188.25 39.3699 185.767 40.4699 183.6C41.6033 181.433 43.1199 179.767 45.0199 178.6C46.9533 177.433 49.1033 176.85 51.4699 176.85C53.5366 176.85 55.3366 177.267 56.8699 178.1C58.4366 178.933 59.6866 179.983 60.6199 181.25V177.3H67.6699V205H60.6199V200.95C59.7199 202.25 58.4699 203.333 56.8699 204.2C55.3033 205.033 53.4866 205.45 51.4199 205.45C49.0866 205.45 46.9533 204.85 45.0199 203.65C43.1199 202.45 41.6033 200.767 40.4699 198.6C39.3699 196.4 38.8199 193.883 38.8199 191.05ZM60.6199 191.15C60.6199 189.45 60.2866 188 59.6199 186.8C58.9533 185.567 58.0533 184.633 56.9199 184C55.7866 183.333 54.5699 183 53.2699 183C51.9699 183 50.7699 183.317 49.6699 183.95C48.5699 184.583 47.6699 185.517 46.9699 186.75C46.3033 187.95 45.9699 189.383 45.9699 191.05C45.9699 192.717 46.3033 194.183 46.9699 195.45C47.6699 196.683 48.5699 197.633 49.6699 198.3C50.8033 198.967 52.0033 199.3 53.2699 199.3C54.5699 199.3 55.7866 198.983 56.9199 198.35C58.0533 197.683 58.9533 196.75 59.6199 195.55C60.2866 194.317 60.6199 192.85 60.6199 191.15ZM89.8566 176.9C93.1566 176.9 95.8233 177.95 97.8566 180.05C99.89 182.117 100.907 185.017 100.907 188.75V205H93.9066V189.7C93.9066 187.5 93.3566 185.817 92.2566 184.65C91.1566 183.45 89.6566 182.85 87.7566 182.85C85.8233 182.85 84.29 183.45 83.1566 184.65C82.0566 185.817 81.5066 187.5 81.5066 189.7V205H74.5066V177.3H81.5066V180.75C82.44 179.55 83.6233 178.617 85.0566 177.95C86.5233 177.25 88.1233 176.9 89.8566 176.9ZM105.763 191.05C105.763 188.25 106.313 185.767 107.413 183.6C108.547 181.433 110.08 179.767 112.013 178.6C113.947 177.433 116.097 176.85 118.463 176.85C120.263 176.85 121.98 177.25 123.613 178.05C125.247 178.817 126.547 179.85 127.513 181.15V168H134.613V205H127.513V200.9C126.647 202.267 125.43 203.367 123.863 204.2C122.297 205.033 120.48 205.45 118.413 205.45C116.08 205.45 113.947 204.85 112.013 203.65C110.08 202.45 108.547 200.767 107.413 198.6C106.313 196.4 105.763 193.883 105.763 191.05ZM127.563 191.15C127.563 189.45 127.23 188 126.563 186.8C125.897 185.567 124.997 184.633 123.863 184C122.73 183.333 121.513 183 120.213 183C118.913 183 117.713 183.317 116.613 183.95C115.513 184.583 114.613 185.517 113.913 186.75C113.247 187.95 112.913 189.383 112.913 191.05C112.913 192.717 113.247 194.183 113.913 195.45C114.613 196.683 115.513 197.633 116.613 198.3C117.747 198.967 118.947 199.3 120.213 199.3C121.513 199.3 122.73 198.983 123.863 198.35C124.997 197.683 125.897 196.75 126.563 195.55C127.23 194.317 127.563 192.85 127.563 191.15ZM160.364 168V205H153.364V168H160.364ZM179.58 205.45C176.913 205.45 174.513 204.867 172.38 203.7C170.247 202.5 168.563 200.817 167.33 198.65C166.13 196.483 165.53 193.983 165.53 191.15C165.53 188.317 166.147 185.817 167.38 183.65C168.647 181.483 170.363 179.817 172.53 178.65C174.697 177.45 177.113 176.85 179.78 176.85C182.447 176.85 184.863 177.45 187.03 178.65C189.197 179.817 190.897 181.483 192.13 183.65C193.397 185.817 194.03 188.317 194.03 191.15C194.03 193.983 193.38 196.483 192.08 198.65C190.813 200.817 189.08 202.5 186.88 203.7C184.713 204.867 182.28 205.45 179.58 205.45ZM179.58 199.35C180.847 199.35 182.03 199.05 183.13 198.45C184.263 197.817 185.163 196.883 185.83 195.65C186.497 194.417 186.83 192.917 186.83 191.15C186.83 188.517 186.13 186.5 184.73 185.1C183.363 183.667 181.68 182.95 179.68 182.95C177.68 182.95 175.997 183.667 174.63 185.1C173.297 186.5 172.63 188.517 172.63 191.15C172.63 193.783 173.28 195.817 174.58 197.25C175.913 198.65 177.58 199.35 179.58 199.35ZM214.515 176.9C217.815 176.9 220.482 177.95 222.515 180.05C224.548 182.117 225.565 185.017 225.565 188.75V205H218.565V189.7C218.565 187.5 218.015 185.817 216.915 184.65C215.815 183.45 214.315 182.85 212.415 182.85C210.482 182.85 208.948 183.45 207.815 184.65C206.715 185.817 206.165 187.5 206.165 189.7V205H199.165V177.3H206.165V180.75C207.098 179.55 208.282 178.617 209.715 177.95C211.182 177.25 212.782 176.9 214.515 176.9ZM243.071 176.85C245.138 176.85 246.955 177.267 248.521 178.1C250.088 178.9 251.321 179.95 252.221 181.25V177.3H259.271V205.2C259.271 207.767 258.755 210.05 257.721 212.05C256.688 214.083 255.138 215.683 253.071 216.85C251.005 218.05 248.505 218.65 245.571 218.65C241.638 218.65 238.405 217.733 235.871 215.9C233.371 214.067 231.955 211.567 231.621 208.4H238.571C238.938 209.667 239.721 210.667 240.921 211.4C242.155 212.167 243.638 212.55 245.371 212.55C247.405 212.55 249.055 211.933 250.321 210.7C251.588 209.5 252.221 207.667 252.221 205.2V200.9C251.321 202.2 250.071 203.283 248.471 204.15C246.905 205.017 245.105 205.45 243.071 205.45C240.738 205.45 238.605 204.85 236.671 203.65C234.738 202.45 233.205 200.767 232.071 198.6C230.971 196.4 230.421 193.883 230.421 191.05C230.421 188.25 230.971 185.767 232.071 183.6C233.205 181.433 234.721 179.767 236.621 178.6C238.555 177.433 240.705 176.85 243.071 176.85ZM252.221 191.15C252.221 189.45 251.888 188 251.221 186.8C250.555 185.567 249.655 184.633 248.521 184C247.388 183.333 246.171 183 244.871 183C243.571 183 242.371 183.317 241.271 183.95C240.171 184.583 239.271 185.517 238.571 186.75C237.905 187.95 237.571 189.383 237.571 191.05C237.571 192.717 237.905 194.183 238.571 195.45C239.271 196.683 240.171 197.633 241.271 198.3C242.405 198.967 243.605 199.3 244.871 199.3C246.171 199.3 247.388 198.983 248.521 198.35C249.655 197.683 250.555 196.75 251.221 195.55C251.888 194.317 252.221 192.85 252.221 191.15ZM291.858 190.55C291.858 191.55 291.792 192.45 291.658 193.25H271.408C271.575 195.25 272.275 196.817 273.508 197.95C274.742 199.083 276.258 199.65 278.058 199.65C280.658 199.65 282.508 198.533 283.608 196.3H291.158C290.358 198.967 288.825 201.167 286.558 202.9C284.292 204.6 281.508 205.45 278.208 205.45C275.542 205.45 273.142 204.867 271.008 203.7C268.908 202.5 267.258 200.817 266.058 198.65C264.892 196.483 264.308 193.983 264.308 191.15C264.308 188.283 264.892 185.767 266.058 183.6C267.225 181.433 268.858 179.767 270.958 178.6C273.058 177.433 275.475 176.85 278.208 176.85C280.842 176.85 283.192 177.417 285.258 178.55C287.358 179.683 288.975 181.3 290.108 183.4C291.275 185.467 291.858 187.85 291.858 190.55ZM284.608 188.55C284.575 186.75 283.925 185.317 282.658 184.25C281.392 183.15 279.842 182.6 278.008 182.6C276.275 182.6 274.808 183.133 273.608 184.2C272.442 185.233 271.725 186.683 271.458 188.55H284.608ZM308.518 198.55L315.518 177.3H322.968L312.718 205H304.218L294.018 177.3H301.518L308.518 198.55ZM330.449 174C329.216 174 328.183 173.617 327.349 172.85C326.549 172.05 326.149 171.067 326.149 169.9C326.149 168.733 326.549 167.767 327.349 167C328.183 166.2 329.216 165.8 330.449 165.8C331.683 165.8 332.699 166.2 333.499 167C334.333 167.767 334.749 168.733 334.749 169.9C334.749 171.067 334.333 172.05 333.499 172.85C332.699 173.617 331.683 174 330.449 174ZM333.899 177.3V205H326.899V177.3H333.899ZM348.965 183.05V196.45C348.965 197.383 349.182 198.067 349.615 198.5C350.082 198.9 350.849 199.1 351.915 199.1H355.165V205H350.765C344.865 205 341.915 202.133 341.915 196.4V183.05H338.615V177.3H341.915V170.45H348.965V177.3H355.165V183.05H348.965ZM386.7 177.3L369.55 218.1H362.1L368.1 204.3L357 177.3H364.85L372 196.65L379.25 177.3H386.7ZM414.688 205.45C412.021 205.45 409.621 204.867 407.488 203.7C405.354 202.5 403.671 200.817 402.438 198.65C401.238 196.483 400.638 193.983 400.638 191.15C400.638 188.317 401.254 185.817 402.488 183.65C403.754 181.483 405.471 179.817 407.638 178.65C409.804 177.45 412.221 176.85 414.888 176.85C417.554 176.85 419.971 177.45 422.138 178.65C424.304 179.817 426.004 181.483 427.238 183.65C428.504 185.817 429.138 188.317 429.138 191.15C429.138 193.983 428.488 196.483 427.187 198.65C425.921 200.817 424.188 202.5 421.988 203.7C419.821 204.867 417.388 205.45 414.688 205.45ZM414.688 199.35C415.954 199.35 417.138 199.05 418.238 198.45C419.371 197.817 420.271 196.883 420.938 195.65C421.604 194.417 421.938 192.917 421.938 191.15C421.938 188.517 421.238 186.5 419.838 185.1C418.471 183.667 416.788 182.95 414.788 182.95C412.788 182.95 411.104 183.667 409.738 185.1C408.404 186.5 407.738 188.517 407.738 191.15C407.738 193.783 408.388 195.817 409.688 197.25C411.021 198.65 412.688 199.35 414.688 199.35ZM446.972 183.05H442.122V205H435.022V183.05H431.872V177.3H435.022V175.9C435.022 172.5 435.989 170 437.922 168.4C439.856 166.8 442.772 166.05 446.672 166.15V172.05C444.972 172.017 443.789 172.3 443.122 172.9C442.456 173.5 442.122 174.583 442.122 176.15V177.3H446.972V183.05ZM470.423 168V205H463.423V168H470.423ZM480.889 174C479.655 174 478.622 173.617 477.789 172.85C476.989 172.05 476.589 171.067 476.589 169.9C476.589 168.733 476.989 167.767 477.789 167C478.622 166.2 479.655 165.8 480.889 165.8C482.122 165.8 483.139 166.2 483.939 167C484.772 167.767 485.189 168.733 485.189 169.9C485.189 171.067 484.772 172.05 483.939 172.85C483.139 173.617 482.122 174 480.889 174ZM484.339 177.3V205H477.339V177.3H484.339ZM502.805 198.55L509.805 177.3H517.255L507.005 205H498.505L488.305 177.3H495.805L502.805 198.55ZM546.936 190.55C546.936 191.55 546.87 192.45 546.736 193.25H526.486C526.653 195.25 527.353 196.817 528.586 197.95C529.82 199.083 531.336 199.65 533.136 199.65C535.736 199.65 537.586 198.533 538.686 196.3H546.236C545.436 198.967 543.903 201.167 541.636 202.9C539.37 204.6 536.586 205.45 533.286 205.45C530.62 205.45 528.22 204.867 526.086 203.7C523.986 202.5 522.336 200.817 521.136 198.65C519.97 196.483 519.386 193.983 519.386 191.15C519.386 188.283 519.97 185.767 521.136 183.6C522.303 181.433 523.936 179.767 526.036 178.6C528.136 177.433 530.553 176.85 533.286 176.85C535.92 176.85 538.27 177.417 540.336 178.55C542.436 179.683 544.053 181.3 545.186 183.4C546.353 185.467 546.936 187.85 546.936 190.55ZM539.686 188.55C539.653 186.75 539.003 185.317 537.736 184.25C536.47 183.15 534.92 182.6 533.086 182.6C531.353 182.6 529.886 183.133 528.686 184.2C527.52 185.233 526.803 186.683 526.536 188.55H539.686ZM562.646 205.45C560.379 205.45 558.346 205.05 556.546 204.25C554.746 203.417 553.312 202.3 552.246 200.9C551.212 199.5 550.646 197.95 550.546 196.25H557.596C557.729 197.317 558.246 198.2 559.146 198.9C560.079 199.6 561.229 199.95 562.596 199.95C563.929 199.95 564.962 199.683 565.696 199.15C566.462 198.617 566.846 197.933 566.846 197.1C566.846 196.2 566.379 195.533 565.446 195.1C564.546 194.633 563.096 194.133 561.096 193.6C559.029 193.1 557.329 192.583 555.996 192.05C554.696 191.517 553.562 190.7 552.596 189.6C551.662 188.5 551.196 187.017 551.196 185.15C551.196 183.617 551.629 182.217 552.496 180.95C553.396 179.683 554.662 178.683 556.296 177.95C557.962 177.217 559.912 176.85 562.146 176.85C565.446 176.85 568.079 177.683 570.046 179.35C572.012 180.983 573.096 183.2 573.296 186H566.596C566.496 184.9 566.029 184.033 565.196 183.4C564.396 182.733 563.312 182.4 561.946 182.4C560.679 182.4 559.696 182.633 558.996 183.1C558.329 183.567 557.996 184.217 557.996 185.05C557.996 185.983 558.462 186.7 559.396 187.2C560.329 187.667 561.779 188.15 563.746 188.65C565.746 189.15 567.396 189.667 568.696 190.2C569.996 190.733 571.112 191.567 572.046 192.7C573.012 193.8 573.512 195.267 573.546 197.1C573.546 198.7 573.096 200.133 572.196 201.4C571.329 202.667 570.062 203.667 568.396 204.4C566.762 205.1 564.846 205.45 562.646 205.45ZM582.392 205.35C581.125 205.35 580.075 204.967 579.242 204.2C578.442 203.4 578.042 202.417 578.042 201.25C578.042 200.083 578.442 199.117 579.242 198.35C580.075 197.55 581.125 197.15 582.392 197.15C583.625 197.15 584.642 197.55 585.442 198.35C586.242 199.117 586.642 200.083 586.642 201.25C586.642 202.417 586.242 203.4 585.442 204.2C584.642 204.967 583.625 205.35 582.392 205.35Z" fill="white"/>
<path d="M30.2986 20.1V25.75H20.9986V55H13.9986V25.75H4.69863V20.1H30.2986ZM42.4061 31.6C43.3061 30.1333 44.4727 28.9833 45.9061 28.15C47.3727 27.3167 49.0394 26.9 50.9061 26.9V34.25H49.0561C46.8561 34.25 45.1894 34.7667 44.0561 35.8C42.9561 36.8333 42.4061 38.6333 42.4061 41.2V55H35.4061V27.3H42.4061V31.6ZM67.9209 55.45C65.2542 55.45 62.8542 54.8667 60.7209 53.7C58.5876 52.5 56.9042 50.8167 55.6709 48.65C54.4709 46.4833 53.8709 43.9833 53.8709 41.15C53.8709 38.3167 54.4876 35.8167 55.7209 33.65C56.9876 31.4833 58.7042 29.8167 60.8709 28.65C63.0376 27.45 65.4542 26.85 68.1209 26.85C70.7876 26.85 73.2042 27.45 75.3709 28.65C77.5376 29.8167 79.2376 31.4833 80.4709 33.65C81.7376 35.8167 82.3709 38.3167 82.3709 41.15C82.3709 43.9833 81.7209 46.4833 80.4209 48.65C79.1542 50.8167 77.4209 52.5 75.2209 53.7C73.0542 54.8667 70.6209 55.45 67.9209 55.45ZM67.9209 49.35C69.1876 49.35 70.3709 49.05 71.4709 48.45C72.6042 47.8167 73.5042 46.8833 74.1709 45.65C74.8376 44.4167 75.1709 42.9167 75.1709 41.15C75.1709 38.5167 74.4709 36.5 73.0709 35.1C71.7042 33.6667 70.0209 32.95 68.0209 32.95C66.0209 32.95 64.3376 33.6667 62.9709 35.1C61.6376 36.5 60.9709 38.5167 60.9709 41.15C60.9709 43.7833 61.6209 45.8167 62.9209 47.25C64.2542 48.65 65.9209 49.35 67.9209 49.35ZM99.8057 55.45C97.139 55.45 94.739 54.8667 92.6057 53.7C90.4723 52.5 88.789 50.8167 87.5557 48.65C86.3557 46.4833 85.7557 43.9833 85.7557 41.15C85.7557 38.3167 86.3723 35.8167 87.6057 33.65C88.8723 31.4833 90.589 29.8167 92.7557 28.65C94.9223 27.45 97.339 26.85 100.006 26.85C102.672 26.85 105.089 27.45 107.256 28.65C109.422 29.8167 111.122 31.4833 112.356 33.65C113.622 35.8167 114.256 38.3167 114.256 41.15C114.256 43.9833 113.606 46.4833 112.306 48.65C111.039 50.8167 109.306 52.5 107.106 53.7C104.939 54.8667 102.506 55.45 99.8057 55.45ZM99.8057 49.35C101.072 49.35 102.256 49.05 103.356 48.45C104.489 47.8167 105.389 46.8833 106.056 45.65C106.722 44.4167 107.056 42.9167 107.056 41.15C107.056 38.5167 106.356 36.5 104.956 35.1C103.589 33.6667 101.906 32.95 99.9057 32.95C97.9057 32.95 96.2223 33.6667 94.8557 35.1C93.5223 36.5 92.8557 38.5167 92.8557 41.15C92.8557 43.7833 93.5057 45.8167 94.8057 47.25C96.139 48.65 97.8057 49.35 99.8057 49.35ZM126.39 49.45H137.89V55H119.39V20.1H126.39V49.45ZM145.89 24C144.656 24 143.623 23.6167 142.79 22.85C141.99 22.05 141.59 21.0667 141.59 19.9C141.59 18.7333 141.99 17.7667 142.79 17C143.623 16.2 144.656 15.8 145.89 15.8C147.123 15.8 148.14 16.2 148.94 17C149.773 17.7667 150.19 18.7333 150.19 19.9C150.19 21.0667 149.773 22.05 148.94 22.85C148.14 23.6167 147.123 24 145.89 24ZM149.34 27.3V55H142.34V27.3H149.34ZM168.956 33.05H164.106V55H157.006V33.05H153.856V27.3H157.006V25.9C157.006 22.5 157.972 20 159.906 18.4C161.839 16.8 164.756 16.05 168.656 16.15V22.05C166.956 22.0167 165.772 22.3 165.106 22.9C164.439 23.5 164.106 24.5833 164.106 26.15V27.3H168.956V33.05ZM199.242 40.55C199.242 41.55 199.175 42.45 199.042 43.25H178.792C178.959 45.25 179.659 46.8167 180.892 47.95C182.125 49.0833 183.642 49.65 185.442 49.65C188.042 49.65 189.892 48.5333 190.992 46.3H198.542C197.742 48.9667 196.209 51.1667 193.942 52.9C191.675 54.6 188.892 55.45 185.592 55.45C182.925 55.45 180.525 54.8667 178.392 53.7C176.292 52.5 174.642 50.8167 173.442 48.65C172.275 46.4833 171.692 43.9833 171.692 41.15C171.692 38.2833 172.275 35.7667 173.442 33.6C174.609 31.4333 176.242 29.7667 178.342 28.6C180.442 27.4333 182.859 26.85 185.592 26.85C188.225 26.85 190.575 27.4167 192.642 28.55C194.742 29.6833 196.359 31.3 197.492 33.4C198.659 35.4667 199.242 37.85 199.242 40.55ZM191.992 38.55C191.959 36.75 191.309 35.3167 190.042 34.25C188.775 33.15 187.225 32.6 185.392 32.6C183.659 32.6 182.192 33.1333 180.992 34.2C179.825 35.2333 179.109 36.6833 178.842 38.55H191.992Z" fill="white"/>
<path d="M54 61L113 61" stroke="#F6DBA0" stroke-width="2"/>
<rect x="221" y="255" width="184" height="42" rx="21" fill="white"/>
<path d="M246.328 282.5V269.54H254.131V271.709H248.497V274.94H253.051V277.1H248.497V282.5H246.328ZM255.93 271.304V269.315H258.099V271.304H255.93ZM255.93 282.5V272.78H258.099V282.5H255.93ZM267.518 282.5V277.82C267.518 277.514 267.497 277.175 267.455 276.803C267.413 276.431 267.314 276.074 267.158 275.732C267.008 275.384 266.78 275.099 266.474 274.877C266.174 274.655 265.766 274.544 265.25 274.544C264.974 274.544 264.701 274.589 264.431 274.679C264.161 274.769 263.915 274.925 263.693 275.147C263.477 275.363 263.303 275.663 263.171 276.047C263.039 276.425 262.973 276.911 262.973 277.505L261.686 276.956C261.686 276.128 261.845 275.378 262.163 274.706C262.487 274.034 262.961 273.5 263.585 273.104C264.209 272.702 264.977 272.501 265.889 272.501C266.609 272.501 267.203 272.621 267.671 272.861C268.139 273.101 268.511 273.407 268.787 273.779C269.063 274.151 269.267 274.547 269.399 274.967C269.531 275.387 269.615 275.786 269.651 276.164C269.693 276.536 269.714 276.839 269.714 277.073V282.5H267.518ZM260.777 282.5V272.78H262.712V275.795H262.973V282.5H260.777ZM275.802 282.77C274.908 282.77 274.128 282.545 273.462 282.095C272.796 281.645 272.28 281.033 271.914 280.259C271.548 279.485 271.365 278.612 271.365 277.64C271.365 276.656 271.548 275.78 271.914 275.012C272.286 274.238 272.811 273.629 273.489 273.185C274.167 272.735 274.965 272.51 275.883 272.51C276.807 272.51 277.581 272.735 278.205 273.185C278.835 273.629 279.312 274.238 279.636 275.012C279.96 275.786 280.122 276.662 280.122 277.64C280.122 278.606 279.96 279.479 279.636 280.259C279.312 281.033 278.829 281.645 278.187 282.095C277.545 282.545 276.75 282.77 275.802 282.77ZM276.135 280.826C276.717 280.826 277.185 280.694 277.539 280.43C277.899 280.16 278.16 279.785 278.322 279.305C278.49 278.825 278.574 278.27 278.574 277.64C278.574 277.004 278.49 276.449 278.322 275.975C278.16 275.495 277.905 275.123 277.557 274.859C277.209 274.589 276.759 274.454 276.207 274.454C275.625 274.454 275.145 274.598 274.767 274.886C274.389 275.168 274.11 275.552 273.93 276.038C273.75 276.518 273.66 277.052 273.66 277.64C273.66 278.234 273.747 278.774 273.921 279.26C274.101 279.74 274.374 280.121 274.74 280.403C275.106 280.685 275.571 280.826 276.135 280.826ZM278.574 282.5V275.678H278.304V269.54H280.491V282.5H278.574ZM290.91 282.77C289.938 282.77 289.089 282.551 288.363 282.113C287.637 281.675 287.073 281.072 286.671 280.304C286.275 279.53 286.077 278.642 286.077 277.64C286.077 276.62 286.281 275.726 286.689 274.958C287.097 274.19 287.664 273.59 288.39 273.158C289.116 272.726 289.956 272.51 290.91 272.51C291.888 272.51 292.74 272.729 293.466 273.167C294.192 273.605 294.756 274.211 295.158 274.985C295.56 275.753 295.761 276.638 295.761 277.64C295.761 278.648 295.557 279.539 295.149 280.313C294.747 281.081 294.183 281.684 293.457 282.122C292.731 282.554 291.882 282.77 290.91 282.77ZM290.91 280.736C291.774 280.736 292.416 280.448 292.836 279.872C293.256 279.296 293.466 278.552 293.466 277.64C293.466 276.698 293.253 275.948 292.827 275.39C292.401 274.826 291.762 274.544 290.91 274.544C290.328 274.544 289.848 274.676 289.47 274.94C289.098 275.198 288.822 275.561 288.642 276.029C288.462 276.491 288.372 277.028 288.372 277.64C288.372 278.582 288.585 279.335 289.011 279.899C289.443 280.457 290.076 280.736 290.91 280.736ZM301.389 282.779C300.669 282.779 300.075 282.659 299.607 282.419C299.139 282.179 298.767 281.873 298.491 281.501C298.215 281.129 298.011 280.733 297.879 280.313C297.747 279.893 297.66 279.497 297.618 279.125C297.582 278.747 297.564 278.441 297.564 278.207V272.78H299.76V277.46C299.76 277.76 299.781 278.099 299.823 278.477C299.865 278.849 299.961 279.209 300.111 279.557C300.267 279.899 300.495 280.181 300.795 280.403C301.101 280.625 301.512 280.736 302.028 280.736C302.304 280.736 302.577 280.691 302.847 280.601C303.117 280.511 303.36 280.358 303.576 280.142C303.798 279.92 303.975 279.617 304.107 279.233C304.239 278.849 304.305 278.363 304.305 277.775L305.592 278.324C305.592 279.152 305.43 279.902 305.106 280.574C304.788 281.246 304.317 281.783 303.693 282.185C303.069 282.581 302.301 282.779 301.389 282.779ZM304.566 282.5V279.485H304.305V272.78H306.483V282.5H304.566ZM314.709 282.5C314.067 282.62 313.437 282.671 312.819 282.653C312.207 282.641 311.658 282.53 311.172 282.32C310.686 282.104 310.317 281.765 310.065 281.303C309.843 280.883 309.726 280.454 309.714 280.016C309.702 279.578 309.696 279.083 309.696 278.531V270.08H311.856V278.405C311.856 278.795 311.859 279.137 311.865 279.431C311.877 279.725 311.94 279.965 312.054 280.151C312.27 280.511 312.615 280.712 313.089 280.754C313.563 280.796 314.103 280.772 314.709 280.682V282.5ZM307.932 274.481V272.78H314.709V274.481H307.932ZM322.473 282.5L319.503 272.762L321.627 272.78L323.526 279.017L325.452 272.78H327.279L329.196 279.017L331.104 272.78H333.228L330.258 282.5H328.566L326.361 275.813L324.165 282.5H322.473ZM341.575 282.5V277.82C341.575 277.514 341.554 277.175 341.512 276.803C341.47 276.431 341.371 276.074 341.215 275.732C341.065 275.384 340.837 275.099 340.531 274.877C340.231 274.655 339.823 274.544 339.307 274.544C339.031 274.544 338.758 274.589 338.488 274.679C338.218 274.769 337.972 274.925 337.75 275.147C337.534 275.363 337.36 275.663 337.228 276.047C337.096 276.425 337.03 276.911 337.03 277.505L335.743 276.956C335.743 276.128 335.902 275.378 336.22 274.706C336.544 274.034 337.018 273.5 337.642 273.104C338.266 272.702 339.034 272.501 339.946 272.501C340.666 272.501 341.26 272.621 341.728 272.861C342.196 273.101 342.568 273.407 342.844 273.779C343.12 274.151 343.324 274.547 343.456 274.967C343.588 275.387 343.672 275.786 343.708 276.164C343.75 276.536 343.771 276.839 343.771 277.073V282.5H341.575ZM334.834 282.5V269.54H336.769V276.362H337.03V282.5H334.834ZM347.397 286.82L349.269 281.681L349.305 283.193L345.066 272.78H347.325L350.331 280.484H349.755L352.68 272.78H354.849L349.431 286.82H347.397Z" fill="#007377"/>
<rect x="397" y="261" width="30" height="30" rx="15" transform="rotate(90 397 261)" fill="#007377"/>
<g clip-path="url(#clip0_2_346)">
<path d="M386 276.5L380.51 282L379 280.556L383.049 276.5L379 272.444L380.51 271L386 276.5Z" fill="white"/>
</g>
</g>
<defs>
<filter id="filter0_d_2_346" x="-3" y="0" width="632" height="305" filterUnits="userSpaceOnUse" color-interpolation-filters="sRGB">
<feFlood flood-opacity="0" result="BackgroundImageFix"/>
<feColorMatrix in="SourceAlpha" type="matrix" values="0 0 0 0 0 0 0 0 0 0 0 0 0 0 0 0 0 0 127 0" result="hardAlpha"/>
<feOffset dy="4"/>
<feGaussianBlur stdDeviation="2"/>
<feComposite in2="hardAlpha" operator="out"/>
<feColorMatrix type="matrix" values="0 0 0 0 0 0 0 0 0 0 0 0 0 0 0 0 0 0 0.25 0"/>
<feBlend mode="normal" in2="BackgroundImageFix" result="effect1_dropShadow_2_346"/>
<feBlend mode="normal" in="SourceGraphic" in2="effect1_dropShadow_2_346" result="shape"/>
</filter>
<clipPath id="clip0_2_346">
<rect width="10" height="10" fill="white" transform="translate(387 271) rotate(90)"/>
</clipPath>
</defs>
</svg>
