<svg width="418" height="450" viewBox="0 0 418 450" fill="none" xmlns="http://www.w3.org/2000/svg">
<rect x="0.833344" y="0.5" width="416.333" height="449" rx="19.5" stroke="#C4C4C4"/>
<path d="M199.362 126.362C198.249 125.308 196.827 124.64 195.305 124.458C193.782 124.275 192.242 124.587 190.911 125.348L188.129 122.775C187.358 122.037 186.381 121.551 185.328 121.383C184.274 121.214 183.195 121.37 182.232 121.83L176.738 116.581C175.653 115.56 174.22 114.991 172.731 114.991C171.241 114.991 169.808 115.56 168.724 116.581C167.831 117.439 167.255 118.573 167.09 119.799C166.925 121.026 167.18 122.272 167.814 123.335L178.12 139.083C178.279 139.325 178.496 139.523 178.75 139.661L189.756 145.785V148.252C189.292 148.252 188.847 148.437 188.519 148.765C188.191 149.093 188.006 149.538 188.006 150.002V162.25C188.006 162.715 188.191 163.16 188.519 163.488C188.847 163.816 189.292 164 189.756 164H205.504C205.968 164 206.413 163.816 206.741 163.488C207.07 163.16 207.254 162.715 207.254 162.25V135.811C207.252 135.074 207.096 134.346 206.794 133.674C206.493 133.002 206.053 132.4 205.504 131.909L199.362 126.362ZM180.78 136.861L170.771 121.533C170.549 121.153 170.463 120.709 170.526 120.273C170.59 119.838 170.8 119.437 171.121 119.136C171.55 118.727 172.12 118.499 172.713 118.499C173.306 118.499 173.876 118.727 174.306 119.136L179.73 124.298C179.275 125.248 179.135 126.318 179.33 127.354C179.525 128.389 180.045 129.335 180.815 130.054L185.907 134.814L188.304 132.259L183.229 127.517C183.078 127.376 182.957 127.206 182.874 127.016C182.792 126.827 182.749 126.622 182.749 126.415C182.749 126.208 182.792 126.003 182.874 125.814C182.957 125.624 183.078 125.453 183.229 125.313C183.569 124.996 184.016 124.821 184.481 124.821C184.945 124.821 185.392 124.996 185.732 125.313L189.599 128.812C189.923 129.117 190.352 129.287 190.797 129.287C191.243 129.287 191.671 129.117 191.996 128.812C192.667 128.169 193.56 127.811 194.489 127.811C195.418 127.811 196.312 128.169 196.983 128.812L203.194 134.394C203.376 134.558 203.521 134.757 203.62 134.98C203.72 135.203 203.771 135.445 203.772 135.689V148.252H193.256V144.753C193.253 144.441 193.168 144.135 193.008 143.868C192.848 143.6 192.619 143.38 192.346 143.23L180.78 136.861ZM203.754 160.501H191.506V151.752H203.754V160.501Z" fill="#F6DBA0"/>
<path d="M249.248 116.616C248.164 115.595 246.731 115.026 245.241 115.026C243.752 115.026 242.318 115.595 241.234 116.616L235.722 121.865C234.764 121.406 233.688 121.249 232.639 121.415C231.589 121.581 230.614 122.061 229.843 122.793L227.043 125.382C225.724 124.625 224.197 124.309 222.686 124.482C221.174 124.656 219.758 125.308 218.644 126.345L212.503 131.909C211.954 132.4 211.514 133.001 211.212 133.674C210.911 134.346 210.754 135.074 210.753 135.811V162.25C210.753 162.714 210.937 163.159 211.265 163.487C211.594 163.816 212.039 164 212.503 164H228.251C228.715 164 229.16 163.816 229.488 163.487C229.816 163.159 230.001 162.714 230.001 162.25V150.002C230.001 149.538 229.816 149.093 229.488 148.764C229.16 148.436 228.715 148.252 228.251 148.252V145.785L239.274 139.73C239.529 139.593 239.745 139.395 239.904 139.153L250.246 123.282C250.85 122.22 251.08 120.986 250.899 119.777C250.718 118.568 250.137 117.455 249.248 116.616ZM226.501 160.5H214.253V151.751H226.501V160.5ZM247.288 121.445L237.227 136.878L225.679 143.213C225.399 143.361 225.165 143.583 225.002 143.854C224.839 144.125 224.752 144.436 224.751 144.752V148.252H214.253V135.811C214.253 135.567 214.305 135.325 214.404 135.102C214.504 134.879 214.649 134.68 214.83 134.516L221.077 128.899C221.743 128.268 222.626 127.916 223.544 127.916C224.462 127.916 225.345 128.268 226.011 128.899C226.336 129.204 226.764 129.374 227.21 129.374C227.655 129.374 228.084 129.204 228.408 128.899L232.293 125.295C232.455 125.131 232.649 125.001 232.862 124.912C233.075 124.823 233.304 124.777 233.535 124.777C233.766 124.777 233.995 124.823 234.208 124.912C234.421 125.001 234.615 125.131 234.777 125.295C234.926 125.435 235.045 125.605 235.126 125.793C235.207 125.981 235.249 126.184 235.249 126.388C235.249 126.593 235.207 126.796 235.126 126.984C235.045 127.172 234.926 127.341 234.777 127.482L229.686 132.241L232.083 134.796L237.192 130.019C237.955 129.299 238.47 128.355 238.662 127.324C238.853 126.292 238.713 125.226 238.26 124.28L243.684 119.031C244.112 118.627 244.679 118.402 245.267 118.402C245.856 118.402 246.422 118.627 246.851 119.031C247.193 119.319 247.425 119.718 247.504 120.159C247.584 120.6 247.508 121.055 247.288 121.445Z" fill="#F6DBA0"/>
<path d="M233.063 104.507H237V101.008H234.568C235.398 98.1932 235.463 95.2079 234.756 92.3598C234.049 89.5116 232.594 86.9037 230.543 84.8048C229.061 83.2853 227.289 82.0781 225.333 81.2546C223.376 80.4312 221.275 80.0081 219.152 80.0104C215.448 79.9992 211.856 81.2871 209.003 83.65C205.923 81.1063 202.001 79.8116 198.012 80.0222C194.023 80.2328 190.258 81.9334 187.464 84.7873C185.409 86.8879 183.953 89.4988 183.246 92.3504C182.538 95.2019 182.605 98.1907 183.439 101.008H179.257V104.507H184.944C185.634 105.732 186.481 106.861 187.464 107.867L207.761 128.479C207.924 128.646 208.119 128.778 208.333 128.869C208.548 128.959 208.779 129.006 209.012 129.006C209.245 129.006 209.476 128.959 209.691 128.869C209.906 128.778 210.1 128.646 210.263 128.479L230.561 107.867C231.537 106.86 232.378 105.731 233.063 104.507ZM189.966 87.2545C191.124 86.0688 192.508 85.1267 194.036 84.4835C195.564 83.8403 197.206 83.5089 198.863 83.5089C200.521 83.5089 202.162 83.8403 203.69 84.4835C205.218 85.1267 206.602 86.0688 207.761 87.2545C207.924 87.4212 208.119 87.5536 208.333 87.644C208.548 87.7344 208.779 87.781 209.012 87.781C209.245 87.781 209.476 87.7344 209.691 87.644C209.906 87.5536 210.1 87.4212 210.263 87.2545C211.42 86.0685 212.802 85.1261 214.329 84.483C215.856 83.8399 217.496 83.509 219.152 83.51C220.809 83.509 222.449 83.8399 223.975 84.483C225.502 85.1261 226.884 86.0685 228.041 87.2545C229.781 89.035 230.972 91.2775 231.475 93.7155C231.977 96.1535 231.769 98.6846 230.876 101.008H219.502C219.272 101.006 219.043 101.051 218.83 101.138C218.617 101.225 218.423 101.353 218.26 101.515L214.253 105.54L203.247 94.5161C202.919 94.1902 202.475 94.0073 202.013 94.0073C201.551 94.0073 201.107 94.1902 200.779 94.5161L194.288 101.008H187.131C186.237 98.6846 186.029 96.1535 186.532 93.7155C187.034 91.2775 188.226 89.035 189.966 87.2545ZM209.003 124.752L189.966 105.417C189.686 105.12 189.406 104.822 189.161 104.507H195.005C195.235 104.509 195.464 104.465 195.677 104.377C195.89 104.29 196.084 104.162 196.247 104L202.004 98.2257L213.01 109.232C213.338 109.558 213.782 109.741 214.244 109.741C214.706 109.741 215.15 109.558 215.478 109.232L220.219 104.507H228.846C228.601 104.822 228.321 105.12 228.041 105.417L209.003 124.752Z" fill="#F6DBA0"/>
<path d="M244 101.008H240.5V104.508H244V101.008Z" fill="#F6DBA0"/>
<path d="M175.758 101.008H172.258V104.508H175.758V101.008Z" fill="#F6DBA0"/>
<path d="M94.5073 237H90.3073L80.7973 222.63V237H76.5973V216.03H80.7973L90.3073 230.43V216.03H94.5073V237ZM114.348 220.38V237H110.118V234.9C109.578 235.62 108.868 236.19 107.988 236.61C107.128 237.01 106.188 237.21 105.168 237.21C103.868 237.21 102.718 236.94 101.718 236.4C100.718 235.84 99.9279 235.03 99.3479 233.97C98.7879 232.89 98.5079 231.61 98.5079 230.13V220.38H102.708V229.53C102.708 230.85 103.038 231.87 103.698 232.59C104.358 233.29 105.258 233.64 106.398 233.64C107.558 233.64 108.468 233.29 109.128 232.59C109.788 231.87 110.118 230.85 110.118 229.53V220.38H114.348ZM123.382 223.83V231.87C123.382 232.43 123.512 232.84 123.772 233.1C124.052 233.34 124.512 233.46 125.152 233.46H127.102V237H124.462C120.922 237 119.152 235.28 119.152 231.84V223.83H117.172V220.38H119.152V216.27H123.382V220.38H127.102V223.83H123.382ZM134.323 222.96C134.863 222.08 135.563 221.39 136.423 220.89C137.303 220.39 138.303 220.14 139.423 220.14V224.55H138.313C136.993 224.55 135.993 224.86 135.313 225.48C134.653 226.1 134.323 227.18 134.323 228.72V237H130.123V220.38H134.323V222.96ZM144.382 218.4C143.642 218.4 143.022 218.17 142.522 217.71C142.042 217.23 141.802 216.64 141.802 215.94C141.802 215.24 142.042 214.66 142.522 214.2C143.022 213.72 143.642 213.48 144.382 213.48C145.122 213.48 145.732 213.72 146.212 214.2C146.712 214.66 146.962 215.24 146.962 215.94C146.962 216.64 146.712 217.23 146.212 217.71C145.732 218.17 145.122 218.4 144.382 218.4ZM146.452 220.38V237H142.252V220.38H146.452ZM155.491 223.83V231.87C155.491 232.43 155.621 232.84 155.881 233.1C156.161 233.34 156.621 233.46 157.261 233.46H159.211V237H156.571C153.031 237 151.261 235.28 151.261 231.84V223.83H149.281V220.38H151.261V216.27H155.491V220.38H159.211V223.83H155.491ZM164.362 218.4C163.622 218.4 163.002 218.17 162.502 217.71C162.022 217.23 161.782 216.64 161.782 215.94C161.782 215.24 162.022 214.66 162.502 214.2C163.002 213.72 163.622 213.48 164.362 213.48C165.102 213.48 165.712 213.72 166.192 214.2C166.692 214.66 166.942 215.24 166.942 215.94C166.942 216.64 166.692 217.23 166.192 217.71C165.712 218.17 165.102 218.4 164.362 218.4ZM166.432 220.38V237H162.232V220.38H166.432ZM177.962 237.27C176.362 237.27 174.922 236.92 173.642 236.22C172.362 235.5 171.352 234.49 170.612 233.19C169.892 231.89 169.532 230.39 169.532 228.69C169.532 226.99 169.902 225.49 170.642 224.19C171.402 222.89 172.432 221.89 173.732 221.19C175.032 220.47 176.482 220.11 178.082 220.11C179.682 220.11 181.132 220.47 182.432 221.19C183.732 221.89 184.752 222.89 185.492 224.19C186.252 225.49 186.632 226.99 186.632 228.69C186.632 230.39 186.242 231.89 185.462 233.19C184.702 234.49 183.662 235.5 182.342 236.22C181.042 236.92 179.582 237.27 177.962 237.27ZM177.962 233.61C178.722 233.61 179.432 233.43 180.092 233.07C180.772 232.69 181.312 232.13 181.712 231.39C182.112 230.65 182.312 229.75 182.312 228.69C182.312 227.11 181.892 225.9 181.052 225.06C180.232 224.2 179.222 223.77 178.022 223.77C176.822 223.77 175.812 224.2 174.992 225.06C174.192 225.9 173.792 227.11 173.792 228.69C173.792 230.27 174.182 231.49 174.962 232.35C175.762 233.19 176.762 233.61 177.962 233.61ZM198.923 220.14C200.903 220.14 202.503 220.77 203.723 222.03C204.943 223.27 205.553 225.01 205.553 227.25V237H201.353V227.82C201.353 226.5 201.023 225.49 200.363 224.79C199.703 224.07 198.803 223.71 197.663 223.71C196.503 223.71 195.583 224.07 194.903 224.79C194.243 225.49 193.913 226.5 193.913 227.82V237H189.713V220.38H193.913V222.45C194.473 221.73 195.183 221.17 196.043 220.77C196.923 220.35 197.883 220.14 198.923 220.14ZM208.467 228.63C208.467 226.95 208.797 225.46 209.457 224.16C210.137 222.86 211.047 221.86 212.187 221.16C213.347 220.46 214.637 220.11 216.057 220.11C217.297 220.11 218.377 220.36 219.297 220.86C220.237 221.36 220.987 221.99 221.547 222.75V220.38H225.777V237H221.547V234.57C221.007 235.35 220.257 236 219.297 236.52C218.357 237.02 217.267 237.27 216.027 237.27C214.627 237.27 213.347 236.91 212.187 236.19C211.047 235.47 210.137 234.46 209.457 233.16C208.797 231.84 208.467 230.33 208.467 228.63ZM221.547 228.69C221.547 227.67 221.347 226.8 220.947 226.08C220.547 225.34 220.007 224.78 219.327 224.4C218.647 224 217.917 223.8 217.137 223.8C216.357 223.8 215.637 223.99 214.977 224.37C214.317 224.75 213.777 225.31 213.357 226.05C212.957 226.77 212.757 227.63 212.757 228.63C212.757 229.63 212.957 230.51 213.357 231.27C213.777 232.01 214.317 232.58 214.977 232.98C215.657 233.38 216.377 233.58 217.137 233.58C217.917 233.58 218.647 233.39 219.327 233.01C220.007 232.61 220.547 232.05 220.947 231.33C221.347 230.59 221.547 229.71 221.547 228.69ZM234.079 214.8V237H229.879V214.8H234.079ZM262.747 216.06V237H258.547V228.09H249.577V237H245.377V216.06H249.577V224.67H258.547V216.06H262.747ZM282.331 228.33C282.331 228.93 282.291 229.47 282.211 229.95H270.061C270.161 231.15 270.581 232.09 271.321 232.77C272.061 233.45 272.971 233.79 274.051 233.79C275.611 233.79 276.721 233.12 277.381 231.78H281.911C281.431 233.38 280.511 234.7 279.151 235.74C277.791 236.76 276.121 237.27 274.141 237.27C272.541 237.27 271.101 236.92 269.821 236.22C268.561 235.5 267.571 234.49 266.851 233.19C266.151 231.89 265.801 230.39 265.801 228.69C265.801 226.97 266.151 225.46 266.851 224.16C267.551 222.86 268.531 221.86 269.791 221.16C271.051 220.46 272.501 220.11 274.141 220.11C275.721 220.11 277.131 220.45 278.371 221.13C279.631 221.81 280.601 222.78 281.281 224.04C281.981 225.28 282.331 226.71 282.331 228.33ZM277.981 227.13C277.961 226.05 277.571 225.19 276.811 224.55C276.051 223.89 275.121 223.56 274.021 223.56C272.981 223.56 272.101 223.88 271.381 224.52C270.681 225.14 270.251 226.01 270.091 227.13H277.981ZM284.316 228.63C284.316 226.95 284.646 225.46 285.306 224.16C285.986 222.86 286.896 221.86 288.036 221.16C289.196 220.46 290.486 220.11 291.906 220.11C293.146 220.11 294.226 220.36 295.146 220.86C296.086 221.36 296.836 221.99 297.396 222.75V220.38H301.626V237H297.396V234.57C296.856 235.35 296.106 236 295.146 236.52C294.206 237.02 293.116 237.27 291.876 237.27C290.476 237.27 289.196 236.91 288.036 236.19C286.896 235.47 285.986 234.46 285.306 233.16C284.646 231.84 284.316 230.33 284.316 228.63ZM297.396 228.69C297.396 227.67 297.196 226.8 296.796 226.08C296.396 225.34 295.856 224.78 295.176 224.4C294.496 224 293.766 223.8 292.986 223.8C292.206 223.8 291.486 223.99 290.826 224.37C290.166 224.75 289.626 225.31 289.206 226.05C288.806 226.77 288.606 227.63 288.606 228.63C288.606 229.63 288.806 230.51 289.206 231.27C289.626 232.01 290.166 232.58 290.826 232.98C291.506 233.38 292.226 233.58 292.986 233.58C293.766 233.58 294.496 233.39 295.176 233.01C295.856 232.61 296.396 232.05 296.796 231.33C297.196 230.59 297.396 229.71 297.396 228.69ZM309.928 214.8V237H305.728V214.8H309.928ZM318.968 223.83V231.87C318.968 232.43 319.098 232.84 319.358 233.1C319.638 233.34 320.098 233.46 320.738 233.46H322.688V237H320.048C316.508 237 314.738 235.28 314.738 231.84V223.83H312.758V220.38H314.738V216.27H318.968V220.38H322.688V223.83H318.968ZM335.069 220.14C336.329 220.14 337.449 220.42 338.429 220.98C339.409 221.52 340.169 222.33 340.709 223.41C341.269 224.47 341.549 225.75 341.549 227.25V237H337.349V227.82C337.349 226.5 337.019 225.49 336.359 224.79C335.699 224.07 334.799 223.71 333.659 223.71C332.499 223.71 331.579 224.07 330.899 224.79C330.239 225.49 329.909 226.5 329.909 227.82V237H325.709V214.8H329.909V222.45C330.449 221.73 331.169 221.17 332.069 220.77C332.969 220.35 333.969 220.14 335.069 220.14Z" fill="white"/>
<rect x="135.5" y="334" width="147" height="36" rx="18" fill="white"/>
<path d="M156.866 358V346.48H158.794V356.192H163.882V358H156.866ZM169.165 358.24C168.291 358.24 167.523 358.051 166.861 357.672C166.2 357.294 165.683 356.768 165.309 356.096C164.941 355.424 164.757 354.651 164.757 353.776C164.757 352.832 164.939 352.014 165.301 351.32C165.664 350.622 166.168 350.08 166.813 349.696C167.459 349.312 168.205 349.12 169.053 349.12C169.949 349.12 170.709 349.331 171.333 349.752C171.963 350.168 172.429 350.758 172.733 351.52C173.037 352.283 173.152 353.182 173.077 354.216H171.165V353.512C171.16 352.574 170.995 351.888 170.669 351.456C170.344 351.024 169.832 350.808 169.133 350.808C168.344 350.808 167.757 351.054 167.373 351.544C166.989 352.03 166.797 352.742 166.797 353.68C166.797 354.555 166.989 355.232 167.373 355.712C167.757 356.192 168.317 356.432 169.053 356.432C169.528 356.432 169.936 356.328 170.277 356.12C170.624 355.907 170.891 355.6 171.077 355.2L172.981 355.776C172.651 356.555 172.139 357.16 171.445 357.592C170.757 358.024 169.997 358.24 169.165 358.24ZM166.189 354.216V352.76H172.133V354.216H166.189ZM177.122 358.24C176.498 358.24 175.97 358.123 175.538 357.888C175.106 357.648 174.778 357.331 174.554 356.936C174.335 356.542 174.226 356.107 174.226 355.632C174.226 355.216 174.295 354.843 174.434 354.512C174.573 354.176 174.786 353.888 175.074 353.648C175.362 353.403 175.735 353.203 176.194 353.048C176.541 352.936 176.946 352.835 177.41 352.744C177.879 352.654 178.386 352.571 178.93 352.496C179.479 352.416 180.053 352.331 180.65 352.24L179.962 352.632C179.967 352.035 179.834 351.595 179.562 351.312C179.29 351.03 178.831 350.888 178.186 350.888C177.797 350.888 177.421 350.979 177.058 351.16C176.695 351.342 176.442 351.654 176.298 352.096L174.538 351.544C174.751 350.814 175.157 350.227 175.754 349.784C176.357 349.342 177.167 349.12 178.186 349.12C178.954 349.12 179.629 349.246 180.21 349.496C180.797 349.747 181.231 350.158 181.514 350.728C181.669 351.032 181.762 351.344 181.794 351.664C181.826 351.979 181.842 352.323 181.842 352.696V358H180.154V356.128L180.434 356.432C180.045 357.056 179.589 357.515 179.066 357.808C178.549 358.096 177.901 358.24 177.122 358.24ZM177.506 356.704C177.943 356.704 178.317 356.627 178.626 356.472C178.935 356.318 179.181 356.128 179.362 355.904C179.549 355.68 179.674 355.47 179.738 355.272C179.839 355.027 179.895 354.747 179.906 354.432C179.922 354.112 179.93 353.854 179.93 353.656L180.522 353.832C179.941 353.923 179.442 354.003 179.026 354.072C178.61 354.142 178.253 354.208 177.954 354.272C177.655 354.331 177.391 354.398 177.162 354.472C176.938 354.552 176.749 354.646 176.594 354.752C176.439 354.859 176.319 354.982 176.234 355.12C176.154 355.259 176.114 355.422 176.114 355.608C176.114 355.822 176.167 356.011 176.274 356.176C176.381 356.336 176.535 356.464 176.738 356.56C176.946 356.656 177.202 356.704 177.506 356.704ZM183.925 358V349.36H185.629V351.464L185.421 351.192C185.527 350.904 185.669 350.643 185.845 350.408C186.026 350.168 186.242 349.971 186.493 349.816C186.706 349.672 186.941 349.56 187.197 349.48C187.458 349.395 187.725 349.344 187.997 349.328C188.269 349.307 188.533 349.318 188.789 349.36V351.16C188.533 351.086 188.237 351.062 187.901 351.088C187.57 351.115 187.271 351.208 187.005 351.368C186.738 351.512 186.519 351.696 186.349 351.92C186.183 352.144 186.061 352.4 185.981 352.688C185.901 352.971 185.861 353.278 185.861 353.608V358H183.925ZM196.291 358V353.84C196.291 353.568 196.273 353.267 196.235 352.936C196.198 352.606 196.11 352.288 195.971 351.984C195.838 351.675 195.635 351.422 195.363 351.224C195.097 351.027 194.734 350.928 194.275 350.928C194.03 350.928 193.787 350.968 193.547 351.048C193.307 351.128 193.089 351.267 192.891 351.464C192.699 351.656 192.545 351.923 192.427 352.264C192.31 352.6 192.251 353.032 192.251 353.56L191.107 353.072C191.107 352.336 191.249 351.67 191.531 351.072C191.819 350.475 192.241 350 192.795 349.648C193.35 349.291 194.033 349.112 194.843 349.112C195.483 349.112 196.011 349.219 196.427 349.432C196.843 349.646 197.174 349.918 197.419 350.248C197.665 350.579 197.846 350.931 197.963 351.304C198.081 351.678 198.155 352.032 198.187 352.368C198.225 352.699 198.243 352.968 198.243 353.176V358H196.291ZM190.299 358V349.36H192.019V352.04H192.251V358H190.299ZM213.91 358V352.752C213.91 352.16 213.763 351.699 213.47 351.368C213.177 351.032 212.779 350.864 212.278 350.864C211.969 350.864 211.691 350.936 211.446 351.08C211.201 351.219 211.006 351.427 210.862 351.704C210.718 351.976 210.646 352.302 210.646 352.68L209.79 352.176C209.785 351.579 209.918 351.054 210.19 350.6C210.467 350.142 210.841 349.784 211.31 349.528C211.779 349.272 212.302 349.144 212.878 349.144C213.833 349.144 214.563 349.432 215.07 350.008C215.582 350.579 215.838 351.331 215.838 352.264V358H213.91ZM203.518 358V349.36H205.222V352.04H205.462V358H203.518ZM208.726 358V352.776C208.726 352.174 208.579 351.704 208.286 351.368C207.993 351.032 207.593 350.864 207.086 350.864C206.595 350.864 206.201 351.032 205.902 351.368C205.609 351.704 205.462 352.142 205.462 352.68L204.598 352.104C204.598 351.544 204.737 351.04 205.014 350.592C205.291 350.144 205.665 349.792 206.134 349.536C206.609 349.275 207.139 349.144 207.726 349.144C208.371 349.144 208.91 349.283 209.342 349.56C209.779 349.832 210.105 350.206 210.318 350.68C210.537 351.15 210.646 351.68 210.646 352.272V358H208.726ZM221.6 358.24C220.736 358.24 219.981 358.046 219.336 357.656C218.691 357.267 218.189 356.731 217.832 356.048C217.48 355.36 217.304 354.571 217.304 353.68C217.304 352.774 217.485 351.979 217.848 351.296C218.211 350.614 218.715 350.08 219.36 349.696C220.005 349.312 220.752 349.12 221.6 349.12C222.469 349.12 223.227 349.315 223.872 349.704C224.517 350.094 225.019 350.632 225.376 351.32C225.733 352.003 225.912 352.79 225.912 353.68C225.912 354.576 225.731 355.368 225.368 356.056C225.011 356.739 224.509 357.275 223.864 357.664C223.219 358.048 222.464 358.24 221.6 358.24ZM221.6 356.432C222.368 356.432 222.939 356.176 223.312 355.664C223.685 355.152 223.872 354.491 223.872 353.68C223.872 352.843 223.683 352.176 223.304 351.68C222.925 351.179 222.357 350.928 221.6 350.928C221.083 350.928 220.656 351.046 220.32 351.28C219.989 351.51 219.744 351.832 219.584 352.248C219.424 352.659 219.344 353.136 219.344 353.68C219.344 354.518 219.533 355.187 219.912 355.688C220.296 356.184 220.859 356.432 221.6 356.432ZM227.675 358V349.36H229.379V351.464L229.171 351.192C229.277 350.904 229.419 350.643 229.595 350.408C229.776 350.168 229.992 349.971 230.243 349.816C230.456 349.672 230.691 349.56 230.947 349.48C231.208 349.395 231.475 349.344 231.747 349.328C232.019 349.307 232.283 349.318 232.539 349.36V351.16C232.283 351.086 231.987 351.062 231.651 351.088C231.32 351.115 231.021 351.208 230.755 351.368C230.488 351.512 230.269 351.696 230.099 351.92C229.933 352.144 229.811 352.4 229.731 352.688C229.651 352.971 229.611 353.278 229.611 353.608V358H227.675ZM237.837 358.24C236.962 358.24 236.194 358.051 235.533 357.672C234.872 357.294 234.354 356.768 233.981 356.096C233.613 355.424 233.429 354.651 233.429 353.776C233.429 352.832 233.61 352.014 233.973 351.32C234.336 350.622 234.84 350.08 235.485 349.696C236.13 349.312 236.877 349.12 237.725 349.12C238.621 349.12 239.381 349.331 240.005 349.752C240.634 350.168 241.101 350.758 241.405 351.52C241.709 352.283 241.824 353.182 241.749 354.216H239.837V353.512C239.832 352.574 239.666 351.888 239.341 351.456C239.016 351.024 238.504 350.808 237.805 350.808C237.016 350.808 236.429 351.054 236.045 351.544C235.661 352.03 235.469 352.742 235.469 353.68C235.469 354.555 235.661 355.232 236.045 355.712C236.429 356.192 236.989 356.432 237.725 356.432C238.2 356.432 238.608 356.328 238.949 356.12C239.296 355.907 239.562 355.6 239.749 355.2L241.653 355.776C241.322 356.555 240.81 357.16 240.117 357.592C239.429 358.024 238.669 358.24 237.837 358.24ZM234.861 354.216V352.76H240.805V354.216H234.861Z" fill="#007377"/>
<rect x="274.5" y="342" width="20" height="20" rx="10" transform="rotate(90 274.5 342)" fill="#007377"/>
<g clip-path="url(#clip0_2_262)">
<path d="M267.5 351.929L263.578 355.857L262.5 354.826L265.392 351.929L262.5 349.031L263.578 348L267.5 351.929Z" fill="white"/>
</g>
<defs>
<clipPath id="clip0_2_262">
<rect width="8" height="7" fill="white" transform="translate(268 348) rotate(90)"/>
</clipPath>
</defs>
</svg>
