<svg width="418" height="450" viewBox="0 0 418 450" fill="none" xmlns="http://www.w3.org/2000/svg">
<rect x="1.16663" y="0.5" width="416.333" height="449" rx="19.5" stroke="#C4C4C4"/>
<mask id="path-2-outside-1_2_277" maskUnits="userSpaceOnUse" x="157.418" y="79" width="104" height="86" fill="black">
<rect fill="white" x="157.418" y="79" width="104" height="86"/>
<path d="M249.973 104.62L258.918 110.002C259.325 110.244 259.846 110.116 260.088 109.709C260.33 109.302 260.203 108.78 259.796 108.539L250.851 103.157L251.004 102.915C251.245 102.508 251.118 101.986 250.711 101.744L245.723 98.7289C245.622 98.6653 245.52 98.6271 245.405 98.6144C245.367 98.6016 245.316 98.6144 245.278 98.6144C245.215 98.6144 245.138 98.6016 245.075 98.6271C244.986 98.6525 244.909 98.6907 244.833 98.7416C244.82 98.7543 244.795 98.7543 244.782 98.767C244.693 98.8307 244.617 98.9197 244.553 99.0215L243.268 101.146L240.087 99.2251C236.588 91.2221 228.674 83.3081 219.17 84.2115C218.826 83.6643 218.432 83.13 217.948 82.6465C216.243 80.9415 213.979 80 211.587 80C209.195 80 206.93 80.9415 205.225 82.6465L203.507 84.3769L201.777 82.6465C200.072 80.9415 197.807 80 195.39 80C192.998 80 190.733 80.9415 189.028 82.6465C185.529 86.1454 185.529 91.8582 189.028 95.3826L202.896 109.226C203.062 109.391 203.278 109.48 203.507 109.48C203.723 109.48 203.94 109.391 204.118 109.226L213.202 100.141C214.348 100.663 215.556 101.261 216.752 101.999C218.61 103.144 219.475 103.984 220.302 104.811C221.205 105.701 222.058 106.541 223.928 107.572C226.74 109.124 229.921 110.002 233.382 110.231L236.626 112.19L235.341 114.315C235.278 114.417 235.239 114.531 235.227 114.633C235.176 114.964 235.328 115.307 235.634 115.486L240.621 118.501C240.761 118.577 240.914 118.628 241.067 118.628C241.13 118.628 241.207 118.616 241.27 118.603C241.487 118.552 241.677 118.412 241.792 118.208L241.932 117.979L258.943 128.234C259.083 128.324 259.236 128.362 259.388 128.362C259.681 128.362 259.961 128.209 260.126 127.942C260.368 127.535 260.241 127.013 259.834 126.771L242.823 116.516L249.973 104.62ZM203.469 107.406L190.211 94.1739C187.374 91.3238 187.374 86.7052 190.211 83.8679C191.598 82.4811 193.43 81.7177 195.364 81.7177C197.311 81.7177 199.156 82.4811 200.53 83.8679L202.858 86.1963C203.176 86.5144 203.749 86.5144 204.067 86.1963L206.395 83.8679C207.782 82.4811 209.614 81.7177 211.548 81.7177C213.482 81.7177 215.315 82.4811 216.701 83.8679C217.21 84.3769 217.63 84.9367 217.948 85.522C219.411 88.1939 219.004 91.5147 216.981 93.8431C213.521 92.698 210.238 91.9473 208.94 92.4562C207.948 92.8507 207.388 93.5123 207.324 93.5886C206.612 94.4665 206.523 95.4335 206.51 95.6244C206.421 97.2402 208.266 98.0291 211.052 99.2251C211.179 99.276 211.332 99.3523 211.472 99.4032L203.469 107.406ZM234.196 108.768C234.056 108.653 233.903 108.577 233.713 108.564C230.392 108.386 227.364 107.546 224.704 106.083C223.038 105.167 222.312 104.442 221.46 103.602C220.607 102.749 219.628 101.795 217.592 100.548C215.518 99.276 213.419 98.3726 211.727 97.6474C210.403 97.0748 208.189 96.1333 208.215 95.7134C208.215 95.7134 208.253 95.1536 208.635 94.6828C208.635 94.6828 208.978 94.2757 209.551 94.0594C210.301 93.7667 214.157 94.4411 220.353 96.8967C220.798 97.0748 221.295 96.8585 221.46 96.4132C221.638 95.9679 221.422 95.4717 220.976 95.3063C220.238 95.0136 219.475 94.7337 218.699 94.4538C220.544 91.9982 221.027 88.7537 219.959 85.8909C228.432 85.5092 235.494 92.8634 238.598 100.205C238.624 100.256 238.675 100.281 238.7 100.332C238.726 100.37 238.751 100.396 238.776 100.434C238.84 100.51 238.904 100.574 238.993 100.625L242.339 102.648L237.441 110.765L234.196 108.768ZM240.736 116.605L237.212 114.48L245.558 100.637L249.082 102.762L248.955 102.966C248.943 102.979 248.943 102.979 248.93 102.991L244.744 109.938L240.736 116.605Z"/>
<path d="M231.588 121.593C231.41 121.415 231.168 121.338 230.926 121.351H208.609C208.571 121.351 208.546 121.351 208.507 121.351H169.968C169.726 121.338 169.497 121.415 169.307 121.593L158.67 132.23C158.428 132.471 158.352 132.84 158.479 133.158C158.606 133.477 158.924 133.693 159.268 133.693H169.039V163.135C169.039 163.606 169.421 163.987 169.892 163.987H208.507C208.52 163.987 208.533 164 208.546 164C208.558 164 208.571 164 208.584 163.987H230.977C231.448 163.987 231.829 163.606 231.829 163.135V133.693H241.614C241.957 133.693 242.275 133.489 242.403 133.158C242.53 132.84 242.466 132.471 242.212 132.23L231.588 121.593ZM169.917 131.975H161.354L170.261 123.069H206.484L197.578 131.975H169.93C169.917 131.975 169.917 131.975 169.917 131.975ZM207.706 162.282H170.77V133.693H197.922C198.151 133.693 198.367 133.604 198.532 133.438L207.706 124.265V162.282ZM209.424 162.282V124.265L218.597 133.438C218.763 133.604 218.979 133.693 219.208 133.693H230.137V162.282H209.424ZM219.564 131.975L210.658 123.069H230.659L239.565 131.975H219.564Z"/>
</mask>
<path d="M249.973 104.62L258.918 110.002C259.325 110.244 259.846 110.116 260.088 109.709C260.33 109.302 260.203 108.78 259.796 108.539L250.851 103.157L251.004 102.915C251.245 102.508 251.118 101.986 250.711 101.744L245.723 98.7289C245.622 98.6653 245.52 98.6271 245.405 98.6144C245.367 98.6016 245.316 98.6144 245.278 98.6144C245.215 98.6144 245.138 98.6016 245.075 98.6271C244.986 98.6525 244.909 98.6907 244.833 98.7416C244.82 98.7543 244.795 98.7543 244.782 98.767C244.693 98.8307 244.617 98.9197 244.553 99.0215L243.268 101.146L240.087 99.2251C236.588 91.2221 228.674 83.3081 219.17 84.2115C218.826 83.6643 218.432 83.13 217.948 82.6465C216.243 80.9415 213.979 80 211.587 80C209.195 80 206.93 80.9415 205.225 82.6465L203.507 84.3769L201.777 82.6465C200.072 80.9415 197.807 80 195.39 80C192.998 80 190.733 80.9415 189.028 82.6465C185.529 86.1454 185.529 91.8582 189.028 95.3826L202.896 109.226C203.062 109.391 203.278 109.48 203.507 109.48C203.723 109.48 203.94 109.391 204.118 109.226L213.202 100.141C214.348 100.663 215.556 101.261 216.752 101.999C218.61 103.144 219.475 103.984 220.302 104.811C221.205 105.701 222.058 106.541 223.928 107.572C226.74 109.124 229.921 110.002 233.382 110.231L236.626 112.19L235.341 114.315C235.278 114.417 235.239 114.531 235.227 114.633C235.176 114.964 235.328 115.307 235.634 115.486L240.621 118.501C240.761 118.577 240.914 118.628 241.067 118.628C241.13 118.628 241.207 118.616 241.27 118.603C241.487 118.552 241.677 118.412 241.792 118.208L241.932 117.979L258.943 128.234C259.083 128.324 259.236 128.362 259.388 128.362C259.681 128.362 259.961 128.209 260.126 127.942C260.368 127.535 260.241 127.013 259.834 126.771L242.823 116.516L249.973 104.62ZM203.469 107.406L190.211 94.1739C187.374 91.3238 187.374 86.7052 190.211 83.8679C191.598 82.4811 193.43 81.7177 195.364 81.7177C197.311 81.7177 199.156 82.4811 200.53 83.8679L202.858 86.1963C203.176 86.5144 203.749 86.5144 204.067 86.1963L206.395 83.8679C207.782 82.4811 209.614 81.7177 211.548 81.7177C213.482 81.7177 215.315 82.4811 216.701 83.8679C217.21 84.3769 217.63 84.9367 217.948 85.522C219.411 88.1939 219.004 91.5147 216.981 93.8431C213.521 92.698 210.238 91.9473 208.94 92.4562C207.948 92.8507 207.388 93.5123 207.324 93.5886C206.612 94.4665 206.523 95.4335 206.51 95.6244C206.421 97.2402 208.266 98.0291 211.052 99.2251C211.179 99.276 211.332 99.3523 211.472 99.4032L203.469 107.406ZM234.196 108.768C234.056 108.653 233.903 108.577 233.713 108.564C230.392 108.386 227.364 107.546 224.704 106.083C223.038 105.167 222.312 104.442 221.46 103.602C220.607 102.749 219.628 101.795 217.592 100.548C215.518 99.276 213.419 98.3726 211.727 97.6474C210.403 97.0748 208.189 96.1333 208.215 95.7134C208.215 95.7134 208.253 95.1536 208.635 94.6828C208.635 94.6828 208.978 94.2757 209.551 94.0594C210.301 93.7667 214.157 94.4411 220.353 96.8967C220.798 97.0748 221.295 96.8585 221.46 96.4132C221.638 95.9679 221.422 95.4717 220.976 95.3063C220.238 95.0136 219.475 94.7337 218.699 94.4538C220.544 91.9982 221.027 88.7537 219.959 85.8909C228.432 85.5092 235.494 92.8634 238.598 100.205C238.624 100.256 238.675 100.281 238.7 100.332C238.726 100.37 238.751 100.396 238.776 100.434C238.84 100.51 238.904 100.574 238.993 100.625L242.339 102.648L237.441 110.765L234.196 108.768ZM240.736 116.605L237.212 114.48L245.558 100.637L249.082 102.762L248.955 102.966C248.943 102.979 248.943 102.979 248.93 102.991L244.744 109.938L240.736 116.605Z" fill="#F6DBA0"/>
<path d="M231.588 121.593C231.41 121.415 231.168 121.338 230.926 121.351H208.609C208.571 121.351 208.546 121.351 208.507 121.351H169.968C169.726 121.338 169.497 121.415 169.307 121.593L158.67 132.23C158.428 132.471 158.352 132.84 158.479 133.158C158.606 133.477 158.924 133.693 159.268 133.693H169.039V163.135C169.039 163.606 169.421 163.987 169.892 163.987H208.507C208.52 163.987 208.533 164 208.546 164C208.558 164 208.571 164 208.584 163.987H230.977C231.448 163.987 231.829 163.606 231.829 163.135V133.693H241.614C241.957 133.693 242.275 133.489 242.403 133.158C242.53 132.84 242.466 132.471 242.212 132.23L231.588 121.593ZM169.917 131.975H161.354L170.261 123.069H206.484L197.578 131.975H169.93C169.917 131.975 169.917 131.975 169.917 131.975ZM207.706 162.282H170.77V133.693H197.922C198.151 133.693 198.367 133.604 198.532 133.438L207.706 124.265V162.282ZM209.424 162.282V124.265L218.597 133.438C218.763 133.604 218.979 133.693 219.208 133.693H230.137V162.282H209.424ZM219.564 131.975L210.658 123.069H230.659L239.565 131.975H219.564Z" fill="#F6DBA0"/>
<path d="M249.973 104.62L258.918 110.002C259.325 110.244 259.846 110.116 260.088 109.709C260.33 109.302 260.203 108.78 259.796 108.539L250.851 103.157L251.004 102.915C251.245 102.508 251.118 101.986 250.711 101.744L245.723 98.7289C245.622 98.6653 245.52 98.6271 245.405 98.6144C245.367 98.6016 245.316 98.6144 245.278 98.6144C245.215 98.6144 245.138 98.6016 245.075 98.6271C244.986 98.6525 244.909 98.6907 244.833 98.7416C244.82 98.7543 244.795 98.7543 244.782 98.767C244.693 98.8307 244.617 98.9197 244.553 99.0215L243.268 101.146L240.087 99.2251C236.588 91.2221 228.674 83.3081 219.17 84.2115C218.826 83.6643 218.432 83.13 217.948 82.6465C216.243 80.9415 213.979 80 211.587 80C209.195 80 206.93 80.9415 205.225 82.6465L203.507 84.3769L201.777 82.6465C200.072 80.9415 197.807 80 195.39 80C192.998 80 190.733 80.9415 189.028 82.6465C185.529 86.1454 185.529 91.8582 189.028 95.3826L202.896 109.226C203.062 109.391 203.278 109.48 203.507 109.48C203.723 109.48 203.94 109.391 204.118 109.226L213.202 100.141C214.348 100.663 215.556 101.261 216.752 101.999C218.61 103.144 219.475 103.984 220.302 104.811C221.205 105.701 222.058 106.541 223.928 107.572C226.74 109.124 229.921 110.002 233.382 110.231L236.626 112.19L235.341 114.315C235.278 114.417 235.239 114.531 235.227 114.633C235.176 114.964 235.328 115.307 235.634 115.486L240.621 118.501C240.761 118.577 240.914 118.628 241.067 118.628C241.13 118.628 241.207 118.616 241.27 118.603C241.487 118.552 241.677 118.412 241.792 118.208L241.932 117.979L258.943 128.234C259.083 128.324 259.236 128.362 259.388 128.362C259.681 128.362 259.961 128.209 260.126 127.942C260.368 127.535 260.241 127.013 259.834 126.771L242.823 116.516L249.973 104.62ZM203.469 107.406L190.211 94.1739C187.374 91.3238 187.374 86.7052 190.211 83.8679C191.598 82.4811 193.43 81.7177 195.364 81.7177C197.311 81.7177 199.156 82.4811 200.53 83.8679L202.858 86.1963C203.176 86.5144 203.749 86.5144 204.067 86.1963L206.395 83.8679C207.782 82.4811 209.614 81.7177 211.548 81.7177C213.482 81.7177 215.315 82.4811 216.701 83.8679C217.21 84.3769 217.63 84.9367 217.948 85.522C219.411 88.1939 219.004 91.5147 216.981 93.8431C213.521 92.698 210.238 91.9473 208.94 92.4562C207.948 92.8507 207.388 93.5123 207.324 93.5886C206.612 94.4665 206.523 95.4335 206.51 95.6244C206.421 97.2402 208.266 98.0291 211.052 99.2251C211.179 99.276 211.332 99.3523 211.472 99.4032L203.469 107.406ZM234.196 108.768C234.056 108.653 233.903 108.577 233.713 108.564C230.392 108.386 227.364 107.546 224.704 106.083C223.038 105.167 222.312 104.442 221.46 103.602C220.607 102.749 219.628 101.795 217.592 100.548C215.518 99.276 213.419 98.3726 211.727 97.6474C210.403 97.0748 208.189 96.1333 208.215 95.7134C208.215 95.7134 208.253 95.1536 208.635 94.6828C208.635 94.6828 208.978 94.2757 209.551 94.0594C210.301 93.7667 214.157 94.4411 220.353 96.8967C220.798 97.0748 221.295 96.8585 221.46 96.4132C221.638 95.9679 221.422 95.4717 220.976 95.3063C220.238 95.0136 219.475 94.7337 218.699 94.4538C220.544 91.9982 221.027 88.7537 219.959 85.8909C228.432 85.5092 235.494 92.8634 238.598 100.205C238.624 100.256 238.675 100.281 238.7 100.332C238.726 100.37 238.751 100.396 238.776 100.434C238.84 100.51 238.904 100.574 238.993 100.625L242.339 102.648L237.441 110.765L234.196 108.768ZM240.736 116.605L237.212 114.48L245.558 100.637L249.082 102.762L248.955 102.966C248.943 102.979 248.943 102.979 248.93 102.991L244.744 109.938L240.736 116.605Z" stroke="#F6DBA0" stroke-width="1.6" mask="url(#path-2-outside-1_2_277)"/>
<path d="M231.588 121.593C231.41 121.415 231.168 121.338 230.926 121.351H208.609C208.571 121.351 208.546 121.351 208.507 121.351H169.968C169.726 121.338 169.497 121.415 169.307 121.593L158.67 132.23C158.428 132.471 158.352 132.84 158.479 133.158C158.606 133.477 158.924 133.693 159.268 133.693H169.039V163.135C169.039 163.606 169.421 163.987 169.892 163.987H208.507C208.52 163.987 208.533 164 208.546 164C208.558 164 208.571 164 208.584 163.987H230.977C231.448 163.987 231.829 163.606 231.829 163.135V133.693H241.614C241.957 133.693 242.275 133.489 242.403 133.158C242.53 132.84 242.466 132.471 242.212 132.23L231.588 121.593ZM169.917 131.975H161.354L170.261 123.069H206.484L197.578 131.975H169.93C169.917 131.975 169.917 131.975 169.917 131.975ZM207.706 162.282H170.77V133.693H197.922C198.151 133.693 198.367 133.604 198.532 133.438L207.706 124.265V162.282ZM209.424 162.282V124.265L218.597 133.438C218.763 133.604 218.979 133.693 219.208 133.693H230.137V162.282H209.424ZM219.564 131.975L210.658 123.069H230.659L239.565 131.975H219.564Z" stroke="#F6DBA0" stroke-width="1.6" mask="url(#path-2-outside-1_2_277)"/>
<path d="M97.4572 237L92.8372 228.84H90.8572V237H86.6572V216.06H94.5172C96.1372 216.06 97.5172 216.35 98.6572 216.93C99.7972 217.49 100.647 218.26 101.207 219.24C101.787 220.2 102.077 221.28 102.077 222.48C102.077 223.86 101.677 225.11 100.877 226.23C100.077 227.33 98.8872 228.09 97.3072 228.51L102.317 237H97.4572ZM90.8572 225.69H94.3672C95.5072 225.69 96.3572 225.42 96.9172 224.88C97.4772 224.32 97.7572 223.55 97.7572 222.57C97.7572 221.61 97.4772 220.87 96.9172 220.35C96.3572 219.81 95.5072 219.54 94.3672 219.54H90.8572V225.69ZM121.326 228.33C121.326 228.93 121.286 229.47 121.206 229.95H109.056C109.156 231.15 109.576 232.09 110.316 232.77C111.056 233.45 111.966 233.79 113.046 233.79C114.606 233.79 115.716 233.12 116.376 231.78H120.906C120.426 233.38 119.506 234.7 118.146 235.74C116.786 236.76 115.116 237.27 113.136 237.27C111.536 237.27 110.096 236.92 108.816 236.22C107.556 235.5 106.566 234.49 105.846 233.19C105.146 231.89 104.796 230.39 104.796 228.69C104.796 226.97 105.146 225.46 105.846 224.16C106.546 222.86 107.526 221.86 108.786 221.16C110.046 220.46 111.496 220.11 113.136 220.11C114.716 220.11 116.126 220.45 117.366 221.13C118.626 221.81 119.596 222.78 120.276 224.04C120.976 225.28 121.326 226.71 121.326 228.33ZM116.976 227.13C116.956 226.05 116.566 225.19 115.806 224.55C115.046 223.89 114.116 223.56 113.016 223.56C111.976 223.56 111.096 223.88 110.376 224.52C109.676 225.14 109.246 226.01 109.086 227.13H116.976ZM132.012 223.83H129.102V237H124.842V223.83H122.952V220.38H124.842V219.54C124.842 217.5 125.422 216 126.582 215.04C127.742 214.08 129.492 213.63 131.832 213.69V217.23C130.812 217.21 130.102 217.38 129.702 217.74C129.302 218.1 129.102 218.75 129.102 219.69V220.38H132.012V223.83ZM150.183 228.33C150.183 228.93 150.143 229.47 150.063 229.95H137.913C138.013 231.15 138.433 232.09 139.173 232.77C139.913 233.45 140.823 233.79 141.903 233.79C143.463 233.79 144.573 233.12 145.233 231.78H149.763C149.283 233.38 148.363 234.7 147.003 235.74C145.643 236.76 143.973 237.27 141.993 237.27C140.393 237.27 138.953 236.92 137.673 236.22C136.413 235.5 135.423 234.49 134.703 233.19C134.003 231.89 133.653 230.39 133.653 228.69C133.653 226.97 134.003 225.46 134.703 224.16C135.403 222.86 136.383 221.86 137.643 221.16C138.903 220.46 140.353 220.11 141.993 220.11C143.573 220.11 144.983 220.45 146.223 221.13C147.483 221.81 148.453 222.78 149.133 224.04C149.833 225.28 150.183 226.71 150.183 228.33ZM145.833 227.13C145.813 226.05 145.423 225.19 144.663 224.55C143.903 223.89 142.973 223.56 141.873 223.56C140.833 223.56 139.953 223.88 139.233 224.52C138.533 225.14 138.103 226.01 137.943 227.13H145.833ZM157.449 222.96C157.989 222.08 158.689 221.39 159.549 220.89C160.429 220.39 161.429 220.14 162.549 220.14V224.55H161.439C160.119 224.55 159.119 224.86 158.439 225.48C157.779 226.1 157.449 227.18 157.449 228.72V237H153.249V220.38H157.449V222.96ZM169.578 222.96C170.118 222.08 170.818 221.39 171.678 220.89C172.558 220.39 173.558 220.14 174.678 220.14V224.55H173.568C172.248 224.55 171.248 224.86 170.568 225.48C169.908 226.1 169.578 227.18 169.578 228.72V237H165.378V220.38H169.578V222.96ZM176.427 228.63C176.427 226.95 176.757 225.46 177.417 224.16C178.097 222.86 179.007 221.86 180.147 221.16C181.307 220.46 182.597 220.11 184.017 220.11C185.257 220.11 186.337 220.36 187.257 220.86C188.197 221.36 188.947 221.99 189.507 222.75V220.38H193.737V237H189.507V234.57C188.967 235.35 188.217 236 187.257 236.52C186.317 237.02 185.227 237.27 183.987 237.27C182.587 237.27 181.307 236.91 180.147 236.19C179.007 235.47 178.097 234.46 177.417 233.16C176.757 231.84 176.427 230.33 176.427 228.63ZM189.507 228.69C189.507 227.67 189.307 226.8 188.907 226.08C188.507 225.34 187.967 224.78 187.287 224.4C186.607 224 185.877 223.8 185.097 223.8C184.317 223.8 183.597 223.99 182.937 224.37C182.277 224.75 181.737 225.31 181.317 226.05C180.917 226.77 180.717 227.63 180.717 228.63C180.717 229.63 180.917 230.51 181.317 231.27C181.737 232.01 182.277 232.58 182.937 232.98C183.617 233.38 184.337 233.58 185.097 233.58C185.877 233.58 186.607 233.39 187.287 233.01C187.967 232.61 188.507 232.05 188.907 231.33C189.307 230.59 189.507 229.71 189.507 228.69ZM202.039 214.8V237H197.839V214.8H202.039ZM225.217 226.26C226.397 226.48 227.367 227.07 228.127 228.03C228.887 228.99 229.267 230.09 229.267 231.33C229.267 232.45 228.987 233.44 228.427 234.3C227.887 235.14 227.097 235.8 226.057 236.28C225.017 236.76 223.787 237 222.367 237H213.337V216.06H221.977C223.397 216.06 224.617 216.29 225.637 216.75C226.677 217.21 227.457 217.85 227.977 218.67C228.517 219.49 228.787 220.42 228.787 221.46C228.787 222.68 228.457 223.7 227.797 224.52C227.157 225.34 226.297 225.92 225.217 226.26ZM217.537 224.7H221.377C222.377 224.7 223.147 224.48 223.687 224.04C224.227 223.58 224.497 222.93 224.497 222.09C224.497 221.25 224.227 220.6 223.687 220.14C223.147 219.68 222.377 219.45 221.377 219.45H217.537V224.7ZM221.767 233.58C222.787 233.58 223.577 233.34 224.137 232.86C224.717 232.38 225.007 231.7 225.007 230.82C225.007 229.92 224.707 229.22 224.107 228.72C223.507 228.2 222.697 227.94 221.677 227.94H217.537V233.58H221.767ZM248.064 228.33C248.064 228.93 248.024 229.47 247.944 229.95H235.794C235.894 231.15 236.314 232.09 237.054 232.77C237.794 233.45 238.704 233.79 239.784 233.79C241.344 233.79 242.454 233.12 243.114 231.78H247.644C247.164 233.38 246.244 234.7 244.884 235.74C243.524 236.76 241.854 237.27 239.874 237.27C238.274 237.27 236.834 236.92 235.554 236.22C234.294 235.5 233.304 234.49 232.584 233.19C231.884 231.89 231.534 230.39 231.534 228.69C231.534 226.97 231.884 225.46 232.584 224.16C233.284 222.86 234.264 221.86 235.524 221.16C236.784 220.46 238.234 220.11 239.874 220.11C241.454 220.11 242.864 220.45 244.104 221.13C245.364 221.81 246.334 222.78 247.014 224.04C247.714 225.28 248.064 226.71 248.064 228.33ZM243.714 227.13C243.694 226.05 243.304 225.19 242.544 224.55C241.784 223.89 240.854 223.56 239.754 223.56C238.714 223.56 237.834 223.88 237.114 224.52C236.414 225.14 235.984 226.01 235.824 227.13H243.714ZM260.34 220.14C262.32 220.14 263.92 220.77 265.14 222.03C266.36 223.27 266.97 225.01 266.97 227.25V237H262.77V227.82C262.77 226.5 262.44 225.49 261.78 224.79C261.12 224.07 260.22 223.71 259.08 223.71C257.92 223.71 257 224.07 256.32 224.79C255.66 225.49 255.33 226.5 255.33 227.82V237H251.13V220.38H255.33V222.45C255.89 221.73 256.6 221.17 257.46 220.77C258.34 220.35 259.3 220.14 260.34 220.14ZM286.414 228.33C286.414 228.93 286.374 229.47 286.294 229.95H274.144C274.244 231.15 274.664 232.09 275.404 232.77C276.144 233.45 277.054 233.79 278.134 233.79C279.694 233.79 280.804 233.12 281.464 231.78H285.994C285.514 233.38 284.594 234.7 283.234 235.74C281.874 236.76 280.204 237.27 278.224 237.27C276.624 237.27 275.184 236.92 273.904 236.22C272.644 235.5 271.654 234.49 270.934 233.19C270.234 231.89 269.884 230.39 269.884 228.69C269.884 226.97 270.234 225.46 270.934 224.16C271.634 222.86 272.614 221.86 273.874 221.16C275.134 220.46 276.584 220.11 278.224 220.11C279.804 220.11 281.214 220.45 282.454 221.13C283.714 221.81 284.684 222.78 285.364 224.04C286.064 225.28 286.414 226.71 286.414 228.33ZM282.064 227.13C282.044 226.05 281.654 225.19 280.894 224.55C280.134 223.89 279.204 223.56 278.104 223.56C277.064 223.56 276.184 223.88 275.464 224.52C274.764 225.14 274.334 226.01 274.174 227.13H282.064ZM297.099 223.83H294.189V237H289.929V223.83H288.039V220.38H289.929V219.54C289.929 217.5 290.509 216 291.669 215.04C292.829 214.08 294.579 213.63 296.919 213.69V217.23C295.899 217.21 295.189 217.38 294.789 217.74C294.389 218.1 294.189 218.75 294.189 219.69V220.38H297.099V223.83ZM301.951 218.4C301.211 218.4 300.591 218.17 300.091 217.71C299.611 217.23 299.371 216.64 299.371 215.94C299.371 215.24 299.611 214.66 300.091 214.2C300.591 213.72 301.211 213.48 301.951 213.48C302.691 213.48 303.301 213.72 303.781 214.2C304.281 214.66 304.531 215.24 304.531 215.94C304.531 216.64 304.281 217.23 303.781 217.71C303.301 218.17 302.691 218.4 301.951 218.4ZM304.021 220.38V237H299.821V220.38H304.021ZM313.061 223.83V231.87C313.061 232.43 313.191 232.84 313.451 233.1C313.731 233.34 314.191 233.46 314.831 233.46H316.781V237H314.141C310.601 237 308.831 235.28 308.831 231.84V223.83H306.851V220.38H308.831V216.27H313.061V220.38H316.781V223.83H313.061ZM326.162 237.27C324.802 237.27 323.582 237.03 322.502 236.55C321.422 236.05 320.562 235.38 319.922 234.54C319.302 233.7 318.962 232.77 318.902 231.75H323.132C323.212 232.39 323.522 232.92 324.062 233.34C324.622 233.76 325.312 233.97 326.132 233.97C326.932 233.97 327.552 233.81 327.992 233.49C328.452 233.17 328.682 232.76 328.682 232.26C328.682 231.72 328.402 231.32 327.842 231.06C327.302 230.78 326.432 230.48 325.232 230.16C323.992 229.86 322.972 229.55 322.172 229.23C321.392 228.91 320.712 228.42 320.132 227.76C319.572 227.1 319.292 226.21 319.292 225.09C319.292 224.17 319.552 223.33 320.072 222.57C320.612 221.81 321.372 221.21 322.352 220.77C323.352 220.33 324.522 220.11 325.862 220.11C327.842 220.11 329.422 220.61 330.602 221.61C331.782 222.59 332.432 223.92 332.552 225.6H328.532C328.472 224.94 328.192 224.42 327.692 224.04C327.212 223.64 326.562 223.44 325.742 223.44C324.982 223.44 324.392 223.58 323.972 223.86C323.572 224.14 323.372 224.53 323.372 225.03C323.372 225.59 323.652 226.02 324.212 226.32C324.772 226.6 325.642 226.89 326.822 227.19C328.022 227.49 329.012 227.8 329.792 228.12C330.572 228.44 331.242 228.94 331.802 229.62C332.382 230.28 332.682 231.16 332.702 232.26C332.702 233.22 332.432 234.08 331.892 234.84C331.372 235.6 330.612 236.2 329.612 236.64C328.632 237.06 327.482 237.27 326.162 237.27Z" fill="white"/>
<rect x="135.833" y="334" width="147" height="36" rx="18" fill="white"/>
<path d="M157.199 358V346.48H159.127V356.192H164.215V358H157.199ZM169.498 358.24C168.624 358.24 167.856 358.051 167.194 357.672C166.533 357.293 166.016 356.768 165.642 356.096C165.274 355.424 165.09 354.651 165.09 353.776C165.09 352.832 165.272 352.013 165.634 351.32C165.997 350.621 166.501 350.08 167.146 349.696C167.792 349.312 168.538 349.12 169.386 349.12C170.282 349.12 171.042 349.331 171.666 349.752C172.296 350.168 172.762 350.757 173.066 351.52C173.37 352.283 173.485 353.181 173.41 354.216H171.498V353.512C171.493 352.573 171.328 351.888 171.002 351.456C170.677 351.024 170.165 350.808 169.466 350.808C168.677 350.808 168.09 351.053 167.706 351.544C167.322 352.029 167.13 352.741 167.13 353.68C167.13 354.555 167.322 355.232 167.706 355.712C168.09 356.192 168.65 356.432 169.386 356.432C169.861 356.432 170.269 356.328 170.61 356.12C170.957 355.907 171.224 355.6 171.41 355.2L173.314 355.776C172.984 356.555 172.472 357.16 171.778 357.592C171.09 358.024 170.33 358.24 169.498 358.24ZM166.522 354.216V352.76H172.466V354.216H166.522ZM177.455 358.24C176.831 358.24 176.303 358.123 175.871 357.888C175.439 357.648 175.111 357.331 174.887 356.936C174.669 356.541 174.559 356.107 174.559 355.632C174.559 355.216 174.629 354.843 174.767 354.512C174.906 354.176 175.119 353.888 175.407 353.648C175.695 353.403 176.069 353.203 176.527 353.048C176.874 352.936 177.279 352.835 177.743 352.744C178.213 352.653 178.719 352.571 179.263 352.496C179.813 352.416 180.386 352.331 180.983 352.24L180.295 352.632C180.301 352.035 180.167 351.595 179.895 351.312C179.623 351.029 179.165 350.888 178.519 350.888C178.13 350.888 177.754 350.979 177.391 351.16C177.029 351.341 176.775 351.653 176.631 352.096L174.871 351.544C175.085 350.813 175.49 350.227 176.087 349.784C176.69 349.341 177.501 349.12 178.519 349.12C179.287 349.12 179.962 349.245 180.543 349.496C181.13 349.747 181.565 350.157 181.847 350.728C182.002 351.032 182.095 351.344 182.127 351.664C182.159 351.979 182.175 352.323 182.175 352.696V358H180.487V356.128L180.767 356.432C180.378 357.056 179.922 357.515 179.399 357.808C178.882 358.096 178.234 358.24 177.455 358.24ZM177.839 356.704C178.277 356.704 178.65 356.627 178.959 356.472C179.269 356.317 179.514 356.128 179.695 355.904C179.882 355.68 180.007 355.469 180.071 355.272C180.173 355.027 180.229 354.747 180.239 354.432C180.255 354.112 180.263 353.853 180.263 353.656L180.855 353.832C180.274 353.923 179.775 354.003 179.359 354.072C178.943 354.141 178.586 354.208 178.287 354.272C177.989 354.331 177.725 354.397 177.495 354.472C177.271 354.552 177.082 354.645 176.927 354.752C176.773 354.859 176.653 354.981 176.567 355.12C176.487 355.259 176.447 355.421 176.447 355.608C176.447 355.821 176.501 356.011 176.607 356.176C176.714 356.336 176.869 356.464 177.071 356.56C177.279 356.656 177.535 356.704 177.839 356.704ZM184.258 358V349.36H185.962V351.464L185.754 351.192C185.861 350.904 186.002 350.643 186.178 350.408C186.359 350.168 186.575 349.971 186.826 349.816C187.039 349.672 187.274 349.56 187.53 349.48C187.791 349.395 188.058 349.344 188.33 349.328C188.602 349.307 188.866 349.317 189.122 349.36V351.16C188.866 351.085 188.57 351.061 188.234 351.088C187.903 351.115 187.605 351.208 187.338 351.368C187.071 351.512 186.853 351.696 186.682 351.92C186.517 352.144 186.394 352.4 186.314 352.688C186.234 352.971 186.194 353.277 186.194 353.608V358H184.258ZM196.625 358V353.84C196.625 353.568 196.606 353.267 196.569 352.936C196.531 352.605 196.443 352.288 196.305 351.984C196.171 351.675 195.969 351.421 195.697 351.224C195.43 351.027 195.067 350.928 194.609 350.928C194.363 350.928 194.121 350.968 193.881 351.048C193.641 351.128 193.422 351.267 193.225 351.464C193.033 351.656 192.878 351.923 192.761 352.264C192.643 352.6 192.585 353.032 192.585 353.56L191.441 353.072C191.441 352.336 191.582 351.669 191.865 351.072C192.153 350.475 192.574 350 193.129 349.648C193.683 349.291 194.366 349.112 195.177 349.112C195.817 349.112 196.345 349.219 196.761 349.432C197.177 349.645 197.507 349.917 197.753 350.248C197.998 350.579 198.179 350.931 198.297 351.304C198.414 351.677 198.489 352.032 198.521 352.368C198.558 352.699 198.577 352.968 198.577 353.176V358H196.625ZM190.633 358V349.36H192.353V352.04H192.585V358H190.633ZM214.243 358V352.752C214.243 352.16 214.097 351.699 213.803 351.368C213.51 351.032 213.113 350.864 212.611 350.864C212.302 350.864 212.025 350.936 211.779 351.08C211.534 351.219 211.339 351.427 211.195 351.704C211.051 351.976 210.979 352.301 210.979 352.68L210.123 352.176C210.118 351.579 210.251 351.053 210.523 350.6C210.801 350.141 211.174 349.784 211.643 349.528C212.113 349.272 212.635 349.144 213.211 349.144C214.166 349.144 214.897 349.432 215.403 350.008C215.915 350.579 216.171 351.331 216.171 352.264V358H214.243ZM203.851 358V349.36H205.555V352.04H205.795V358H203.851ZM209.059 358V352.776C209.059 352.173 208.913 351.704 208.619 351.368C208.326 351.032 207.926 350.864 207.419 350.864C206.929 350.864 206.534 351.032 206.235 351.368C205.942 351.704 205.795 352.141 205.795 352.68L204.931 352.104C204.931 351.544 205.07 351.04 205.347 350.592C205.625 350.144 205.998 349.792 206.467 349.536C206.942 349.275 207.473 349.144 208.059 349.144C208.705 349.144 209.243 349.283 209.675 349.56C210.113 349.832 210.438 350.205 210.651 350.68C210.87 351.149 210.979 351.68 210.979 352.272V358H209.059ZM221.933 358.24C221.069 358.24 220.315 358.045 219.669 357.656C219.024 357.267 218.523 356.731 218.165 356.048C217.813 355.36 217.637 354.571 217.637 353.68C217.637 352.773 217.819 351.979 218.181 351.296C218.544 350.613 219.048 350.08 219.693 349.696C220.339 349.312 221.085 349.12 221.933 349.12C222.803 349.12 223.56 349.315 224.205 349.704C224.851 350.093 225.352 350.632 225.709 351.32C226.067 352.003 226.245 352.789 226.245 353.68C226.245 354.576 226.064 355.368 225.701 356.056C225.344 356.739 224.843 357.275 224.197 357.664C223.552 358.048 222.797 358.24 221.933 358.24ZM221.933 356.432C222.701 356.432 223.272 356.176 223.645 355.664C224.019 355.152 224.205 354.491 224.205 353.68C224.205 352.843 224.016 352.176 223.637 351.68C223.259 351.179 222.691 350.928 221.933 350.928C221.416 350.928 220.989 351.045 220.653 351.28C220.323 351.509 220.077 351.832 219.917 352.248C219.757 352.659 219.677 353.136 219.677 353.68C219.677 354.517 219.867 355.187 220.245 355.688C220.629 356.184 221.192 356.432 221.933 356.432ZM228.008 358V349.36H229.712V351.464L229.504 351.192C229.611 350.904 229.752 350.643 229.928 350.408C230.109 350.168 230.325 349.971 230.576 349.816C230.789 349.672 231.024 349.56 231.28 349.48C231.541 349.395 231.808 349.344 232.08 349.328C232.352 349.307 232.616 349.317 232.872 349.36V351.16C232.616 351.085 232.32 351.061 231.984 351.088C231.653 351.115 231.355 351.208 231.088 351.368C230.821 351.512 230.603 351.696 230.432 351.92C230.267 352.144 230.144 352.4 230.064 352.688C229.984 352.971 229.944 353.277 229.944 353.608V358H228.008ZM238.17 358.24C237.296 358.24 236.528 358.051 235.866 357.672C235.205 357.293 234.688 356.768 234.314 356.096C233.946 355.424 233.762 354.651 233.762 353.776C233.762 352.832 233.944 352.013 234.306 351.32C234.669 350.621 235.173 350.08 235.818 349.696C236.464 349.312 237.21 349.12 238.058 349.12C238.954 349.12 239.714 349.331 240.338 349.752C240.968 350.168 241.434 350.757 241.738 351.52C242.042 352.283 242.157 353.181 242.082 354.216H240.17V353.512C240.165 352.573 240 351.888 239.674 351.456C239.349 351.024 238.837 350.808 238.138 350.808C237.349 350.808 236.762 351.053 236.378 351.544C235.994 352.029 235.802 352.741 235.802 353.68C235.802 354.555 235.994 355.232 236.378 355.712C236.762 356.192 237.322 356.432 238.058 356.432C238.533 356.432 238.941 356.328 239.282 356.12C239.629 355.907 239.896 355.6 240.082 355.2L241.986 355.776C241.656 356.555 241.144 357.16 240.45 357.592C239.762 358.024 239.002 358.24 238.17 358.24ZM235.194 354.216V352.76H241.138V354.216H235.194Z" fill="#007377"/>
<rect x="274.833" y="342" width="20" height="20" rx="10" transform="rotate(90 274.833 342)" fill="#007377"/>
<g clip-path="url(#clip0_2_277)">
<path d="M267.833 351.929L263.912 355.857L262.833 354.826L265.725 351.929L262.833 349.031L263.912 348L267.833 351.929Z" fill="white"/>
</g>
<defs>
<clipPath id="clip0_2_277">
<rect width="8" height="7" fill="white" transform="translate(268.333 348) rotate(90)"/>
</clipPath>
</defs>
</svg>
