<svg width="457" height="133" viewBox="0 0 457 133" fill="none" xmlns="http://www.w3.org/2000/svg">
<g clip-path="url(#clip0_7_3)">
<path d="M65.9546 16.9266H38.5123V101.691H27.3803V16.9266H0V6.87427H65.9546V16.9266Z" fill="#007377"/>
<path d="M91.738 44.957C89.8387 43.5033 87.0945 42.7764 83.5208 42.7764C78.8773 42.7764 75.0013 44.957 71.8849 49.3182C68.7686 53.6793 67.2104 59.6334 67.2104 67.1727V101.683H56.342V33.9845H67.2104V47.9341H67.474C69.0167 43.1708 71.3811 39.4592 74.5672 36.7914C77.7455 34.1237 81.3037 32.7937 85.2418 32.7937C88.0713 32.7937 90.2341 33.103 91.738 33.7216V44.9647V44.957Z" fill="#007377"/>
<path d="M125.909 103.276C115.878 103.276 107.87 100.113 101.878 93.7881C95.8931 87.4629 92.893 79.0731 92.893 68.6264C92.893 57.2518 96.0094 48.3748 102.242 41.98C108.475 35.5929 116.893 32.3916 127.498 32.3916C138.103 32.3916 145.514 35.5001 151.196 41.7171C156.871 47.934 159.716 56.5481 159.716 67.567C159.716 78.5859 156.654 87.0144 150.537 93.5175C144.413 100.021 136.212 103.268 125.909 103.268V103.276ZM126.708 41.5238C119.723 41.5238 114.203 43.8899 110.134 48.63C106.064 53.37 104.033 59.904 104.033 68.232C104.033 76.56 106.087 82.5759 110.196 87.2077C114.304 91.8395 119.808 94.1515 126.7 94.1515C133.591 94.1515 139.126 91.8782 142.909 87.3392C146.685 82.8001 148.576 76.3435 148.576 67.9691C148.576 59.5947 146.685 52.9834 142.909 48.398C139.134 43.8126 133.731 41.5238 126.7 41.5238H126.708Z" fill="#007377"/>
<path d="M201.244 103.276C191.213 103.276 183.205 100.113 177.212 93.7881C171.228 87.4629 168.228 79.0731 168.228 68.6264C168.228 57.2518 171.344 48.3748 177.577 41.98C183.809 35.5929 192.228 32.3916 202.833 32.3916C213.438 32.3916 220.849 35.5001 226.531 41.7171C232.205 47.934 235.05 56.5481 235.05 67.567C235.05 78.5859 231.988 87.0144 225.872 93.5175C219.748 100.021 211.546 103.268 201.244 103.268V103.276ZM202.042 41.5238C195.058 41.5238 189.538 43.8899 185.468 48.63C181.398 53.37 179.367 59.904 179.367 68.232C179.367 76.56 181.422 82.5759 185.53 87.2077C189.639 91.8395 195.143 94.1515 202.034 94.1515C208.926 94.1515 214.461 91.8782 218.244 87.3392C222.019 82.8001 223.911 76.3435 223.911 67.9691C223.911 59.5947 222.019 52.9834 218.244 48.398C214.469 43.8126 209.066 41.5238 202.034 41.5238H202.042Z" fill="#007377"/>
<path d="M297.486 101.691H248.167V6.87427H259.307V91.6386H297.486V101.691Z" fill="#007377"/>
<path d="M310.478 16.7951C308.532 16.7951 306.873 16.1378 305.509 14.8156C304.137 13.4933 303.455 11.8153 303.455 9.7894C303.455 7.76347 304.137 6.07777 305.509 4.73231C306.881 3.38684 308.532 2.71411 310.478 2.71411C312.424 2.71411 314.16 3.38684 315.548 4.73231C316.936 6.07777 317.633 7.76347 317.633 9.7894C317.633 11.8153 316.936 13.385 315.548 14.746C314.153 16.1146 312.463 16.7951 310.478 16.7951ZM315.781 101.691H304.912V33.9846H315.781V101.691Z" fill="#007377"/>
<path d="M365.626 10.9723C363.502 9.78152 361.099 9.18612 358.401 9.18612C350.804 9.18612 346.998 13.9726 346.998 23.53V33.9767H362.905V43.2326H346.998V101.683H336.192V43.2403H324.595V33.9844H336.192V23.0119C336.192 15.9134 338.246 10.3073 342.355 6.18588C346.463 2.06443 351.587 0.00756836 357.735 0.00756836C361.045 0.00756836 363.681 0.401929 365.619 1.19838V10.9801L365.626 10.9723Z" fill="#007377"/>
<path d="M423.426 70.544H375.502C375.681 78.0833 377.712 83.8982 381.603 87.9964C385.495 92.0947 390.836 94.1438 397.642 94.1438C405.286 94.1438 412.309 91.6307 418.72 86.6046V96.7883C412.751 101.111 404.867 103.268 395.053 103.268C385.239 103.268 377.929 100.191 372.448 94.0433C366.967 87.8959 364.231 79.2432 364.231 68.0928C364.231 57.5611 367.223 48.9779 373.216 42.3434C379.2 35.7089 386.634 32.3916 395.518 32.3916C404.402 32.3916 411.271 35.2604 416.131 40.9902C420.992 46.72 423.426 54.6768 423.426 64.8606V70.544ZM412.286 61.35C412.24 55.0944 410.728 50.2229 407.743 46.7355C404.759 43.2558 400.619 41.5083 395.317 41.5083C390.014 41.5083 385.836 43.3409 382.262 46.9984C378.681 50.6559 376.471 55.4424 375.634 61.3423H412.286V61.35Z" fill="#007377"/>
<path d="M436.038 85.7927H430.891V101.683H428.806V85.7927H423.674V83.906H436.038V85.7927Z" fill="black"/>
<path d="M457 101.691H454.922V89.7671C454.922 88.8237 454.977 87.6716 455.093 86.3107H455.046C454.845 87.1149 454.667 87.6871 454.512 88.035L448.418 101.698H447.403L441.325 88.1356C441.155 87.7412 440.976 87.1303 440.79 86.3107H440.744C440.806 87.0221 440.845 88.182 440.845 89.7903V101.691H438.829V83.9136H441.589L447.054 96.3089C447.473 97.26 447.752 97.9714 447.876 98.4431H447.953C448.31 97.4688 448.597 96.7419 448.814 96.2625L454.395 83.9136H457.008V101.691H457Z" fill="black"/>
<path d="M86.5364 133V125.128H235.709V133H86.5364Z" fill="#007377"/>
</g>
<defs>
<clipPath id="clip0_7_3">
<rect width="457" height="133" fill="white"/>
</clipPath>
</defs>
</svg>
